M48
; DRILL file {KiCad 5.1.5+dfsg1-2build2} date Пн 11 окт 2021 18:12:09
; FORMAT={-:-/ absolute / metric / decimal}
; #@! TF.CreationDate,2021-10-11T18:12:09+03:00
; #@! TF.GenerationSoftware,Kicad,Pcbnew,5.1.5+dfsg1-2build2
; #@! TF.FileFunction,Plated,1,2,PTH
FMAT,2
METRIC
T1C0.400
T2C0.600
T3C0.800
T4C1.000
T5C1.500
%
G90
G05
T1
X164.425Y-87.925
X165.675Y-73.825
X170.5Y-68.25
X170.5Y-71.0
X172.55Y-69.225
X175.0Y-80.0
X177.0Y-80.0
X177.0Y-85.75
X177.0Y-87.0
X177.0Y-88.5
X178.25Y-71.75
X180.0Y-77.5
X181.0Y-81.5
X182.5Y-82.0
X185.0Y-77.75
X185.0Y-86.5
X185.25Y-74.25
X186.75Y-74.0
X186.75Y-78.0
X186.838Y-79.837
X187.5Y-88.0
X189.5Y-85.0
X190.5Y-72.25
X194.5Y-81.5
X197.7Y-80.4
X199.5Y-80.7
X200.8Y-77.3
X201.2Y-81.7
X202.4Y-70.7
X203.1Y-66.9
X204.2Y-74.7
X204.5Y-83.0
T3
X168.62Y-83.5
X173.5Y-83.5
T4
X162.0Y-72.46
X162.0Y-75.0
X162.0Y-77.54
X162.0Y-80.08
T5
X168.19Y-75.46
X174.54Y-72.92
X190.19Y-75.46
X196.54Y-72.92
T2
X193.23Y-84.865G85X193.23Y-83.765
G05
X193.23Y-88.795G85X193.23Y-88.195
G05
X201.87Y-84.865G85X201.87Y-83.765
G05
X201.87Y-88.795G85X201.87Y-88.195
G05
T0
M30
