G04 #@! TF.GenerationSoftware,KiCad,Pcbnew,5.1.5+dfsg1-2build2*
G04 #@! TF.CreationDate,2021-10-12T15:37:10+03:00*
G04 #@! TF.ProjectId,usb_kb,7573625f-6b62-42e6-9b69-6361645f7063,rev?*
G04 #@! TF.SameCoordinates,Original*
G04 #@! TF.FileFunction,Paste,Top*
G04 #@! TF.FilePolarity,Positive*
%FSLAX46Y46*%
G04 Gerber Fmt 4.6, Leading zero omitted, Abs format (unit mm)*
G04 Created by KiCad (PCBNEW 5.1.5+dfsg1-2build2) date 2021-10-12 15:37:10*
%MOMM*%
%LPD*%
G04 APERTURE LIST*
%ADD10C,0.100000*%
%ADD11R,1.060000X0.650000*%
G04 APERTURE END LIST*
D10*
G36*
X182010779Y-72851144D02*
G01*
X182033834Y-72854563D01*
X182056443Y-72860227D01*
X182078387Y-72868079D01*
X182099457Y-72878044D01*
X182119448Y-72890026D01*
X182138168Y-72903910D01*
X182155438Y-72919562D01*
X182171090Y-72936832D01*
X182184974Y-72955552D01*
X182196956Y-72975543D01*
X182206921Y-72996613D01*
X182214773Y-73018557D01*
X182220437Y-73041166D01*
X182223856Y-73064221D01*
X182225000Y-73087500D01*
X182225000Y-73662500D01*
X182223856Y-73685779D01*
X182220437Y-73708834D01*
X182214773Y-73731443D01*
X182206921Y-73753387D01*
X182196956Y-73774457D01*
X182184974Y-73794448D01*
X182171090Y-73813168D01*
X182155438Y-73830438D01*
X182138168Y-73846090D01*
X182119448Y-73859974D01*
X182099457Y-73871956D01*
X182078387Y-73881921D01*
X182056443Y-73889773D01*
X182033834Y-73895437D01*
X182010779Y-73898856D01*
X181987500Y-73900000D01*
X181512500Y-73900000D01*
X181489221Y-73898856D01*
X181466166Y-73895437D01*
X181443557Y-73889773D01*
X181421613Y-73881921D01*
X181400543Y-73871956D01*
X181380552Y-73859974D01*
X181361832Y-73846090D01*
X181344562Y-73830438D01*
X181328910Y-73813168D01*
X181315026Y-73794448D01*
X181303044Y-73774457D01*
X181293079Y-73753387D01*
X181285227Y-73731443D01*
X181279563Y-73708834D01*
X181276144Y-73685779D01*
X181275000Y-73662500D01*
X181275000Y-73087500D01*
X181276144Y-73064221D01*
X181279563Y-73041166D01*
X181285227Y-73018557D01*
X181293079Y-72996613D01*
X181303044Y-72975543D01*
X181315026Y-72955552D01*
X181328910Y-72936832D01*
X181344562Y-72919562D01*
X181361832Y-72903910D01*
X181380552Y-72890026D01*
X181400543Y-72878044D01*
X181421613Y-72868079D01*
X181443557Y-72860227D01*
X181466166Y-72854563D01*
X181489221Y-72851144D01*
X181512500Y-72850000D01*
X181987500Y-72850000D01*
X182010779Y-72851144D01*
G37*
G36*
X182010779Y-71101144D02*
G01*
X182033834Y-71104563D01*
X182056443Y-71110227D01*
X182078387Y-71118079D01*
X182099457Y-71128044D01*
X182119448Y-71140026D01*
X182138168Y-71153910D01*
X182155438Y-71169562D01*
X182171090Y-71186832D01*
X182184974Y-71205552D01*
X182196956Y-71225543D01*
X182206921Y-71246613D01*
X182214773Y-71268557D01*
X182220437Y-71291166D01*
X182223856Y-71314221D01*
X182225000Y-71337500D01*
X182225000Y-71912500D01*
X182223856Y-71935779D01*
X182220437Y-71958834D01*
X182214773Y-71981443D01*
X182206921Y-72003387D01*
X182196956Y-72024457D01*
X182184974Y-72044448D01*
X182171090Y-72063168D01*
X182155438Y-72080438D01*
X182138168Y-72096090D01*
X182119448Y-72109974D01*
X182099457Y-72121956D01*
X182078387Y-72131921D01*
X182056443Y-72139773D01*
X182033834Y-72145437D01*
X182010779Y-72148856D01*
X181987500Y-72150000D01*
X181512500Y-72150000D01*
X181489221Y-72148856D01*
X181466166Y-72145437D01*
X181443557Y-72139773D01*
X181421613Y-72131921D01*
X181400543Y-72121956D01*
X181380552Y-72109974D01*
X181361832Y-72096090D01*
X181344562Y-72080438D01*
X181328910Y-72063168D01*
X181315026Y-72044448D01*
X181303044Y-72024457D01*
X181293079Y-72003387D01*
X181285227Y-71981443D01*
X181279563Y-71958834D01*
X181276144Y-71935779D01*
X181275000Y-71912500D01*
X181275000Y-71337500D01*
X181276144Y-71314221D01*
X181279563Y-71291166D01*
X181285227Y-71268557D01*
X181293079Y-71246613D01*
X181303044Y-71225543D01*
X181315026Y-71205552D01*
X181328910Y-71186832D01*
X181344562Y-71169562D01*
X181361832Y-71153910D01*
X181380552Y-71140026D01*
X181400543Y-71128044D01*
X181421613Y-71118079D01*
X181443557Y-71110227D01*
X181466166Y-71104563D01*
X181489221Y-71101144D01*
X181512500Y-71100000D01*
X181987500Y-71100000D01*
X182010779Y-71101144D01*
G37*
G36*
X189935779Y-68776144D02*
G01*
X189958834Y-68779563D01*
X189981443Y-68785227D01*
X190003387Y-68793079D01*
X190024457Y-68803044D01*
X190044448Y-68815026D01*
X190063168Y-68828910D01*
X190080438Y-68844562D01*
X190096090Y-68861832D01*
X190109974Y-68880552D01*
X190121956Y-68900543D01*
X190131921Y-68921613D01*
X190139773Y-68943557D01*
X190145437Y-68966166D01*
X190148856Y-68989221D01*
X190150000Y-69012500D01*
X190150000Y-69487500D01*
X190148856Y-69510779D01*
X190145437Y-69533834D01*
X190139773Y-69556443D01*
X190131921Y-69578387D01*
X190121956Y-69599457D01*
X190109974Y-69619448D01*
X190096090Y-69638168D01*
X190080438Y-69655438D01*
X190063168Y-69671090D01*
X190044448Y-69684974D01*
X190024457Y-69696956D01*
X190003387Y-69706921D01*
X189981443Y-69714773D01*
X189958834Y-69720437D01*
X189935779Y-69723856D01*
X189912500Y-69725000D01*
X189337500Y-69725000D01*
X189314221Y-69723856D01*
X189291166Y-69720437D01*
X189268557Y-69714773D01*
X189246613Y-69706921D01*
X189225543Y-69696956D01*
X189205552Y-69684974D01*
X189186832Y-69671090D01*
X189169562Y-69655438D01*
X189153910Y-69638168D01*
X189140026Y-69619448D01*
X189128044Y-69599457D01*
X189118079Y-69578387D01*
X189110227Y-69556443D01*
X189104563Y-69533834D01*
X189101144Y-69510779D01*
X189100000Y-69487500D01*
X189100000Y-69012500D01*
X189101144Y-68989221D01*
X189104563Y-68966166D01*
X189110227Y-68943557D01*
X189118079Y-68921613D01*
X189128044Y-68900543D01*
X189140026Y-68880552D01*
X189153910Y-68861832D01*
X189169562Y-68844562D01*
X189186832Y-68828910D01*
X189205552Y-68815026D01*
X189225543Y-68803044D01*
X189246613Y-68793079D01*
X189268557Y-68785227D01*
X189291166Y-68779563D01*
X189314221Y-68776144D01*
X189337500Y-68775000D01*
X189912500Y-68775000D01*
X189935779Y-68776144D01*
G37*
G36*
X191685779Y-68776144D02*
G01*
X191708834Y-68779563D01*
X191731443Y-68785227D01*
X191753387Y-68793079D01*
X191774457Y-68803044D01*
X191794448Y-68815026D01*
X191813168Y-68828910D01*
X191830438Y-68844562D01*
X191846090Y-68861832D01*
X191859974Y-68880552D01*
X191871956Y-68900543D01*
X191881921Y-68921613D01*
X191889773Y-68943557D01*
X191895437Y-68966166D01*
X191898856Y-68989221D01*
X191900000Y-69012500D01*
X191900000Y-69487500D01*
X191898856Y-69510779D01*
X191895437Y-69533834D01*
X191889773Y-69556443D01*
X191881921Y-69578387D01*
X191871956Y-69599457D01*
X191859974Y-69619448D01*
X191846090Y-69638168D01*
X191830438Y-69655438D01*
X191813168Y-69671090D01*
X191794448Y-69684974D01*
X191774457Y-69696956D01*
X191753387Y-69706921D01*
X191731443Y-69714773D01*
X191708834Y-69720437D01*
X191685779Y-69723856D01*
X191662500Y-69725000D01*
X191087500Y-69725000D01*
X191064221Y-69723856D01*
X191041166Y-69720437D01*
X191018557Y-69714773D01*
X190996613Y-69706921D01*
X190975543Y-69696956D01*
X190955552Y-69684974D01*
X190936832Y-69671090D01*
X190919562Y-69655438D01*
X190903910Y-69638168D01*
X190890026Y-69619448D01*
X190878044Y-69599457D01*
X190868079Y-69578387D01*
X190860227Y-69556443D01*
X190854563Y-69533834D01*
X190851144Y-69510779D01*
X190850000Y-69487500D01*
X190850000Y-69012500D01*
X190851144Y-68989221D01*
X190854563Y-68966166D01*
X190860227Y-68943557D01*
X190868079Y-68921613D01*
X190878044Y-68900543D01*
X190890026Y-68880552D01*
X190903910Y-68861832D01*
X190919562Y-68844562D01*
X190936832Y-68828910D01*
X190955552Y-68815026D01*
X190975543Y-68803044D01*
X190996613Y-68793079D01*
X191018557Y-68785227D01*
X191041166Y-68779563D01*
X191064221Y-68776144D01*
X191087500Y-68775000D01*
X191662500Y-68775000D01*
X191685779Y-68776144D01*
G37*
G36*
X169223279Y-86526144D02*
G01*
X169246334Y-86529563D01*
X169268943Y-86535227D01*
X169290887Y-86543079D01*
X169311957Y-86553044D01*
X169331948Y-86565026D01*
X169350668Y-86578910D01*
X169367938Y-86594562D01*
X169383590Y-86611832D01*
X169397474Y-86630552D01*
X169409456Y-86650543D01*
X169419421Y-86671613D01*
X169427273Y-86693557D01*
X169432937Y-86716166D01*
X169436356Y-86739221D01*
X169437500Y-86762500D01*
X169437500Y-87237500D01*
X169436356Y-87260779D01*
X169432937Y-87283834D01*
X169427273Y-87306443D01*
X169419421Y-87328387D01*
X169409456Y-87349457D01*
X169397474Y-87369448D01*
X169383590Y-87388168D01*
X169367938Y-87405438D01*
X169350668Y-87421090D01*
X169331948Y-87434974D01*
X169311957Y-87446956D01*
X169290887Y-87456921D01*
X169268943Y-87464773D01*
X169246334Y-87470437D01*
X169223279Y-87473856D01*
X169200000Y-87475000D01*
X168625000Y-87475000D01*
X168601721Y-87473856D01*
X168578666Y-87470437D01*
X168556057Y-87464773D01*
X168534113Y-87456921D01*
X168513043Y-87446956D01*
X168493052Y-87434974D01*
X168474332Y-87421090D01*
X168457062Y-87405438D01*
X168441410Y-87388168D01*
X168427526Y-87369448D01*
X168415544Y-87349457D01*
X168405579Y-87328387D01*
X168397727Y-87306443D01*
X168392063Y-87283834D01*
X168388644Y-87260779D01*
X168387500Y-87237500D01*
X168387500Y-86762500D01*
X168388644Y-86739221D01*
X168392063Y-86716166D01*
X168397727Y-86693557D01*
X168405579Y-86671613D01*
X168415544Y-86650543D01*
X168427526Y-86630552D01*
X168441410Y-86611832D01*
X168457062Y-86594562D01*
X168474332Y-86578910D01*
X168493052Y-86565026D01*
X168513043Y-86553044D01*
X168534113Y-86543079D01*
X168556057Y-86535227D01*
X168578666Y-86529563D01*
X168601721Y-86526144D01*
X168625000Y-86525000D01*
X169200000Y-86525000D01*
X169223279Y-86526144D01*
G37*
G36*
X167473279Y-86526144D02*
G01*
X167496334Y-86529563D01*
X167518943Y-86535227D01*
X167540887Y-86543079D01*
X167561957Y-86553044D01*
X167581948Y-86565026D01*
X167600668Y-86578910D01*
X167617938Y-86594562D01*
X167633590Y-86611832D01*
X167647474Y-86630552D01*
X167659456Y-86650543D01*
X167669421Y-86671613D01*
X167677273Y-86693557D01*
X167682937Y-86716166D01*
X167686356Y-86739221D01*
X167687500Y-86762500D01*
X167687500Y-87237500D01*
X167686356Y-87260779D01*
X167682937Y-87283834D01*
X167677273Y-87306443D01*
X167669421Y-87328387D01*
X167659456Y-87349457D01*
X167647474Y-87369448D01*
X167633590Y-87388168D01*
X167617938Y-87405438D01*
X167600668Y-87421090D01*
X167581948Y-87434974D01*
X167561957Y-87446956D01*
X167540887Y-87456921D01*
X167518943Y-87464773D01*
X167496334Y-87470437D01*
X167473279Y-87473856D01*
X167450000Y-87475000D01*
X166875000Y-87475000D01*
X166851721Y-87473856D01*
X166828666Y-87470437D01*
X166806057Y-87464773D01*
X166784113Y-87456921D01*
X166763043Y-87446956D01*
X166743052Y-87434974D01*
X166724332Y-87421090D01*
X166707062Y-87405438D01*
X166691410Y-87388168D01*
X166677526Y-87369448D01*
X166665544Y-87349457D01*
X166655579Y-87328387D01*
X166647727Y-87306443D01*
X166642063Y-87283834D01*
X166638644Y-87260779D01*
X166637500Y-87237500D01*
X166637500Y-86762500D01*
X166638644Y-86739221D01*
X166642063Y-86716166D01*
X166647727Y-86693557D01*
X166655579Y-86671613D01*
X166665544Y-86650543D01*
X166677526Y-86630552D01*
X166691410Y-86611832D01*
X166707062Y-86594562D01*
X166724332Y-86578910D01*
X166743052Y-86565026D01*
X166763043Y-86553044D01*
X166784113Y-86543079D01*
X166806057Y-86535227D01*
X166828666Y-86529563D01*
X166851721Y-86526144D01*
X166875000Y-86525000D01*
X167450000Y-86525000D01*
X167473279Y-86526144D01*
G37*
G36*
X173473279Y-86526144D02*
G01*
X173496334Y-86529563D01*
X173518943Y-86535227D01*
X173540887Y-86543079D01*
X173561957Y-86553044D01*
X173581948Y-86565026D01*
X173600668Y-86578910D01*
X173617938Y-86594562D01*
X173633590Y-86611832D01*
X173647474Y-86630552D01*
X173659456Y-86650543D01*
X173669421Y-86671613D01*
X173677273Y-86693557D01*
X173682937Y-86716166D01*
X173686356Y-86739221D01*
X173687500Y-86762500D01*
X173687500Y-87237500D01*
X173686356Y-87260779D01*
X173682937Y-87283834D01*
X173677273Y-87306443D01*
X173669421Y-87328387D01*
X173659456Y-87349457D01*
X173647474Y-87369448D01*
X173633590Y-87388168D01*
X173617938Y-87405438D01*
X173600668Y-87421090D01*
X173581948Y-87434974D01*
X173561957Y-87446956D01*
X173540887Y-87456921D01*
X173518943Y-87464773D01*
X173496334Y-87470437D01*
X173473279Y-87473856D01*
X173450000Y-87475000D01*
X172875000Y-87475000D01*
X172851721Y-87473856D01*
X172828666Y-87470437D01*
X172806057Y-87464773D01*
X172784113Y-87456921D01*
X172763043Y-87446956D01*
X172743052Y-87434974D01*
X172724332Y-87421090D01*
X172707062Y-87405438D01*
X172691410Y-87388168D01*
X172677526Y-87369448D01*
X172665544Y-87349457D01*
X172655579Y-87328387D01*
X172647727Y-87306443D01*
X172642063Y-87283834D01*
X172638644Y-87260779D01*
X172637500Y-87237500D01*
X172637500Y-86762500D01*
X172638644Y-86739221D01*
X172642063Y-86716166D01*
X172647727Y-86693557D01*
X172655579Y-86671613D01*
X172665544Y-86650543D01*
X172677526Y-86630552D01*
X172691410Y-86611832D01*
X172707062Y-86594562D01*
X172724332Y-86578910D01*
X172743052Y-86565026D01*
X172763043Y-86553044D01*
X172784113Y-86543079D01*
X172806057Y-86535227D01*
X172828666Y-86529563D01*
X172851721Y-86526144D01*
X172875000Y-86525000D01*
X173450000Y-86525000D01*
X173473279Y-86526144D01*
G37*
G36*
X175223279Y-86526144D02*
G01*
X175246334Y-86529563D01*
X175268943Y-86535227D01*
X175290887Y-86543079D01*
X175311957Y-86553044D01*
X175331948Y-86565026D01*
X175350668Y-86578910D01*
X175367938Y-86594562D01*
X175383590Y-86611832D01*
X175397474Y-86630552D01*
X175409456Y-86650543D01*
X175419421Y-86671613D01*
X175427273Y-86693557D01*
X175432937Y-86716166D01*
X175436356Y-86739221D01*
X175437500Y-86762500D01*
X175437500Y-87237500D01*
X175436356Y-87260779D01*
X175432937Y-87283834D01*
X175427273Y-87306443D01*
X175419421Y-87328387D01*
X175409456Y-87349457D01*
X175397474Y-87369448D01*
X175383590Y-87388168D01*
X175367938Y-87405438D01*
X175350668Y-87421090D01*
X175331948Y-87434974D01*
X175311957Y-87446956D01*
X175290887Y-87456921D01*
X175268943Y-87464773D01*
X175246334Y-87470437D01*
X175223279Y-87473856D01*
X175200000Y-87475000D01*
X174625000Y-87475000D01*
X174601721Y-87473856D01*
X174578666Y-87470437D01*
X174556057Y-87464773D01*
X174534113Y-87456921D01*
X174513043Y-87446956D01*
X174493052Y-87434974D01*
X174474332Y-87421090D01*
X174457062Y-87405438D01*
X174441410Y-87388168D01*
X174427526Y-87369448D01*
X174415544Y-87349457D01*
X174405579Y-87328387D01*
X174397727Y-87306443D01*
X174392063Y-87283834D01*
X174388644Y-87260779D01*
X174387500Y-87237500D01*
X174387500Y-86762500D01*
X174388644Y-86739221D01*
X174392063Y-86716166D01*
X174397727Y-86693557D01*
X174405579Y-86671613D01*
X174415544Y-86650543D01*
X174427526Y-86630552D01*
X174441410Y-86611832D01*
X174457062Y-86594562D01*
X174474332Y-86578910D01*
X174493052Y-86565026D01*
X174513043Y-86553044D01*
X174534113Y-86543079D01*
X174556057Y-86535227D01*
X174578666Y-86529563D01*
X174601721Y-86526144D01*
X174625000Y-86525000D01*
X175200000Y-86525000D01*
X175223279Y-86526144D01*
G37*
G36*
X179510779Y-69101144D02*
G01*
X179533834Y-69104563D01*
X179556443Y-69110227D01*
X179578387Y-69118079D01*
X179599457Y-69128044D01*
X179619448Y-69140026D01*
X179638168Y-69153910D01*
X179655438Y-69169562D01*
X179671090Y-69186832D01*
X179684974Y-69205552D01*
X179696956Y-69225543D01*
X179706921Y-69246613D01*
X179714773Y-69268557D01*
X179720437Y-69291166D01*
X179723856Y-69314221D01*
X179725000Y-69337500D01*
X179725000Y-69912500D01*
X179723856Y-69935779D01*
X179720437Y-69958834D01*
X179714773Y-69981443D01*
X179706921Y-70003387D01*
X179696956Y-70024457D01*
X179684974Y-70044448D01*
X179671090Y-70063168D01*
X179655438Y-70080438D01*
X179638168Y-70096090D01*
X179619448Y-70109974D01*
X179599457Y-70121956D01*
X179578387Y-70131921D01*
X179556443Y-70139773D01*
X179533834Y-70145437D01*
X179510779Y-70148856D01*
X179487500Y-70150000D01*
X179012500Y-70150000D01*
X178989221Y-70148856D01*
X178966166Y-70145437D01*
X178943557Y-70139773D01*
X178921613Y-70131921D01*
X178900543Y-70121956D01*
X178880552Y-70109974D01*
X178861832Y-70096090D01*
X178844562Y-70080438D01*
X178828910Y-70063168D01*
X178815026Y-70044448D01*
X178803044Y-70024457D01*
X178793079Y-70003387D01*
X178785227Y-69981443D01*
X178779563Y-69958834D01*
X178776144Y-69935779D01*
X178775000Y-69912500D01*
X178775000Y-69337500D01*
X178776144Y-69314221D01*
X178779563Y-69291166D01*
X178785227Y-69268557D01*
X178793079Y-69246613D01*
X178803044Y-69225543D01*
X178815026Y-69205552D01*
X178828910Y-69186832D01*
X178844562Y-69169562D01*
X178861832Y-69153910D01*
X178880552Y-69140026D01*
X178900543Y-69128044D01*
X178921613Y-69118079D01*
X178943557Y-69110227D01*
X178966166Y-69104563D01*
X178989221Y-69101144D01*
X179012500Y-69100000D01*
X179487500Y-69100000D01*
X179510779Y-69101144D01*
G37*
G36*
X179510779Y-67351144D02*
G01*
X179533834Y-67354563D01*
X179556443Y-67360227D01*
X179578387Y-67368079D01*
X179599457Y-67378044D01*
X179619448Y-67390026D01*
X179638168Y-67403910D01*
X179655438Y-67419562D01*
X179671090Y-67436832D01*
X179684974Y-67455552D01*
X179696956Y-67475543D01*
X179706921Y-67496613D01*
X179714773Y-67518557D01*
X179720437Y-67541166D01*
X179723856Y-67564221D01*
X179725000Y-67587500D01*
X179725000Y-68162500D01*
X179723856Y-68185779D01*
X179720437Y-68208834D01*
X179714773Y-68231443D01*
X179706921Y-68253387D01*
X179696956Y-68274457D01*
X179684974Y-68294448D01*
X179671090Y-68313168D01*
X179655438Y-68330438D01*
X179638168Y-68346090D01*
X179619448Y-68359974D01*
X179599457Y-68371956D01*
X179578387Y-68381921D01*
X179556443Y-68389773D01*
X179533834Y-68395437D01*
X179510779Y-68398856D01*
X179487500Y-68400000D01*
X179012500Y-68400000D01*
X178989221Y-68398856D01*
X178966166Y-68395437D01*
X178943557Y-68389773D01*
X178921613Y-68381921D01*
X178900543Y-68371956D01*
X178880552Y-68359974D01*
X178861832Y-68346090D01*
X178844562Y-68330438D01*
X178828910Y-68313168D01*
X178815026Y-68294448D01*
X178803044Y-68274457D01*
X178793079Y-68253387D01*
X178785227Y-68231443D01*
X178779563Y-68208834D01*
X178776144Y-68185779D01*
X178775000Y-68162500D01*
X178775000Y-67587500D01*
X178776144Y-67564221D01*
X178779563Y-67541166D01*
X178785227Y-67518557D01*
X178793079Y-67496613D01*
X178803044Y-67475543D01*
X178815026Y-67455552D01*
X178828910Y-67436832D01*
X178844562Y-67419562D01*
X178861832Y-67403910D01*
X178880552Y-67390026D01*
X178900543Y-67378044D01*
X178921613Y-67368079D01*
X178943557Y-67360227D01*
X178966166Y-67354563D01*
X178989221Y-67351144D01*
X179012500Y-67350000D01*
X179487500Y-67350000D01*
X179510779Y-67351144D01*
G37*
G36*
X184510779Y-69063644D02*
G01*
X184533834Y-69067063D01*
X184556443Y-69072727D01*
X184578387Y-69080579D01*
X184599457Y-69090544D01*
X184619448Y-69102526D01*
X184638168Y-69116410D01*
X184655438Y-69132062D01*
X184671090Y-69149332D01*
X184684974Y-69168052D01*
X184696956Y-69188043D01*
X184706921Y-69209113D01*
X184714773Y-69231057D01*
X184720437Y-69253666D01*
X184723856Y-69276721D01*
X184725000Y-69300000D01*
X184725000Y-69875000D01*
X184723856Y-69898279D01*
X184720437Y-69921334D01*
X184714773Y-69943943D01*
X184706921Y-69965887D01*
X184696956Y-69986957D01*
X184684974Y-70006948D01*
X184671090Y-70025668D01*
X184655438Y-70042938D01*
X184638168Y-70058590D01*
X184619448Y-70072474D01*
X184599457Y-70084456D01*
X184578387Y-70094421D01*
X184556443Y-70102273D01*
X184533834Y-70107937D01*
X184510779Y-70111356D01*
X184487500Y-70112500D01*
X184012500Y-70112500D01*
X183989221Y-70111356D01*
X183966166Y-70107937D01*
X183943557Y-70102273D01*
X183921613Y-70094421D01*
X183900543Y-70084456D01*
X183880552Y-70072474D01*
X183861832Y-70058590D01*
X183844562Y-70042938D01*
X183828910Y-70025668D01*
X183815026Y-70006948D01*
X183803044Y-69986957D01*
X183793079Y-69965887D01*
X183785227Y-69943943D01*
X183779563Y-69921334D01*
X183776144Y-69898279D01*
X183775000Y-69875000D01*
X183775000Y-69300000D01*
X183776144Y-69276721D01*
X183779563Y-69253666D01*
X183785227Y-69231057D01*
X183793079Y-69209113D01*
X183803044Y-69188043D01*
X183815026Y-69168052D01*
X183828910Y-69149332D01*
X183844562Y-69132062D01*
X183861832Y-69116410D01*
X183880552Y-69102526D01*
X183900543Y-69090544D01*
X183921613Y-69080579D01*
X183943557Y-69072727D01*
X183966166Y-69067063D01*
X183989221Y-69063644D01*
X184012500Y-69062500D01*
X184487500Y-69062500D01*
X184510779Y-69063644D01*
G37*
G36*
X184510779Y-67313644D02*
G01*
X184533834Y-67317063D01*
X184556443Y-67322727D01*
X184578387Y-67330579D01*
X184599457Y-67340544D01*
X184619448Y-67352526D01*
X184638168Y-67366410D01*
X184655438Y-67382062D01*
X184671090Y-67399332D01*
X184684974Y-67418052D01*
X184696956Y-67438043D01*
X184706921Y-67459113D01*
X184714773Y-67481057D01*
X184720437Y-67503666D01*
X184723856Y-67526721D01*
X184725000Y-67550000D01*
X184725000Y-68125000D01*
X184723856Y-68148279D01*
X184720437Y-68171334D01*
X184714773Y-68193943D01*
X184706921Y-68215887D01*
X184696956Y-68236957D01*
X184684974Y-68256948D01*
X184671090Y-68275668D01*
X184655438Y-68292938D01*
X184638168Y-68308590D01*
X184619448Y-68322474D01*
X184599457Y-68334456D01*
X184578387Y-68344421D01*
X184556443Y-68352273D01*
X184533834Y-68357937D01*
X184510779Y-68361356D01*
X184487500Y-68362500D01*
X184012500Y-68362500D01*
X183989221Y-68361356D01*
X183966166Y-68357937D01*
X183943557Y-68352273D01*
X183921613Y-68344421D01*
X183900543Y-68334456D01*
X183880552Y-68322474D01*
X183861832Y-68308590D01*
X183844562Y-68292938D01*
X183828910Y-68275668D01*
X183815026Y-68256948D01*
X183803044Y-68236957D01*
X183793079Y-68215887D01*
X183785227Y-68193943D01*
X183779563Y-68171334D01*
X183776144Y-68148279D01*
X183775000Y-68125000D01*
X183775000Y-67550000D01*
X183776144Y-67526721D01*
X183779563Y-67503666D01*
X183785227Y-67481057D01*
X183793079Y-67459113D01*
X183803044Y-67438043D01*
X183815026Y-67418052D01*
X183828910Y-67399332D01*
X183844562Y-67382062D01*
X183861832Y-67366410D01*
X183880552Y-67352526D01*
X183900543Y-67340544D01*
X183921613Y-67330579D01*
X183943557Y-67322727D01*
X183966166Y-67317063D01*
X183989221Y-67313644D01*
X184012500Y-67312500D01*
X184487500Y-67312500D01*
X184510779Y-67313644D01*
G37*
D11*
X198900000Y-69000000D03*
X198900000Y-69950000D03*
X198900000Y-68050000D03*
X201100000Y-68050000D03*
X201100000Y-69000000D03*
X201100000Y-69950000D03*
D10*
G36*
X195874505Y-68551204D02*
G01*
X195898773Y-68554804D01*
X195922572Y-68560765D01*
X195945671Y-68569030D01*
X195967850Y-68579520D01*
X195988893Y-68592132D01*
X196008599Y-68606747D01*
X196026777Y-68623223D01*
X196043253Y-68641401D01*
X196057868Y-68661107D01*
X196070480Y-68682150D01*
X196080970Y-68704329D01*
X196089235Y-68727428D01*
X196095196Y-68751227D01*
X196098796Y-68775495D01*
X196100000Y-68799999D01*
X196100000Y-69700001D01*
X196098796Y-69724505D01*
X196095196Y-69748773D01*
X196089235Y-69772572D01*
X196080970Y-69795671D01*
X196070480Y-69817850D01*
X196057868Y-69838893D01*
X196043253Y-69858599D01*
X196026777Y-69876777D01*
X196008599Y-69893253D01*
X195988893Y-69907868D01*
X195967850Y-69920480D01*
X195945671Y-69930970D01*
X195922572Y-69939235D01*
X195898773Y-69945196D01*
X195874505Y-69948796D01*
X195850001Y-69950000D01*
X195199999Y-69950000D01*
X195175495Y-69948796D01*
X195151227Y-69945196D01*
X195127428Y-69939235D01*
X195104329Y-69930970D01*
X195082150Y-69920480D01*
X195061107Y-69907868D01*
X195041401Y-69893253D01*
X195023223Y-69876777D01*
X195006747Y-69858599D01*
X194992132Y-69838893D01*
X194979520Y-69817850D01*
X194969030Y-69795671D01*
X194960765Y-69772572D01*
X194954804Y-69748773D01*
X194951204Y-69724505D01*
X194950000Y-69700001D01*
X194950000Y-68799999D01*
X194951204Y-68775495D01*
X194954804Y-68751227D01*
X194960765Y-68727428D01*
X194969030Y-68704329D01*
X194979520Y-68682150D01*
X194992132Y-68661107D01*
X195006747Y-68641401D01*
X195023223Y-68623223D01*
X195041401Y-68606747D01*
X195061107Y-68592132D01*
X195082150Y-68579520D01*
X195104329Y-68569030D01*
X195127428Y-68560765D01*
X195151227Y-68554804D01*
X195175495Y-68551204D01*
X195199999Y-68550000D01*
X195850001Y-68550000D01*
X195874505Y-68551204D01*
G37*
G36*
X193824505Y-68551204D02*
G01*
X193848773Y-68554804D01*
X193872572Y-68560765D01*
X193895671Y-68569030D01*
X193917850Y-68579520D01*
X193938893Y-68592132D01*
X193958599Y-68606747D01*
X193976777Y-68623223D01*
X193993253Y-68641401D01*
X194007868Y-68661107D01*
X194020480Y-68682150D01*
X194030970Y-68704329D01*
X194039235Y-68727428D01*
X194045196Y-68751227D01*
X194048796Y-68775495D01*
X194050000Y-68799999D01*
X194050000Y-69700001D01*
X194048796Y-69724505D01*
X194045196Y-69748773D01*
X194039235Y-69772572D01*
X194030970Y-69795671D01*
X194020480Y-69817850D01*
X194007868Y-69838893D01*
X193993253Y-69858599D01*
X193976777Y-69876777D01*
X193958599Y-69893253D01*
X193938893Y-69907868D01*
X193917850Y-69920480D01*
X193895671Y-69930970D01*
X193872572Y-69939235D01*
X193848773Y-69945196D01*
X193824505Y-69948796D01*
X193800001Y-69950000D01*
X193149999Y-69950000D01*
X193125495Y-69948796D01*
X193101227Y-69945196D01*
X193077428Y-69939235D01*
X193054329Y-69930970D01*
X193032150Y-69920480D01*
X193011107Y-69907868D01*
X192991401Y-69893253D01*
X192973223Y-69876777D01*
X192956747Y-69858599D01*
X192942132Y-69838893D01*
X192929520Y-69817850D01*
X192919030Y-69795671D01*
X192910765Y-69772572D01*
X192904804Y-69748773D01*
X192901204Y-69724505D01*
X192900000Y-69700001D01*
X192900000Y-68799999D01*
X192901204Y-68775495D01*
X192904804Y-68751227D01*
X192910765Y-68727428D01*
X192919030Y-68704329D01*
X192929520Y-68682150D01*
X192942132Y-68661107D01*
X192956747Y-68641401D01*
X192973223Y-68623223D01*
X192991401Y-68606747D01*
X193011107Y-68592132D01*
X193032150Y-68579520D01*
X193054329Y-68569030D01*
X193077428Y-68560765D01*
X193101227Y-68554804D01*
X193125495Y-68551204D01*
X193149999Y-68550000D01*
X193800001Y-68550000D01*
X193824505Y-68551204D01*
G37*
M02*
