G04 #@! TF.GenerationSoftware,KiCad,Pcbnew,5.1.5+dfsg1-2build2*
G04 #@! TF.CreationDate,2021-10-12T15:37:10+03:00*
G04 #@! TF.ProjectId,usb_kb,7573625f-6b62-42e6-9b69-6361645f7063,rev?*
G04 #@! TF.SameCoordinates,Original*
G04 #@! TF.FileFunction,Copper,L1,Top*
G04 #@! TF.FilePolarity,Positive*
%FSLAX46Y46*%
G04 Gerber Fmt 4.6, Leading zero omitted, Abs format (unit mm)*
G04 Created by KiCad (PCBNEW 5.1.5+dfsg1-2build2) date 2021-10-12 15:37:10*
%MOMM*%
%LPD*%
G04 APERTURE LIST*
%ADD10O,1.000000X2.100000*%
%ADD11O,1.000000X1.600000*%
%ADD12C,2.200000*%
%ADD13C,0.100000*%
%ADD14C,1.500000*%
%ADD15R,1.060000X0.650000*%
%ADD16O,1.700000X1.700000*%
%ADD17R,1.700000X1.700000*%
%ADD18C,0.800000*%
%ADD19C,0.250000*%
%ADD20C,0.254000*%
%ADD21C,0.200000*%
G04 APERTURE END LIST*
D10*
X193230000Y-84315000D03*
X201870000Y-84315000D03*
D11*
X201870000Y-88495000D03*
X193230000Y-88495000D03*
D12*
X190190000Y-75460000D03*
X196540000Y-72920000D03*
G04 #@! TA.AperFunction,SMDPad,CuDef*
D13*
G36*
X182010779Y-72851144D02*
G01*
X182033834Y-72854563D01*
X182056443Y-72860227D01*
X182078387Y-72868079D01*
X182099457Y-72878044D01*
X182119448Y-72890026D01*
X182138168Y-72903910D01*
X182155438Y-72919562D01*
X182171090Y-72936832D01*
X182184974Y-72955552D01*
X182196956Y-72975543D01*
X182206921Y-72996613D01*
X182214773Y-73018557D01*
X182220437Y-73041166D01*
X182223856Y-73064221D01*
X182225000Y-73087500D01*
X182225000Y-73662500D01*
X182223856Y-73685779D01*
X182220437Y-73708834D01*
X182214773Y-73731443D01*
X182206921Y-73753387D01*
X182196956Y-73774457D01*
X182184974Y-73794448D01*
X182171090Y-73813168D01*
X182155438Y-73830438D01*
X182138168Y-73846090D01*
X182119448Y-73859974D01*
X182099457Y-73871956D01*
X182078387Y-73881921D01*
X182056443Y-73889773D01*
X182033834Y-73895437D01*
X182010779Y-73898856D01*
X181987500Y-73900000D01*
X181512500Y-73900000D01*
X181489221Y-73898856D01*
X181466166Y-73895437D01*
X181443557Y-73889773D01*
X181421613Y-73881921D01*
X181400543Y-73871956D01*
X181380552Y-73859974D01*
X181361832Y-73846090D01*
X181344562Y-73830438D01*
X181328910Y-73813168D01*
X181315026Y-73794448D01*
X181303044Y-73774457D01*
X181293079Y-73753387D01*
X181285227Y-73731443D01*
X181279563Y-73708834D01*
X181276144Y-73685779D01*
X181275000Y-73662500D01*
X181275000Y-73087500D01*
X181276144Y-73064221D01*
X181279563Y-73041166D01*
X181285227Y-73018557D01*
X181293079Y-72996613D01*
X181303044Y-72975543D01*
X181315026Y-72955552D01*
X181328910Y-72936832D01*
X181344562Y-72919562D01*
X181361832Y-72903910D01*
X181380552Y-72890026D01*
X181400543Y-72878044D01*
X181421613Y-72868079D01*
X181443557Y-72860227D01*
X181466166Y-72854563D01*
X181489221Y-72851144D01*
X181512500Y-72850000D01*
X181987500Y-72850000D01*
X182010779Y-72851144D01*
G37*
G04 #@! TD.AperFunction*
G04 #@! TA.AperFunction,SMDPad,CuDef*
G36*
X182010779Y-71101144D02*
G01*
X182033834Y-71104563D01*
X182056443Y-71110227D01*
X182078387Y-71118079D01*
X182099457Y-71128044D01*
X182119448Y-71140026D01*
X182138168Y-71153910D01*
X182155438Y-71169562D01*
X182171090Y-71186832D01*
X182184974Y-71205552D01*
X182196956Y-71225543D01*
X182206921Y-71246613D01*
X182214773Y-71268557D01*
X182220437Y-71291166D01*
X182223856Y-71314221D01*
X182225000Y-71337500D01*
X182225000Y-71912500D01*
X182223856Y-71935779D01*
X182220437Y-71958834D01*
X182214773Y-71981443D01*
X182206921Y-72003387D01*
X182196956Y-72024457D01*
X182184974Y-72044448D01*
X182171090Y-72063168D01*
X182155438Y-72080438D01*
X182138168Y-72096090D01*
X182119448Y-72109974D01*
X182099457Y-72121956D01*
X182078387Y-72131921D01*
X182056443Y-72139773D01*
X182033834Y-72145437D01*
X182010779Y-72148856D01*
X181987500Y-72150000D01*
X181512500Y-72150000D01*
X181489221Y-72148856D01*
X181466166Y-72145437D01*
X181443557Y-72139773D01*
X181421613Y-72131921D01*
X181400543Y-72121956D01*
X181380552Y-72109974D01*
X181361832Y-72096090D01*
X181344562Y-72080438D01*
X181328910Y-72063168D01*
X181315026Y-72044448D01*
X181303044Y-72024457D01*
X181293079Y-72003387D01*
X181285227Y-71981443D01*
X181279563Y-71958834D01*
X181276144Y-71935779D01*
X181275000Y-71912500D01*
X181275000Y-71337500D01*
X181276144Y-71314221D01*
X181279563Y-71291166D01*
X181285227Y-71268557D01*
X181293079Y-71246613D01*
X181303044Y-71225543D01*
X181315026Y-71205552D01*
X181328910Y-71186832D01*
X181344562Y-71169562D01*
X181361832Y-71153910D01*
X181380552Y-71140026D01*
X181400543Y-71128044D01*
X181421613Y-71118079D01*
X181443557Y-71110227D01*
X181466166Y-71104563D01*
X181489221Y-71101144D01*
X181512500Y-71100000D01*
X181987500Y-71100000D01*
X182010779Y-71101144D01*
G37*
G04 #@! TD.AperFunction*
G04 #@! TA.AperFunction,SMDPad,CuDef*
G36*
X189935779Y-68776144D02*
G01*
X189958834Y-68779563D01*
X189981443Y-68785227D01*
X190003387Y-68793079D01*
X190024457Y-68803044D01*
X190044448Y-68815026D01*
X190063168Y-68828910D01*
X190080438Y-68844562D01*
X190096090Y-68861832D01*
X190109974Y-68880552D01*
X190121956Y-68900543D01*
X190131921Y-68921613D01*
X190139773Y-68943557D01*
X190145437Y-68966166D01*
X190148856Y-68989221D01*
X190150000Y-69012500D01*
X190150000Y-69487500D01*
X190148856Y-69510779D01*
X190145437Y-69533834D01*
X190139773Y-69556443D01*
X190131921Y-69578387D01*
X190121956Y-69599457D01*
X190109974Y-69619448D01*
X190096090Y-69638168D01*
X190080438Y-69655438D01*
X190063168Y-69671090D01*
X190044448Y-69684974D01*
X190024457Y-69696956D01*
X190003387Y-69706921D01*
X189981443Y-69714773D01*
X189958834Y-69720437D01*
X189935779Y-69723856D01*
X189912500Y-69725000D01*
X189337500Y-69725000D01*
X189314221Y-69723856D01*
X189291166Y-69720437D01*
X189268557Y-69714773D01*
X189246613Y-69706921D01*
X189225543Y-69696956D01*
X189205552Y-69684974D01*
X189186832Y-69671090D01*
X189169562Y-69655438D01*
X189153910Y-69638168D01*
X189140026Y-69619448D01*
X189128044Y-69599457D01*
X189118079Y-69578387D01*
X189110227Y-69556443D01*
X189104563Y-69533834D01*
X189101144Y-69510779D01*
X189100000Y-69487500D01*
X189100000Y-69012500D01*
X189101144Y-68989221D01*
X189104563Y-68966166D01*
X189110227Y-68943557D01*
X189118079Y-68921613D01*
X189128044Y-68900543D01*
X189140026Y-68880552D01*
X189153910Y-68861832D01*
X189169562Y-68844562D01*
X189186832Y-68828910D01*
X189205552Y-68815026D01*
X189225543Y-68803044D01*
X189246613Y-68793079D01*
X189268557Y-68785227D01*
X189291166Y-68779563D01*
X189314221Y-68776144D01*
X189337500Y-68775000D01*
X189912500Y-68775000D01*
X189935779Y-68776144D01*
G37*
G04 #@! TD.AperFunction*
G04 #@! TA.AperFunction,SMDPad,CuDef*
G36*
X191685779Y-68776144D02*
G01*
X191708834Y-68779563D01*
X191731443Y-68785227D01*
X191753387Y-68793079D01*
X191774457Y-68803044D01*
X191794448Y-68815026D01*
X191813168Y-68828910D01*
X191830438Y-68844562D01*
X191846090Y-68861832D01*
X191859974Y-68880552D01*
X191871956Y-68900543D01*
X191881921Y-68921613D01*
X191889773Y-68943557D01*
X191895437Y-68966166D01*
X191898856Y-68989221D01*
X191900000Y-69012500D01*
X191900000Y-69487500D01*
X191898856Y-69510779D01*
X191895437Y-69533834D01*
X191889773Y-69556443D01*
X191881921Y-69578387D01*
X191871956Y-69599457D01*
X191859974Y-69619448D01*
X191846090Y-69638168D01*
X191830438Y-69655438D01*
X191813168Y-69671090D01*
X191794448Y-69684974D01*
X191774457Y-69696956D01*
X191753387Y-69706921D01*
X191731443Y-69714773D01*
X191708834Y-69720437D01*
X191685779Y-69723856D01*
X191662500Y-69725000D01*
X191087500Y-69725000D01*
X191064221Y-69723856D01*
X191041166Y-69720437D01*
X191018557Y-69714773D01*
X190996613Y-69706921D01*
X190975543Y-69696956D01*
X190955552Y-69684974D01*
X190936832Y-69671090D01*
X190919562Y-69655438D01*
X190903910Y-69638168D01*
X190890026Y-69619448D01*
X190878044Y-69599457D01*
X190868079Y-69578387D01*
X190860227Y-69556443D01*
X190854563Y-69533834D01*
X190851144Y-69510779D01*
X190850000Y-69487500D01*
X190850000Y-69012500D01*
X190851144Y-68989221D01*
X190854563Y-68966166D01*
X190860227Y-68943557D01*
X190868079Y-68921613D01*
X190878044Y-68900543D01*
X190890026Y-68880552D01*
X190903910Y-68861832D01*
X190919562Y-68844562D01*
X190936832Y-68828910D01*
X190955552Y-68815026D01*
X190975543Y-68803044D01*
X190996613Y-68793079D01*
X191018557Y-68785227D01*
X191041166Y-68779563D01*
X191064221Y-68776144D01*
X191087500Y-68775000D01*
X191662500Y-68775000D01*
X191685779Y-68776144D01*
G37*
G04 #@! TD.AperFunction*
G04 #@! TA.AperFunction,SMDPad,CuDef*
G36*
X169223279Y-86526144D02*
G01*
X169246334Y-86529563D01*
X169268943Y-86535227D01*
X169290887Y-86543079D01*
X169311957Y-86553044D01*
X169331948Y-86565026D01*
X169350668Y-86578910D01*
X169367938Y-86594562D01*
X169383590Y-86611832D01*
X169397474Y-86630552D01*
X169409456Y-86650543D01*
X169419421Y-86671613D01*
X169427273Y-86693557D01*
X169432937Y-86716166D01*
X169436356Y-86739221D01*
X169437500Y-86762500D01*
X169437500Y-87237500D01*
X169436356Y-87260779D01*
X169432937Y-87283834D01*
X169427273Y-87306443D01*
X169419421Y-87328387D01*
X169409456Y-87349457D01*
X169397474Y-87369448D01*
X169383590Y-87388168D01*
X169367938Y-87405438D01*
X169350668Y-87421090D01*
X169331948Y-87434974D01*
X169311957Y-87446956D01*
X169290887Y-87456921D01*
X169268943Y-87464773D01*
X169246334Y-87470437D01*
X169223279Y-87473856D01*
X169200000Y-87475000D01*
X168625000Y-87475000D01*
X168601721Y-87473856D01*
X168578666Y-87470437D01*
X168556057Y-87464773D01*
X168534113Y-87456921D01*
X168513043Y-87446956D01*
X168493052Y-87434974D01*
X168474332Y-87421090D01*
X168457062Y-87405438D01*
X168441410Y-87388168D01*
X168427526Y-87369448D01*
X168415544Y-87349457D01*
X168405579Y-87328387D01*
X168397727Y-87306443D01*
X168392063Y-87283834D01*
X168388644Y-87260779D01*
X168387500Y-87237500D01*
X168387500Y-86762500D01*
X168388644Y-86739221D01*
X168392063Y-86716166D01*
X168397727Y-86693557D01*
X168405579Y-86671613D01*
X168415544Y-86650543D01*
X168427526Y-86630552D01*
X168441410Y-86611832D01*
X168457062Y-86594562D01*
X168474332Y-86578910D01*
X168493052Y-86565026D01*
X168513043Y-86553044D01*
X168534113Y-86543079D01*
X168556057Y-86535227D01*
X168578666Y-86529563D01*
X168601721Y-86526144D01*
X168625000Y-86525000D01*
X169200000Y-86525000D01*
X169223279Y-86526144D01*
G37*
G04 #@! TD.AperFunction*
G04 #@! TA.AperFunction,SMDPad,CuDef*
G36*
X167473279Y-86526144D02*
G01*
X167496334Y-86529563D01*
X167518943Y-86535227D01*
X167540887Y-86543079D01*
X167561957Y-86553044D01*
X167581948Y-86565026D01*
X167600668Y-86578910D01*
X167617938Y-86594562D01*
X167633590Y-86611832D01*
X167647474Y-86630552D01*
X167659456Y-86650543D01*
X167669421Y-86671613D01*
X167677273Y-86693557D01*
X167682937Y-86716166D01*
X167686356Y-86739221D01*
X167687500Y-86762500D01*
X167687500Y-87237500D01*
X167686356Y-87260779D01*
X167682937Y-87283834D01*
X167677273Y-87306443D01*
X167669421Y-87328387D01*
X167659456Y-87349457D01*
X167647474Y-87369448D01*
X167633590Y-87388168D01*
X167617938Y-87405438D01*
X167600668Y-87421090D01*
X167581948Y-87434974D01*
X167561957Y-87446956D01*
X167540887Y-87456921D01*
X167518943Y-87464773D01*
X167496334Y-87470437D01*
X167473279Y-87473856D01*
X167450000Y-87475000D01*
X166875000Y-87475000D01*
X166851721Y-87473856D01*
X166828666Y-87470437D01*
X166806057Y-87464773D01*
X166784113Y-87456921D01*
X166763043Y-87446956D01*
X166743052Y-87434974D01*
X166724332Y-87421090D01*
X166707062Y-87405438D01*
X166691410Y-87388168D01*
X166677526Y-87369448D01*
X166665544Y-87349457D01*
X166655579Y-87328387D01*
X166647727Y-87306443D01*
X166642063Y-87283834D01*
X166638644Y-87260779D01*
X166637500Y-87237500D01*
X166637500Y-86762500D01*
X166638644Y-86739221D01*
X166642063Y-86716166D01*
X166647727Y-86693557D01*
X166655579Y-86671613D01*
X166665544Y-86650543D01*
X166677526Y-86630552D01*
X166691410Y-86611832D01*
X166707062Y-86594562D01*
X166724332Y-86578910D01*
X166743052Y-86565026D01*
X166763043Y-86553044D01*
X166784113Y-86543079D01*
X166806057Y-86535227D01*
X166828666Y-86529563D01*
X166851721Y-86526144D01*
X166875000Y-86525000D01*
X167450000Y-86525000D01*
X167473279Y-86526144D01*
G37*
G04 #@! TD.AperFunction*
G04 #@! TA.AperFunction,SMDPad,CuDef*
G36*
X173473279Y-86526144D02*
G01*
X173496334Y-86529563D01*
X173518943Y-86535227D01*
X173540887Y-86543079D01*
X173561957Y-86553044D01*
X173581948Y-86565026D01*
X173600668Y-86578910D01*
X173617938Y-86594562D01*
X173633590Y-86611832D01*
X173647474Y-86630552D01*
X173659456Y-86650543D01*
X173669421Y-86671613D01*
X173677273Y-86693557D01*
X173682937Y-86716166D01*
X173686356Y-86739221D01*
X173687500Y-86762500D01*
X173687500Y-87237500D01*
X173686356Y-87260779D01*
X173682937Y-87283834D01*
X173677273Y-87306443D01*
X173669421Y-87328387D01*
X173659456Y-87349457D01*
X173647474Y-87369448D01*
X173633590Y-87388168D01*
X173617938Y-87405438D01*
X173600668Y-87421090D01*
X173581948Y-87434974D01*
X173561957Y-87446956D01*
X173540887Y-87456921D01*
X173518943Y-87464773D01*
X173496334Y-87470437D01*
X173473279Y-87473856D01*
X173450000Y-87475000D01*
X172875000Y-87475000D01*
X172851721Y-87473856D01*
X172828666Y-87470437D01*
X172806057Y-87464773D01*
X172784113Y-87456921D01*
X172763043Y-87446956D01*
X172743052Y-87434974D01*
X172724332Y-87421090D01*
X172707062Y-87405438D01*
X172691410Y-87388168D01*
X172677526Y-87369448D01*
X172665544Y-87349457D01*
X172655579Y-87328387D01*
X172647727Y-87306443D01*
X172642063Y-87283834D01*
X172638644Y-87260779D01*
X172637500Y-87237500D01*
X172637500Y-86762500D01*
X172638644Y-86739221D01*
X172642063Y-86716166D01*
X172647727Y-86693557D01*
X172655579Y-86671613D01*
X172665544Y-86650543D01*
X172677526Y-86630552D01*
X172691410Y-86611832D01*
X172707062Y-86594562D01*
X172724332Y-86578910D01*
X172743052Y-86565026D01*
X172763043Y-86553044D01*
X172784113Y-86543079D01*
X172806057Y-86535227D01*
X172828666Y-86529563D01*
X172851721Y-86526144D01*
X172875000Y-86525000D01*
X173450000Y-86525000D01*
X173473279Y-86526144D01*
G37*
G04 #@! TD.AperFunction*
G04 #@! TA.AperFunction,SMDPad,CuDef*
G36*
X175223279Y-86526144D02*
G01*
X175246334Y-86529563D01*
X175268943Y-86535227D01*
X175290887Y-86543079D01*
X175311957Y-86553044D01*
X175331948Y-86565026D01*
X175350668Y-86578910D01*
X175367938Y-86594562D01*
X175383590Y-86611832D01*
X175397474Y-86630552D01*
X175409456Y-86650543D01*
X175419421Y-86671613D01*
X175427273Y-86693557D01*
X175432937Y-86716166D01*
X175436356Y-86739221D01*
X175437500Y-86762500D01*
X175437500Y-87237500D01*
X175436356Y-87260779D01*
X175432937Y-87283834D01*
X175427273Y-87306443D01*
X175419421Y-87328387D01*
X175409456Y-87349457D01*
X175397474Y-87369448D01*
X175383590Y-87388168D01*
X175367938Y-87405438D01*
X175350668Y-87421090D01*
X175331948Y-87434974D01*
X175311957Y-87446956D01*
X175290887Y-87456921D01*
X175268943Y-87464773D01*
X175246334Y-87470437D01*
X175223279Y-87473856D01*
X175200000Y-87475000D01*
X174625000Y-87475000D01*
X174601721Y-87473856D01*
X174578666Y-87470437D01*
X174556057Y-87464773D01*
X174534113Y-87456921D01*
X174513043Y-87446956D01*
X174493052Y-87434974D01*
X174474332Y-87421090D01*
X174457062Y-87405438D01*
X174441410Y-87388168D01*
X174427526Y-87369448D01*
X174415544Y-87349457D01*
X174405579Y-87328387D01*
X174397727Y-87306443D01*
X174392063Y-87283834D01*
X174388644Y-87260779D01*
X174387500Y-87237500D01*
X174387500Y-86762500D01*
X174388644Y-86739221D01*
X174392063Y-86716166D01*
X174397727Y-86693557D01*
X174405579Y-86671613D01*
X174415544Y-86650543D01*
X174427526Y-86630552D01*
X174441410Y-86611832D01*
X174457062Y-86594562D01*
X174474332Y-86578910D01*
X174493052Y-86565026D01*
X174513043Y-86553044D01*
X174534113Y-86543079D01*
X174556057Y-86535227D01*
X174578666Y-86529563D01*
X174601721Y-86526144D01*
X174625000Y-86525000D01*
X175200000Y-86525000D01*
X175223279Y-86526144D01*
G37*
G04 #@! TD.AperFunction*
G04 #@! TA.AperFunction,SMDPad,CuDef*
G36*
X179510779Y-69101144D02*
G01*
X179533834Y-69104563D01*
X179556443Y-69110227D01*
X179578387Y-69118079D01*
X179599457Y-69128044D01*
X179619448Y-69140026D01*
X179638168Y-69153910D01*
X179655438Y-69169562D01*
X179671090Y-69186832D01*
X179684974Y-69205552D01*
X179696956Y-69225543D01*
X179706921Y-69246613D01*
X179714773Y-69268557D01*
X179720437Y-69291166D01*
X179723856Y-69314221D01*
X179725000Y-69337500D01*
X179725000Y-69912500D01*
X179723856Y-69935779D01*
X179720437Y-69958834D01*
X179714773Y-69981443D01*
X179706921Y-70003387D01*
X179696956Y-70024457D01*
X179684974Y-70044448D01*
X179671090Y-70063168D01*
X179655438Y-70080438D01*
X179638168Y-70096090D01*
X179619448Y-70109974D01*
X179599457Y-70121956D01*
X179578387Y-70131921D01*
X179556443Y-70139773D01*
X179533834Y-70145437D01*
X179510779Y-70148856D01*
X179487500Y-70150000D01*
X179012500Y-70150000D01*
X178989221Y-70148856D01*
X178966166Y-70145437D01*
X178943557Y-70139773D01*
X178921613Y-70131921D01*
X178900543Y-70121956D01*
X178880552Y-70109974D01*
X178861832Y-70096090D01*
X178844562Y-70080438D01*
X178828910Y-70063168D01*
X178815026Y-70044448D01*
X178803044Y-70024457D01*
X178793079Y-70003387D01*
X178785227Y-69981443D01*
X178779563Y-69958834D01*
X178776144Y-69935779D01*
X178775000Y-69912500D01*
X178775000Y-69337500D01*
X178776144Y-69314221D01*
X178779563Y-69291166D01*
X178785227Y-69268557D01*
X178793079Y-69246613D01*
X178803044Y-69225543D01*
X178815026Y-69205552D01*
X178828910Y-69186832D01*
X178844562Y-69169562D01*
X178861832Y-69153910D01*
X178880552Y-69140026D01*
X178900543Y-69128044D01*
X178921613Y-69118079D01*
X178943557Y-69110227D01*
X178966166Y-69104563D01*
X178989221Y-69101144D01*
X179012500Y-69100000D01*
X179487500Y-69100000D01*
X179510779Y-69101144D01*
G37*
G04 #@! TD.AperFunction*
G04 #@! TA.AperFunction,SMDPad,CuDef*
G36*
X179510779Y-67351144D02*
G01*
X179533834Y-67354563D01*
X179556443Y-67360227D01*
X179578387Y-67368079D01*
X179599457Y-67378044D01*
X179619448Y-67390026D01*
X179638168Y-67403910D01*
X179655438Y-67419562D01*
X179671090Y-67436832D01*
X179684974Y-67455552D01*
X179696956Y-67475543D01*
X179706921Y-67496613D01*
X179714773Y-67518557D01*
X179720437Y-67541166D01*
X179723856Y-67564221D01*
X179725000Y-67587500D01*
X179725000Y-68162500D01*
X179723856Y-68185779D01*
X179720437Y-68208834D01*
X179714773Y-68231443D01*
X179706921Y-68253387D01*
X179696956Y-68274457D01*
X179684974Y-68294448D01*
X179671090Y-68313168D01*
X179655438Y-68330438D01*
X179638168Y-68346090D01*
X179619448Y-68359974D01*
X179599457Y-68371956D01*
X179578387Y-68381921D01*
X179556443Y-68389773D01*
X179533834Y-68395437D01*
X179510779Y-68398856D01*
X179487500Y-68400000D01*
X179012500Y-68400000D01*
X178989221Y-68398856D01*
X178966166Y-68395437D01*
X178943557Y-68389773D01*
X178921613Y-68381921D01*
X178900543Y-68371956D01*
X178880552Y-68359974D01*
X178861832Y-68346090D01*
X178844562Y-68330438D01*
X178828910Y-68313168D01*
X178815026Y-68294448D01*
X178803044Y-68274457D01*
X178793079Y-68253387D01*
X178785227Y-68231443D01*
X178779563Y-68208834D01*
X178776144Y-68185779D01*
X178775000Y-68162500D01*
X178775000Y-67587500D01*
X178776144Y-67564221D01*
X178779563Y-67541166D01*
X178785227Y-67518557D01*
X178793079Y-67496613D01*
X178803044Y-67475543D01*
X178815026Y-67455552D01*
X178828910Y-67436832D01*
X178844562Y-67419562D01*
X178861832Y-67403910D01*
X178880552Y-67390026D01*
X178900543Y-67378044D01*
X178921613Y-67368079D01*
X178943557Y-67360227D01*
X178966166Y-67354563D01*
X178989221Y-67351144D01*
X179012500Y-67350000D01*
X179487500Y-67350000D01*
X179510779Y-67351144D01*
G37*
G04 #@! TD.AperFunction*
G04 #@! TA.AperFunction,SMDPad,CuDef*
G36*
X184510779Y-69063644D02*
G01*
X184533834Y-69067063D01*
X184556443Y-69072727D01*
X184578387Y-69080579D01*
X184599457Y-69090544D01*
X184619448Y-69102526D01*
X184638168Y-69116410D01*
X184655438Y-69132062D01*
X184671090Y-69149332D01*
X184684974Y-69168052D01*
X184696956Y-69188043D01*
X184706921Y-69209113D01*
X184714773Y-69231057D01*
X184720437Y-69253666D01*
X184723856Y-69276721D01*
X184725000Y-69300000D01*
X184725000Y-69875000D01*
X184723856Y-69898279D01*
X184720437Y-69921334D01*
X184714773Y-69943943D01*
X184706921Y-69965887D01*
X184696956Y-69986957D01*
X184684974Y-70006948D01*
X184671090Y-70025668D01*
X184655438Y-70042938D01*
X184638168Y-70058590D01*
X184619448Y-70072474D01*
X184599457Y-70084456D01*
X184578387Y-70094421D01*
X184556443Y-70102273D01*
X184533834Y-70107937D01*
X184510779Y-70111356D01*
X184487500Y-70112500D01*
X184012500Y-70112500D01*
X183989221Y-70111356D01*
X183966166Y-70107937D01*
X183943557Y-70102273D01*
X183921613Y-70094421D01*
X183900543Y-70084456D01*
X183880552Y-70072474D01*
X183861832Y-70058590D01*
X183844562Y-70042938D01*
X183828910Y-70025668D01*
X183815026Y-70006948D01*
X183803044Y-69986957D01*
X183793079Y-69965887D01*
X183785227Y-69943943D01*
X183779563Y-69921334D01*
X183776144Y-69898279D01*
X183775000Y-69875000D01*
X183775000Y-69300000D01*
X183776144Y-69276721D01*
X183779563Y-69253666D01*
X183785227Y-69231057D01*
X183793079Y-69209113D01*
X183803044Y-69188043D01*
X183815026Y-69168052D01*
X183828910Y-69149332D01*
X183844562Y-69132062D01*
X183861832Y-69116410D01*
X183880552Y-69102526D01*
X183900543Y-69090544D01*
X183921613Y-69080579D01*
X183943557Y-69072727D01*
X183966166Y-69067063D01*
X183989221Y-69063644D01*
X184012500Y-69062500D01*
X184487500Y-69062500D01*
X184510779Y-69063644D01*
G37*
G04 #@! TD.AperFunction*
G04 #@! TA.AperFunction,SMDPad,CuDef*
G36*
X184510779Y-67313644D02*
G01*
X184533834Y-67317063D01*
X184556443Y-67322727D01*
X184578387Y-67330579D01*
X184599457Y-67340544D01*
X184619448Y-67352526D01*
X184638168Y-67366410D01*
X184655438Y-67382062D01*
X184671090Y-67399332D01*
X184684974Y-67418052D01*
X184696956Y-67438043D01*
X184706921Y-67459113D01*
X184714773Y-67481057D01*
X184720437Y-67503666D01*
X184723856Y-67526721D01*
X184725000Y-67550000D01*
X184725000Y-68125000D01*
X184723856Y-68148279D01*
X184720437Y-68171334D01*
X184714773Y-68193943D01*
X184706921Y-68215887D01*
X184696956Y-68236957D01*
X184684974Y-68256948D01*
X184671090Y-68275668D01*
X184655438Y-68292938D01*
X184638168Y-68308590D01*
X184619448Y-68322474D01*
X184599457Y-68334456D01*
X184578387Y-68344421D01*
X184556443Y-68352273D01*
X184533834Y-68357937D01*
X184510779Y-68361356D01*
X184487500Y-68362500D01*
X184012500Y-68362500D01*
X183989221Y-68361356D01*
X183966166Y-68357937D01*
X183943557Y-68352273D01*
X183921613Y-68344421D01*
X183900543Y-68334456D01*
X183880552Y-68322474D01*
X183861832Y-68308590D01*
X183844562Y-68292938D01*
X183828910Y-68275668D01*
X183815026Y-68256948D01*
X183803044Y-68236957D01*
X183793079Y-68215887D01*
X183785227Y-68193943D01*
X183779563Y-68171334D01*
X183776144Y-68148279D01*
X183775000Y-68125000D01*
X183775000Y-67550000D01*
X183776144Y-67526721D01*
X183779563Y-67503666D01*
X183785227Y-67481057D01*
X183793079Y-67459113D01*
X183803044Y-67438043D01*
X183815026Y-67418052D01*
X183828910Y-67399332D01*
X183844562Y-67382062D01*
X183861832Y-67366410D01*
X183880552Y-67352526D01*
X183900543Y-67340544D01*
X183921613Y-67330579D01*
X183943557Y-67322727D01*
X183966166Y-67317063D01*
X183989221Y-67313644D01*
X184012500Y-67312500D01*
X184487500Y-67312500D01*
X184510779Y-67313644D01*
G37*
G04 #@! TD.AperFunction*
D14*
X168620000Y-83500000D03*
X173500000Y-83500000D03*
D15*
X198900000Y-69000000D03*
X198900000Y-69950000D03*
X198900000Y-68050000D03*
X201100000Y-68050000D03*
X201100000Y-69000000D03*
X201100000Y-69950000D03*
D12*
X168190000Y-75460000D03*
X174540000Y-72920000D03*
G04 #@! TA.AperFunction,SMDPad,CuDef*
D13*
G36*
X181250000Y-84250000D02*
G01*
X182000000Y-84750000D01*
X182000000Y-85750000D01*
X180500000Y-85750000D01*
X180500000Y-84750000D01*
X181250000Y-84250000D01*
G37*
G04 #@! TD.AperFunction*
G04 #@! TA.AperFunction,SMDPad,CuDef*
G36*
X182000000Y-83300000D02*
G01*
X182000000Y-84450000D01*
X181250000Y-83950000D01*
X180500000Y-84450000D01*
X180500000Y-83300000D01*
X182000000Y-83300000D01*
G37*
G04 #@! TD.AperFunction*
G04 #@! TA.AperFunction,SMDPad,CuDef*
G36*
X197775000Y-88000000D02*
G01*
X197275000Y-88750000D01*
X196275000Y-88750000D01*
X196275000Y-87250000D01*
X197275000Y-87250000D01*
X197775000Y-88000000D01*
G37*
G04 #@! TD.AperFunction*
G04 #@! TA.AperFunction,SMDPad,CuDef*
G36*
X198725000Y-88750000D02*
G01*
X197575000Y-88750000D01*
X198075000Y-88000000D01*
X197575000Y-87250000D01*
X198725000Y-87250000D01*
X198725000Y-88750000D01*
G37*
G04 #@! TD.AperFunction*
D16*
X162000000Y-80080000D03*
X162000000Y-77540000D03*
X162000000Y-75000000D03*
D17*
X162000000Y-72460000D03*
G04 #@! TA.AperFunction,SMDPad,CuDef*
D13*
G36*
X195874505Y-68551204D02*
G01*
X195898773Y-68554804D01*
X195922572Y-68560765D01*
X195945671Y-68569030D01*
X195967850Y-68579520D01*
X195988893Y-68592132D01*
X196008599Y-68606747D01*
X196026777Y-68623223D01*
X196043253Y-68641401D01*
X196057868Y-68661107D01*
X196070480Y-68682150D01*
X196080970Y-68704329D01*
X196089235Y-68727428D01*
X196095196Y-68751227D01*
X196098796Y-68775495D01*
X196100000Y-68799999D01*
X196100000Y-69700001D01*
X196098796Y-69724505D01*
X196095196Y-69748773D01*
X196089235Y-69772572D01*
X196080970Y-69795671D01*
X196070480Y-69817850D01*
X196057868Y-69838893D01*
X196043253Y-69858599D01*
X196026777Y-69876777D01*
X196008599Y-69893253D01*
X195988893Y-69907868D01*
X195967850Y-69920480D01*
X195945671Y-69930970D01*
X195922572Y-69939235D01*
X195898773Y-69945196D01*
X195874505Y-69948796D01*
X195850001Y-69950000D01*
X195199999Y-69950000D01*
X195175495Y-69948796D01*
X195151227Y-69945196D01*
X195127428Y-69939235D01*
X195104329Y-69930970D01*
X195082150Y-69920480D01*
X195061107Y-69907868D01*
X195041401Y-69893253D01*
X195023223Y-69876777D01*
X195006747Y-69858599D01*
X194992132Y-69838893D01*
X194979520Y-69817850D01*
X194969030Y-69795671D01*
X194960765Y-69772572D01*
X194954804Y-69748773D01*
X194951204Y-69724505D01*
X194950000Y-69700001D01*
X194950000Y-68799999D01*
X194951204Y-68775495D01*
X194954804Y-68751227D01*
X194960765Y-68727428D01*
X194969030Y-68704329D01*
X194979520Y-68682150D01*
X194992132Y-68661107D01*
X195006747Y-68641401D01*
X195023223Y-68623223D01*
X195041401Y-68606747D01*
X195061107Y-68592132D01*
X195082150Y-68579520D01*
X195104329Y-68569030D01*
X195127428Y-68560765D01*
X195151227Y-68554804D01*
X195175495Y-68551204D01*
X195199999Y-68550000D01*
X195850001Y-68550000D01*
X195874505Y-68551204D01*
G37*
G04 #@! TD.AperFunction*
G04 #@! TA.AperFunction,SMDPad,CuDef*
G36*
X193824505Y-68551204D02*
G01*
X193848773Y-68554804D01*
X193872572Y-68560765D01*
X193895671Y-68569030D01*
X193917850Y-68579520D01*
X193938893Y-68592132D01*
X193958599Y-68606747D01*
X193976777Y-68623223D01*
X193993253Y-68641401D01*
X194007868Y-68661107D01*
X194020480Y-68682150D01*
X194030970Y-68704329D01*
X194039235Y-68727428D01*
X194045196Y-68751227D01*
X194048796Y-68775495D01*
X194050000Y-68799999D01*
X194050000Y-69700001D01*
X194048796Y-69724505D01*
X194045196Y-69748773D01*
X194039235Y-69772572D01*
X194030970Y-69795671D01*
X194020480Y-69817850D01*
X194007868Y-69838893D01*
X193993253Y-69858599D01*
X193976777Y-69876777D01*
X193958599Y-69893253D01*
X193938893Y-69907868D01*
X193917850Y-69920480D01*
X193895671Y-69930970D01*
X193872572Y-69939235D01*
X193848773Y-69945196D01*
X193824505Y-69948796D01*
X193800001Y-69950000D01*
X193149999Y-69950000D01*
X193125495Y-69948796D01*
X193101227Y-69945196D01*
X193077428Y-69939235D01*
X193054329Y-69930970D01*
X193032150Y-69920480D01*
X193011107Y-69907868D01*
X192991401Y-69893253D01*
X192973223Y-69876777D01*
X192956747Y-69858599D01*
X192942132Y-69838893D01*
X192929520Y-69817850D01*
X192919030Y-69795671D01*
X192910765Y-69772572D01*
X192904804Y-69748773D01*
X192901204Y-69724505D01*
X192900000Y-69700001D01*
X192900000Y-68799999D01*
X192901204Y-68775495D01*
X192904804Y-68751227D01*
X192910765Y-68727428D01*
X192919030Y-68704329D01*
X192929520Y-68682150D01*
X192942132Y-68661107D01*
X192956747Y-68641401D01*
X192973223Y-68623223D01*
X192991401Y-68606747D01*
X193011107Y-68592132D01*
X193032150Y-68579520D01*
X193054329Y-68569030D01*
X193077428Y-68560765D01*
X193101227Y-68554804D01*
X193125495Y-68551204D01*
X193149999Y-68550000D01*
X193800001Y-68550000D01*
X193824505Y-68551204D01*
G37*
G04 #@! TD.AperFunction*
D18*
X199500000Y-80700000D03*
X203100000Y-66900000D03*
X182500000Y-82000000D03*
X185000000Y-86500000D03*
X186837500Y-79837500D03*
X177000000Y-87000000D03*
X170500000Y-68250000D03*
X194500000Y-81500000D03*
X181000000Y-81500000D03*
X170500000Y-71000000D03*
X178250000Y-71750000D03*
X186750000Y-74000000D03*
X165675001Y-73824999D03*
X190500000Y-72250000D03*
X186750000Y-78000000D03*
X204500000Y-83000000D03*
X201200000Y-81700000D03*
X197700000Y-80400000D03*
X172550000Y-69225000D03*
X177000000Y-88500000D03*
X187500000Y-88000000D03*
X164425000Y-87925000D03*
X189500000Y-85000000D03*
X177000000Y-85750000D03*
X175000000Y-80000000D03*
X177000000Y-80000000D03*
X180000000Y-77500000D03*
X185250000Y-74250000D03*
X185000000Y-77750000D03*
X202400000Y-70700000D03*
X200800000Y-77300000D03*
X204200000Y-74700000D03*
D19*
X204800000Y-66900000D02*
X203100000Y-66900000D01*
X205100000Y-67200000D02*
X204800000Y-66900000D01*
X205100000Y-78800000D02*
X205100000Y-67200000D01*
X203200000Y-80700000D02*
X205100000Y-78800000D01*
X199500000Y-80700000D02*
X203200000Y-80700000D01*
X182500000Y-82000000D02*
X184500000Y-84000000D01*
X184500000Y-86000000D02*
X185000000Y-86500000D01*
X184500000Y-84000000D02*
X184500000Y-86000000D01*
X184500000Y-82740685D02*
X184500000Y-84000000D01*
X186837500Y-80403185D02*
X184500000Y-82740685D01*
X186837500Y-79837500D02*
X186837500Y-80403185D01*
X179630000Y-72920000D02*
X176095634Y-72920000D01*
X181050000Y-71500000D02*
X179630000Y-72920000D01*
X176095634Y-72920000D02*
X174540000Y-72920000D01*
X181750000Y-71500000D02*
X181050000Y-71500000D01*
X184500000Y-87000000D02*
X185000000Y-86500000D01*
X177000000Y-87000000D02*
X184500000Y-87000000D01*
X181250000Y-83250000D02*
X182500000Y-82000000D01*
X181250000Y-83800000D02*
X181250000Y-83250000D01*
X195525000Y-71905000D02*
X196540000Y-72920000D01*
X195525000Y-69250000D02*
X195525000Y-71905000D01*
X195525000Y-68550000D02*
X195525000Y-69250000D01*
X184250000Y-67675000D02*
X194650000Y-67675000D01*
X179287500Y-67675000D02*
X179250000Y-67712500D01*
X184250000Y-67675000D02*
X179287500Y-67675000D01*
X179250000Y-67712500D02*
X171287500Y-67712500D01*
X170750000Y-68250000D02*
X170500000Y-68250000D01*
X171287500Y-67712500D02*
X170750000Y-68250000D01*
X198120000Y-69000000D02*
X197120000Y-68000000D01*
X198900000Y-69000000D02*
X198120000Y-69000000D01*
X195100000Y-68000000D02*
X194800000Y-67700000D01*
X197120000Y-68000000D02*
X195100000Y-68000000D01*
X194800000Y-67700000D02*
X195525000Y-68550000D01*
X194650000Y-67675000D02*
X194800000Y-67700000D01*
X193475000Y-69250000D02*
X191500000Y-69250000D01*
X194550000Y-81500000D02*
X194500000Y-81500000D01*
X194775000Y-81725000D02*
X194550000Y-81500000D01*
X196775000Y-83775000D02*
X194500000Y-81500000D01*
X196775000Y-88000000D02*
X196775000Y-83775000D01*
X172412500Y-87000000D02*
X169075000Y-87000000D01*
X173000000Y-87000000D02*
X172412500Y-87000000D01*
X160824999Y-78904999D02*
X161150001Y-79230001D01*
X161150001Y-79230001D02*
X162000000Y-80080000D01*
X160824999Y-74435999D02*
X160824999Y-78904999D01*
X161435999Y-73824999D02*
X160824999Y-74435999D01*
X167675001Y-73824999D02*
X165675001Y-73824999D01*
X170500000Y-71000000D02*
X167675001Y-73824999D01*
X170500000Y-71000000D02*
X177500000Y-71000000D01*
X177500000Y-71000000D02*
X178250000Y-71750000D01*
X194500000Y-80934315D02*
X194500000Y-81500000D01*
X194500000Y-80840998D02*
X194500000Y-80934315D01*
X178500000Y-81500000D02*
X181000000Y-81500000D01*
X175987510Y-84012490D02*
X178500000Y-81500000D01*
X175987510Y-87713180D02*
X175987510Y-84012490D01*
X175650680Y-88050010D02*
X175987510Y-87713180D01*
X173325010Y-88050010D02*
X175650680Y-88050010D01*
X173000000Y-87725000D02*
X173325010Y-88050010D01*
X173000000Y-87000000D02*
X173000000Y-87725000D01*
X193750000Y-74000000D02*
X197500000Y-77750000D01*
X186750000Y-74000000D02*
X193750000Y-74000000D01*
X197500000Y-77750000D02*
X194500000Y-80840998D01*
X189500000Y-71250000D02*
X186750000Y-74000000D01*
X189500000Y-69250000D02*
X189500000Y-71250000D01*
X184250000Y-71500000D02*
X186750000Y-74000000D01*
X184250000Y-69750000D02*
X184250000Y-71500000D01*
X179250000Y-70750000D02*
X178250000Y-71750000D01*
X179250000Y-69787500D02*
X179250000Y-70750000D01*
X165675001Y-73824999D02*
X161435999Y-73824999D01*
X204500000Y-83000000D02*
X203200000Y-81700000D01*
X203200000Y-81700000D02*
X201200000Y-81700000D01*
X199025000Y-81700000D02*
X201200000Y-81700000D01*
X199000000Y-81725000D02*
X199025000Y-81700000D01*
X203125001Y-70351999D02*
X203125001Y-78674999D01*
X201773002Y-69000000D02*
X203125001Y-70351999D01*
X201100000Y-69000000D02*
X201773002Y-69000000D01*
X198000000Y-81126998D02*
X198000000Y-81700000D01*
X200451999Y-78674999D02*
X198000000Y-81126998D01*
X203125001Y-78674999D02*
X200451999Y-78674999D01*
X198000000Y-81700000D02*
X194775000Y-81725000D01*
X199000000Y-81725000D02*
X198000000Y-81700000D01*
X177000000Y-88500000D02*
X187000000Y-88500000D01*
X187000000Y-88500000D02*
X187500000Y-88000000D01*
X163175001Y-78715001D02*
X162000000Y-77540000D01*
X163175001Y-86675001D02*
X163175001Y-78715001D01*
X164425000Y-87925000D02*
X163175001Y-86675001D01*
X164500000Y-86163190D02*
X164500000Y-77500000D01*
X164500000Y-77500000D02*
X162000000Y-75000000D01*
X167561811Y-89225001D02*
X164500000Y-86163190D01*
X188774999Y-89225001D02*
X167561811Y-89225001D01*
X189500000Y-85000000D02*
X189500000Y-88500000D01*
X189500000Y-88500000D02*
X188774999Y-89225001D01*
X201270000Y-88000000D02*
X201820000Y-88550000D01*
X198225000Y-88000000D02*
X201270000Y-88000000D01*
X193930000Y-88550000D02*
X194750000Y-89370000D01*
X193180000Y-88550000D02*
X193930000Y-88550000D01*
X201070000Y-88550000D02*
X201820000Y-88550000D01*
X200250000Y-89370000D02*
X201070000Y-88550000D01*
X194750000Y-89370000D02*
X200250000Y-89370000D01*
X193180000Y-84370000D02*
X193180000Y-88550000D01*
X201820000Y-84370000D02*
X201820000Y-88550000D01*
X181250000Y-85250000D02*
X181250000Y-86150000D01*
X181250000Y-86150000D02*
X181100000Y-86300000D01*
X177550000Y-86300000D02*
X177000000Y-85750000D01*
X181100000Y-86300000D02*
X177550000Y-86300000D01*
X175000000Y-80000000D02*
X177000000Y-80000000D01*
X180000000Y-77500000D02*
X182040000Y-75460000D01*
X185649999Y-74649999D02*
X185649999Y-75350001D01*
X185500000Y-75500000D02*
X190190000Y-75460000D01*
X185649999Y-75350001D02*
X185500000Y-75500000D01*
X185250000Y-74250000D02*
X185649999Y-74649999D01*
X182040000Y-75460000D02*
X185500000Y-75500000D01*
X167000000Y-85120000D02*
X168620000Y-83500000D01*
X167000000Y-87000000D02*
X167000000Y-85120000D01*
X175075000Y-85075000D02*
X173500000Y-83500000D01*
X175075000Y-87000000D02*
X175075000Y-85075000D01*
X179274999Y-76575001D02*
X179274999Y-78274999D01*
X181750000Y-74100000D02*
X179274999Y-76575001D01*
X181750000Y-73500000D02*
X181750000Y-74100000D01*
X179274999Y-78274999D02*
X184475001Y-78274999D01*
X184475001Y-78274999D02*
X185000000Y-77750000D01*
X198900000Y-69950000D02*
X201100000Y-69950000D01*
X201880000Y-69950000D02*
X202400000Y-70470000D01*
X201100000Y-69950000D02*
X201880000Y-69950000D01*
X202400000Y-70470000D02*
X202400000Y-70700000D01*
X202400000Y-76419002D02*
X201719002Y-77100000D01*
X202400000Y-70700000D02*
X202400000Y-76419002D01*
X201000000Y-77100000D02*
X200800000Y-77300000D01*
X201719002Y-77100000D02*
X201000000Y-77100000D01*
X198900000Y-68050000D02*
X201100000Y-68050000D01*
X201880000Y-68050000D02*
X203300000Y-69470000D01*
X201100000Y-68050000D02*
X201880000Y-68050000D01*
X203300000Y-69470000D02*
X203670000Y-69470000D01*
X203670000Y-69470000D02*
X204400000Y-70200000D01*
X204400000Y-74500000D02*
X204200000Y-74700000D01*
X204400000Y-70200000D02*
X204400000Y-74500000D01*
D20*
G36*
X194009744Y-82417205D02*
G01*
X194198102Y-82495226D01*
X194398061Y-82535000D01*
X194460199Y-82535000D01*
X196015001Y-84089803D01*
X196015000Y-86668954D01*
X195920506Y-86719463D01*
X195823815Y-86798815D01*
X195744463Y-86895506D01*
X195685498Y-87005820D01*
X195649188Y-87125518D01*
X195636928Y-87250000D01*
X195636928Y-88750000D01*
X195649188Y-88874482D01*
X195685498Y-88994180D01*
X195744463Y-89104494D01*
X195823815Y-89201185D01*
X195920506Y-89280537D01*
X196030820Y-89339502D01*
X196032462Y-89340000D01*
X190627000Y-89340000D01*
X190627000Y-84750448D01*
X193700000Y-84750448D01*
X193700000Y-84939552D01*
X193736892Y-85125022D01*
X193809259Y-85299731D01*
X193914319Y-85456964D01*
X194048036Y-85590681D01*
X194205269Y-85695741D01*
X194379978Y-85768108D01*
X194565448Y-85805000D01*
X194754552Y-85805000D01*
X194940022Y-85768108D01*
X195114731Y-85695741D01*
X195271964Y-85590681D01*
X195405681Y-85456964D01*
X195510741Y-85299731D01*
X195583108Y-85125022D01*
X195620000Y-84939552D01*
X195620000Y-84750448D01*
X195583108Y-84564978D01*
X195510741Y-84390269D01*
X195405681Y-84233036D01*
X195271964Y-84099319D01*
X195114731Y-83994259D01*
X194940022Y-83921892D01*
X194754552Y-83885000D01*
X194565448Y-83885000D01*
X194379978Y-83921892D01*
X194205269Y-83994259D01*
X194048036Y-84099319D01*
X193914319Y-84233036D01*
X193809259Y-84390269D01*
X193736892Y-84564978D01*
X193700000Y-84750448D01*
X190627000Y-84750448D01*
X190627000Y-83552606D01*
X191802606Y-82377000D01*
X193949573Y-82377000D01*
X194009744Y-82417205D01*
G37*
X194009744Y-82417205D02*
X194198102Y-82495226D01*
X194398061Y-82535000D01*
X194460199Y-82535000D01*
X196015001Y-84089803D01*
X196015000Y-86668954D01*
X195920506Y-86719463D01*
X195823815Y-86798815D01*
X195744463Y-86895506D01*
X195685498Y-87005820D01*
X195649188Y-87125518D01*
X195636928Y-87250000D01*
X195636928Y-88750000D01*
X195649188Y-88874482D01*
X195685498Y-88994180D01*
X195744463Y-89104494D01*
X195823815Y-89201185D01*
X195920506Y-89280537D01*
X196030820Y-89339502D01*
X196032462Y-89340000D01*
X190627000Y-89340000D01*
X190627000Y-84750448D01*
X193700000Y-84750448D01*
X193700000Y-84939552D01*
X193736892Y-85125022D01*
X193809259Y-85299731D01*
X193914319Y-85456964D01*
X194048036Y-85590681D01*
X194205269Y-85695741D01*
X194379978Y-85768108D01*
X194565448Y-85805000D01*
X194754552Y-85805000D01*
X194940022Y-85768108D01*
X195114731Y-85695741D01*
X195271964Y-85590681D01*
X195405681Y-85456964D01*
X195510741Y-85299731D01*
X195583108Y-85125022D01*
X195620000Y-84939552D01*
X195620000Y-84750448D01*
X195583108Y-84564978D01*
X195510741Y-84390269D01*
X195405681Y-84233036D01*
X195271964Y-84099319D01*
X195114731Y-83994259D01*
X194940022Y-83921892D01*
X194754552Y-83885000D01*
X194565448Y-83885000D01*
X194379978Y-83921892D01*
X194205269Y-83994259D01*
X194048036Y-84099319D01*
X193914319Y-84233036D01*
X193809259Y-84390269D01*
X193736892Y-84564978D01*
X193700000Y-84750448D01*
X190627000Y-84750448D01*
X190627000Y-83552606D01*
X191802606Y-82377000D01*
X193949573Y-82377000D01*
X194009744Y-82417205D01*
G36*
X200540226Y-82503937D02*
G01*
X200709744Y-82617205D01*
X200898102Y-82695226D01*
X201098061Y-82735000D01*
X201301939Y-82735000D01*
X201501898Y-82695226D01*
X201690256Y-82617205D01*
X201859774Y-82503937D01*
X201903711Y-82460000D01*
X202885199Y-82460000D01*
X203465000Y-83039802D01*
X203465000Y-83101939D01*
X203504774Y-83301898D01*
X203582795Y-83490256D01*
X203696063Y-83659774D01*
X203840226Y-83803937D01*
X204009744Y-83917205D01*
X204198102Y-83995226D01*
X204398061Y-84035000D01*
X204601939Y-84035000D01*
X204801898Y-83995226D01*
X204990256Y-83917205D01*
X205159774Y-83803937D01*
X205303937Y-83659774D01*
X205340000Y-83605801D01*
X205340000Y-89340000D01*
X197517320Y-89340000D01*
X197519796Y-89339246D01*
X197630049Y-89280166D01*
X197726657Y-89200713D01*
X197805908Y-89103939D01*
X198305908Y-88353939D01*
X198364246Y-88244796D01*
X198400681Y-88125136D01*
X198413072Y-88000667D01*
X198400941Y-87876173D01*
X198364757Y-87756437D01*
X198305908Y-87646061D01*
X197805908Y-86896061D01*
X197726185Y-86798815D01*
X197629494Y-86719463D01*
X197535000Y-86668954D01*
X197535000Y-84750448D01*
X199480000Y-84750448D01*
X199480000Y-84939552D01*
X199516892Y-85125022D01*
X199589259Y-85299731D01*
X199694319Y-85456964D01*
X199828036Y-85590681D01*
X199985269Y-85695741D01*
X200159978Y-85768108D01*
X200345448Y-85805000D01*
X200534552Y-85805000D01*
X200720022Y-85768108D01*
X200894731Y-85695741D01*
X201051964Y-85590681D01*
X201185681Y-85456964D01*
X201290741Y-85299731D01*
X201363108Y-85125022D01*
X201400000Y-84939552D01*
X201400000Y-84750448D01*
X201363108Y-84564978D01*
X201290741Y-84390269D01*
X201185681Y-84233036D01*
X201051964Y-84099319D01*
X200894731Y-83994259D01*
X200720022Y-83921892D01*
X200534552Y-83885000D01*
X200345448Y-83885000D01*
X200159978Y-83921892D01*
X199985269Y-83994259D01*
X199828036Y-84099319D01*
X199694319Y-84233036D01*
X199589259Y-84390269D01*
X199516892Y-84564978D01*
X199480000Y-84750448D01*
X197535000Y-84750448D01*
X197535000Y-83812323D01*
X197538676Y-83775000D01*
X197535000Y-83737677D01*
X197535000Y-83737667D01*
X197524003Y-83626014D01*
X197480546Y-83482753D01*
X197409974Y-83350724D01*
X197315001Y-83234999D01*
X197286003Y-83211201D01*
X196546094Y-82471293D01*
X197965599Y-82460289D01*
X198000000Y-82463677D01*
X198027857Y-82460933D01*
X198953204Y-82484067D01*
X199000000Y-82488676D01*
X199065027Y-82482271D01*
X199130219Y-82477492D01*
X199139455Y-82474941D01*
X199148985Y-82474002D01*
X199195145Y-82460000D01*
X200496289Y-82460000D01*
X200540226Y-82503937D01*
G37*
X200540226Y-82503937D02*
X200709744Y-82617205D01*
X200898102Y-82695226D01*
X201098061Y-82735000D01*
X201301939Y-82735000D01*
X201501898Y-82695226D01*
X201690256Y-82617205D01*
X201859774Y-82503937D01*
X201903711Y-82460000D01*
X202885199Y-82460000D01*
X203465000Y-83039802D01*
X203465000Y-83101939D01*
X203504774Y-83301898D01*
X203582795Y-83490256D01*
X203696063Y-83659774D01*
X203840226Y-83803937D01*
X204009744Y-83917205D01*
X204198102Y-83995226D01*
X204398061Y-84035000D01*
X204601939Y-84035000D01*
X204801898Y-83995226D01*
X204990256Y-83917205D01*
X205159774Y-83803937D01*
X205303937Y-83659774D01*
X205340000Y-83605801D01*
X205340000Y-89340000D01*
X197517320Y-89340000D01*
X197519796Y-89339246D01*
X197630049Y-89280166D01*
X197726657Y-89200713D01*
X197805908Y-89103939D01*
X198305908Y-88353939D01*
X198364246Y-88244796D01*
X198400681Y-88125136D01*
X198413072Y-88000667D01*
X198400941Y-87876173D01*
X198364757Y-87756437D01*
X198305908Y-87646061D01*
X197805908Y-86896061D01*
X197726185Y-86798815D01*
X197629494Y-86719463D01*
X197535000Y-86668954D01*
X197535000Y-84750448D01*
X199480000Y-84750448D01*
X199480000Y-84939552D01*
X199516892Y-85125022D01*
X199589259Y-85299731D01*
X199694319Y-85456964D01*
X199828036Y-85590681D01*
X199985269Y-85695741D01*
X200159978Y-85768108D01*
X200345448Y-85805000D01*
X200534552Y-85805000D01*
X200720022Y-85768108D01*
X200894731Y-85695741D01*
X201051964Y-85590681D01*
X201185681Y-85456964D01*
X201290741Y-85299731D01*
X201363108Y-85125022D01*
X201400000Y-84939552D01*
X201400000Y-84750448D01*
X201363108Y-84564978D01*
X201290741Y-84390269D01*
X201185681Y-84233036D01*
X201051964Y-84099319D01*
X200894731Y-83994259D01*
X200720022Y-83921892D01*
X200534552Y-83885000D01*
X200345448Y-83885000D01*
X200159978Y-83921892D01*
X199985269Y-83994259D01*
X199828036Y-84099319D01*
X199694319Y-84233036D01*
X199589259Y-84390269D01*
X199516892Y-84564978D01*
X199480000Y-84750448D01*
X197535000Y-84750448D01*
X197535000Y-83812323D01*
X197538676Y-83775000D01*
X197535000Y-83737677D01*
X197535000Y-83737667D01*
X197524003Y-83626014D01*
X197480546Y-83482753D01*
X197409974Y-83350724D01*
X197315001Y-83234999D01*
X197286003Y-83211201D01*
X196546094Y-82471293D01*
X197965599Y-82460289D01*
X198000000Y-82463677D01*
X198027857Y-82460933D01*
X198953204Y-82484067D01*
X199000000Y-82488676D01*
X199065027Y-82482271D01*
X199130219Y-82477492D01*
X199139455Y-82474941D01*
X199148985Y-82474002D01*
X199195145Y-82460000D01*
X200496289Y-82460000D01*
X200540226Y-82503937D01*
D21*
G36*
X202653776Y-66356274D02*
G01*
X202556274Y-66453776D01*
X202479668Y-66568426D01*
X202426901Y-66695818D01*
X202400000Y-66831056D01*
X202400000Y-66968944D01*
X202426901Y-67104182D01*
X202479668Y-67231574D01*
X202556274Y-67346224D01*
X202653776Y-67443726D01*
X202768426Y-67520332D01*
X202895818Y-67573099D01*
X203031056Y-67600000D01*
X203168944Y-67600000D01*
X203304182Y-67573099D01*
X203431574Y-67520332D01*
X203546224Y-67443726D01*
X203643726Y-67346224D01*
X203657907Y-67325000D01*
X204623960Y-67325000D01*
X204675001Y-67376042D01*
X204675001Y-69873960D01*
X203985283Y-69184243D01*
X203971974Y-69168026D01*
X203907260Y-69114916D01*
X203833427Y-69075452D01*
X203753314Y-69051150D01*
X203690874Y-69045000D01*
X203690867Y-69045000D01*
X203670000Y-69042945D01*
X203649133Y-69045000D01*
X203476041Y-69045000D01*
X202195283Y-67764243D01*
X202181974Y-67748026D01*
X202117260Y-67694916D01*
X202043427Y-67655452D01*
X201963314Y-67631150D01*
X201913542Y-67626248D01*
X201908504Y-67609640D01*
X201880647Y-67557523D01*
X201843158Y-67511842D01*
X201797477Y-67474353D01*
X201745360Y-67446496D01*
X201688810Y-67429341D01*
X201630000Y-67423549D01*
X200570000Y-67423549D01*
X200511190Y-67429341D01*
X200454640Y-67446496D01*
X200402523Y-67474353D01*
X200356842Y-67511842D01*
X200319353Y-67557523D01*
X200291496Y-67609640D01*
X200286836Y-67625000D01*
X199713164Y-67625000D01*
X199708504Y-67609640D01*
X199680647Y-67557523D01*
X199643158Y-67511842D01*
X199597477Y-67474353D01*
X199545360Y-67446496D01*
X199488810Y-67429341D01*
X199430000Y-67423549D01*
X198370000Y-67423549D01*
X198311190Y-67429341D01*
X198254640Y-67446496D01*
X198202523Y-67474353D01*
X198156842Y-67511842D01*
X198119353Y-67557523D01*
X198091496Y-67609640D01*
X198074341Y-67666190D01*
X198068549Y-67725000D01*
X198068549Y-68347509D01*
X197435284Y-67714244D01*
X197421974Y-67698026D01*
X197357260Y-67644916D01*
X197283427Y-67605452D01*
X197203314Y-67581150D01*
X197140874Y-67575000D01*
X197140867Y-67575000D01*
X197120000Y-67572945D01*
X197099133Y-67575000D01*
X195276041Y-67575000D01*
X195112423Y-67411383D01*
X195109808Y-67408317D01*
X195107934Y-67406513D01*
X195092407Y-67388753D01*
X195077841Y-67377541D01*
X195064608Y-67364801D01*
X195050351Y-67355661D01*
X195037259Y-67344917D01*
X195031364Y-67341766D01*
X195026066Y-67337688D01*
X195009601Y-67329537D01*
X194994130Y-67319619D01*
X194978358Y-67313434D01*
X194963427Y-67305453D01*
X194957031Y-67303513D01*
X194951038Y-67300546D01*
X194933302Y-67295765D01*
X194916190Y-67289054D01*
X194899517Y-67286065D01*
X194883314Y-67281150D01*
X194858418Y-67278698D01*
X194833787Y-67274283D01*
X194831167Y-67274333D01*
X194747022Y-67260308D01*
X194733314Y-67256150D01*
X194705832Y-67253443D01*
X194699279Y-67252351D01*
X194685067Y-67251398D01*
X194670874Y-67250000D01*
X194664221Y-67250000D01*
X194636679Y-67248153D01*
X194622483Y-67250000D01*
X184935149Y-67250000D01*
X184868596Y-67168904D01*
X184786925Y-67101879D01*
X184693748Y-67052074D01*
X184592644Y-67021405D01*
X184487500Y-67011049D01*
X184012500Y-67011049D01*
X183907356Y-67021405D01*
X183806252Y-67052074D01*
X183713075Y-67101879D01*
X183631404Y-67168904D01*
X183564851Y-67250000D01*
X179904374Y-67250000D01*
X179868596Y-67206404D01*
X179786925Y-67139379D01*
X179693748Y-67089574D01*
X179592644Y-67058905D01*
X179487500Y-67048549D01*
X179012500Y-67048549D01*
X178907356Y-67058905D01*
X178806252Y-67089574D01*
X178713075Y-67139379D01*
X178631404Y-67206404D01*
X178564851Y-67287500D01*
X171308367Y-67287500D01*
X171287500Y-67285445D01*
X171266633Y-67287500D01*
X171266626Y-67287500D01*
X171211827Y-67292897D01*
X171204185Y-67293650D01*
X171124072Y-67317952D01*
X171098355Y-67331699D01*
X171050240Y-67357416D01*
X170985526Y-67410526D01*
X170972221Y-67426738D01*
X170787533Y-67611426D01*
X170704182Y-67576901D01*
X170568944Y-67550000D01*
X170431056Y-67550000D01*
X170295818Y-67576901D01*
X170168426Y-67629668D01*
X170053776Y-67706274D01*
X169956274Y-67803776D01*
X169879668Y-67918426D01*
X169826901Y-68045818D01*
X169800000Y-68181056D01*
X169800000Y-68318944D01*
X169826901Y-68454182D01*
X169879668Y-68581574D01*
X169956274Y-68696224D01*
X170053776Y-68793726D01*
X170168426Y-68870332D01*
X170295818Y-68923099D01*
X170431056Y-68950000D01*
X170568944Y-68950000D01*
X170704182Y-68923099D01*
X170831574Y-68870332D01*
X170946224Y-68793726D01*
X171043726Y-68696224D01*
X171120332Y-68581574D01*
X171173099Y-68454182D01*
X171179615Y-68421425D01*
X171463541Y-68137500D01*
X178473549Y-68137500D01*
X178473549Y-68162500D01*
X178483905Y-68267644D01*
X178514574Y-68368748D01*
X178564379Y-68461925D01*
X178631404Y-68543596D01*
X178713075Y-68610621D01*
X178806252Y-68660426D01*
X178907356Y-68691095D01*
X179012500Y-68701451D01*
X179487500Y-68701451D01*
X179592644Y-68691095D01*
X179693748Y-68660426D01*
X179786925Y-68610621D01*
X179868596Y-68543596D01*
X179935621Y-68461925D01*
X179985426Y-68368748D01*
X180016095Y-68267644D01*
X180026451Y-68162500D01*
X180026451Y-68100000D01*
X183473549Y-68100000D01*
X183473549Y-68125000D01*
X183483905Y-68230144D01*
X183514574Y-68331248D01*
X183564379Y-68424425D01*
X183631404Y-68506096D01*
X183713075Y-68573121D01*
X183806252Y-68622926D01*
X183907356Y-68653595D01*
X184012500Y-68663951D01*
X184487500Y-68663951D01*
X184592644Y-68653595D01*
X184693748Y-68622926D01*
X184786925Y-68573121D01*
X184868596Y-68506096D01*
X184935621Y-68424425D01*
X184985426Y-68331248D01*
X185016095Y-68230144D01*
X185026451Y-68125000D01*
X185026451Y-68100000D01*
X194582580Y-68100000D01*
X194831819Y-68392212D01*
X194810065Y-68410065D01*
X194741485Y-68493630D01*
X194690526Y-68588968D01*
X194659145Y-68692416D01*
X194648549Y-68799999D01*
X194648549Y-69700001D01*
X194659145Y-69807584D01*
X194690526Y-69911032D01*
X194741485Y-70006370D01*
X194810065Y-70089935D01*
X194893630Y-70158515D01*
X194988968Y-70209474D01*
X195092416Y-70240855D01*
X195100000Y-70241602D01*
X195100001Y-71884123D01*
X195097945Y-71905000D01*
X195106150Y-71988314D01*
X195130453Y-72068427D01*
X195169917Y-72142260D01*
X195223027Y-72206974D01*
X195239239Y-72220279D01*
X195292446Y-72273486D01*
X195193801Y-72511635D01*
X195140000Y-72782112D01*
X195140000Y-73057888D01*
X195193801Y-73328365D01*
X195299336Y-73583149D01*
X195452549Y-73812448D01*
X195647552Y-74007451D01*
X195876851Y-74160664D01*
X196131635Y-74266199D01*
X196402112Y-74320000D01*
X196677888Y-74320000D01*
X196948365Y-74266199D01*
X197203149Y-74160664D01*
X197432448Y-74007451D01*
X197627451Y-73812448D01*
X197780664Y-73583149D01*
X197886199Y-73328365D01*
X197940000Y-73057888D01*
X197940000Y-72782112D01*
X197886199Y-72511635D01*
X197780664Y-72256851D01*
X197627451Y-72027552D01*
X197432448Y-71832549D01*
X197203149Y-71679336D01*
X196948365Y-71573801D01*
X196677888Y-71520000D01*
X196402112Y-71520000D01*
X196131635Y-71573801D01*
X195950000Y-71649037D01*
X195950000Y-70241602D01*
X195957584Y-70240855D01*
X196061032Y-70209474D01*
X196156370Y-70158515D01*
X196239935Y-70089935D01*
X196308515Y-70006370D01*
X196359474Y-69911032D01*
X196390855Y-69807584D01*
X196401451Y-69700001D01*
X196401451Y-68799999D01*
X196390855Y-68692416D01*
X196359474Y-68588968D01*
X196308515Y-68493630D01*
X196252192Y-68425000D01*
X196943960Y-68425000D01*
X197804716Y-69285756D01*
X197818026Y-69301974D01*
X197882740Y-69355084D01*
X197941864Y-69386686D01*
X197956573Y-69394548D01*
X198036686Y-69418850D01*
X198086458Y-69423752D01*
X198091496Y-69440360D01*
X198110011Y-69475000D01*
X198091496Y-69509640D01*
X198074341Y-69566190D01*
X198068549Y-69625000D01*
X198068549Y-70275000D01*
X198074341Y-70333810D01*
X198091496Y-70390360D01*
X198119353Y-70442477D01*
X198156842Y-70488158D01*
X198202523Y-70525647D01*
X198254640Y-70553504D01*
X198311190Y-70570659D01*
X198370000Y-70576451D01*
X199430000Y-70576451D01*
X199488810Y-70570659D01*
X199545360Y-70553504D01*
X199597477Y-70525647D01*
X199643158Y-70488158D01*
X199680647Y-70442477D01*
X199708504Y-70390360D01*
X199713164Y-70375000D01*
X200286836Y-70375000D01*
X200291496Y-70390360D01*
X200319353Y-70442477D01*
X200356842Y-70488158D01*
X200402523Y-70525647D01*
X200454640Y-70553504D01*
X200511190Y-70570659D01*
X200570000Y-70576451D01*
X201630000Y-70576451D01*
X201688810Y-70570659D01*
X201713504Y-70563168D01*
X201700000Y-70631056D01*
X201700000Y-70768944D01*
X201726901Y-70904182D01*
X201779668Y-71031574D01*
X201856274Y-71146224D01*
X201953776Y-71243726D01*
X201975000Y-71257907D01*
X201975001Y-76242961D01*
X201542962Y-76675000D01*
X201120304Y-76675000D01*
X201004182Y-76626901D01*
X200868944Y-76600000D01*
X200731056Y-76600000D01*
X200595818Y-76626901D01*
X200468426Y-76679668D01*
X200353776Y-76756274D01*
X200256274Y-76853776D01*
X200179668Y-76968426D01*
X200126901Y-77095818D01*
X200100000Y-77231056D01*
X200100000Y-77368944D01*
X200126901Y-77504182D01*
X200179668Y-77631574D01*
X200256274Y-77746224D01*
X200353776Y-77843726D01*
X200468426Y-77920332D01*
X200595818Y-77973099D01*
X200731056Y-78000000D01*
X200868944Y-78000000D01*
X201004182Y-77973099D01*
X201131574Y-77920332D01*
X201246224Y-77843726D01*
X201343726Y-77746224D01*
X201420332Y-77631574D01*
X201464476Y-77525000D01*
X201698135Y-77525000D01*
X201719002Y-77527055D01*
X201739869Y-77525000D01*
X201739876Y-77525000D01*
X201802316Y-77518850D01*
X201882429Y-77494548D01*
X201956262Y-77455084D01*
X202020976Y-77401974D01*
X202034286Y-77385756D01*
X202685756Y-76734286D01*
X202701974Y-76720976D01*
X202755084Y-76656262D01*
X202794548Y-76582429D01*
X202818850Y-76502316D01*
X202825000Y-76439876D01*
X202827056Y-76419002D01*
X202825000Y-76398128D01*
X202825000Y-71257907D01*
X202846224Y-71243726D01*
X202943726Y-71146224D01*
X203020332Y-71031574D01*
X203073099Y-70904182D01*
X203100000Y-70768944D01*
X203100000Y-70631056D01*
X203073099Y-70495818D01*
X203020332Y-70368426D01*
X202943726Y-70253776D01*
X202846224Y-70156274D01*
X202731574Y-70079668D01*
X202604182Y-70026901D01*
X202546460Y-70015419D01*
X202195283Y-69664243D01*
X202181974Y-69648026D01*
X202117260Y-69594916D01*
X202043427Y-69555452D01*
X201963314Y-69531150D01*
X201913542Y-69526248D01*
X201908504Y-69509640D01*
X201889989Y-69475001D01*
X201908505Y-69440361D01*
X201925660Y-69383810D01*
X201931452Y-69325000D01*
X201930000Y-69102000D01*
X201855000Y-69027000D01*
X201127000Y-69027000D01*
X201127000Y-69047000D01*
X201073000Y-69047000D01*
X201073000Y-69027000D01*
X200345000Y-69027000D01*
X200270000Y-69102000D01*
X200268548Y-69325000D01*
X200274340Y-69383810D01*
X200291495Y-69440361D01*
X200310011Y-69475001D01*
X200291496Y-69509640D01*
X200286836Y-69525000D01*
X199713164Y-69525000D01*
X199708504Y-69509640D01*
X199689989Y-69475000D01*
X199708504Y-69440360D01*
X199725659Y-69383810D01*
X199731451Y-69325000D01*
X199731451Y-68675000D01*
X199725659Y-68616190D01*
X199708504Y-68559640D01*
X199689989Y-68525000D01*
X199708504Y-68490360D01*
X199713164Y-68475000D01*
X200286836Y-68475000D01*
X200291496Y-68490360D01*
X200310011Y-68524999D01*
X200291495Y-68559639D01*
X200274340Y-68616190D01*
X200268548Y-68675000D01*
X200270000Y-68898000D01*
X200345000Y-68973000D01*
X201073000Y-68973000D01*
X201073000Y-68953000D01*
X201127000Y-68953000D01*
X201127000Y-68973000D01*
X201855000Y-68973000D01*
X201930000Y-68898000D01*
X201931274Y-68702314D01*
X202984719Y-69755760D01*
X202998026Y-69771974D01*
X203014238Y-69785279D01*
X203014239Y-69785280D01*
X203021855Y-69791530D01*
X203062740Y-69825084D01*
X203136573Y-69864548D01*
X203192383Y-69881478D01*
X203216685Y-69888850D01*
X203225098Y-69889679D01*
X203279126Y-69895000D01*
X203279132Y-69895000D01*
X203299999Y-69897055D01*
X203320866Y-69895000D01*
X203493960Y-69895000D01*
X203975000Y-70376041D01*
X203975001Y-74035524D01*
X203868426Y-74079668D01*
X203753776Y-74156274D01*
X203656274Y-74253776D01*
X203579668Y-74368426D01*
X203526901Y-74495818D01*
X203500000Y-74631056D01*
X203500000Y-74768944D01*
X203526901Y-74904182D01*
X203579668Y-75031574D01*
X203656274Y-75146224D01*
X203753776Y-75243726D01*
X203868426Y-75320332D01*
X203995818Y-75373099D01*
X204131056Y-75400000D01*
X204268944Y-75400000D01*
X204404182Y-75373099D01*
X204531574Y-75320332D01*
X204646224Y-75243726D01*
X204675000Y-75214950D01*
X204675000Y-78623959D01*
X203023960Y-80275000D01*
X200057907Y-80275000D01*
X200043726Y-80253776D01*
X199946224Y-80156274D01*
X199831574Y-80079668D01*
X199704182Y-80026901D01*
X199568944Y-80000000D01*
X199431056Y-80000000D01*
X199295818Y-80026901D01*
X199168426Y-80079668D01*
X199053776Y-80156274D01*
X198956274Y-80253776D01*
X198879668Y-80368426D01*
X198826901Y-80495818D01*
X198800000Y-80631056D01*
X198800000Y-80768944D01*
X198826901Y-80904182D01*
X198879668Y-81031574D01*
X198956274Y-81146224D01*
X199053776Y-81243726D01*
X199168426Y-81320332D01*
X199295818Y-81373099D01*
X199431056Y-81400000D01*
X199568944Y-81400000D01*
X199704182Y-81373099D01*
X199831574Y-81320332D01*
X199946224Y-81243726D01*
X200043726Y-81146224D01*
X200057907Y-81125000D01*
X203179133Y-81125000D01*
X203200000Y-81127055D01*
X203220867Y-81125000D01*
X203220874Y-81125000D01*
X203283314Y-81118850D01*
X203363427Y-81094548D01*
X203437260Y-81055084D01*
X203501974Y-81001974D01*
X203515283Y-80985757D01*
X205385763Y-79115278D01*
X205401974Y-79101974D01*
X205455084Y-79037260D01*
X205480801Y-78989145D01*
X205494548Y-78963428D01*
X205518850Y-78883314D01*
X205519331Y-78878427D01*
X205525000Y-78820874D01*
X205525000Y-78820867D01*
X205527055Y-78800000D01*
X205525000Y-78779133D01*
X205525000Y-67220866D01*
X205527055Y-67199999D01*
X205525000Y-67179132D01*
X205525000Y-67179126D01*
X205518850Y-67116686D01*
X205494548Y-67036573D01*
X205455084Y-66962740D01*
X205401974Y-66898026D01*
X205385762Y-66884721D01*
X205115283Y-66614243D01*
X205101974Y-66598026D01*
X205037260Y-66544916D01*
X204963427Y-66505452D01*
X204883314Y-66481150D01*
X204820874Y-66475000D01*
X204820867Y-66475000D01*
X204800000Y-66472945D01*
X204779133Y-66475000D01*
X203657907Y-66475000D01*
X203643726Y-66453776D01*
X203546224Y-66356274D01*
X203499419Y-66325000D01*
X205675001Y-66325000D01*
X205675000Y-81642000D01*
X191750000Y-81642000D01*
X191631385Y-81653683D01*
X191517328Y-81688281D01*
X191412213Y-81744466D01*
X191320079Y-81820079D01*
X190070079Y-83070079D01*
X189994466Y-83162213D01*
X189938281Y-83267328D01*
X189903683Y-83381385D01*
X189892000Y-83500000D01*
X189892000Y-84420043D01*
X189831574Y-84379668D01*
X189704182Y-84326901D01*
X189568944Y-84300000D01*
X189431056Y-84300000D01*
X189295818Y-84326901D01*
X189168426Y-84379668D01*
X189053776Y-84456274D01*
X188956274Y-84553776D01*
X188879668Y-84668426D01*
X188826901Y-84795818D01*
X188800000Y-84931056D01*
X188800000Y-85068944D01*
X188826901Y-85204182D01*
X188879668Y-85331574D01*
X188956274Y-85446224D01*
X189053776Y-85543726D01*
X189075000Y-85557907D01*
X189075001Y-88323958D01*
X188598959Y-88800001D01*
X187303593Y-88800001D01*
X187315283Y-88785757D01*
X187406020Y-88695020D01*
X187431056Y-88700000D01*
X187568944Y-88700000D01*
X187704182Y-88673099D01*
X187831574Y-88620332D01*
X187946224Y-88543726D01*
X188043726Y-88446224D01*
X188120332Y-88331574D01*
X188173099Y-88204182D01*
X188200000Y-88068944D01*
X188200000Y-87931056D01*
X188173099Y-87795818D01*
X188120332Y-87668426D01*
X188043726Y-87553776D01*
X187946224Y-87456274D01*
X187831574Y-87379668D01*
X187704182Y-87326901D01*
X187568944Y-87300000D01*
X187431056Y-87300000D01*
X187295818Y-87326901D01*
X187168426Y-87379668D01*
X187053776Y-87456274D01*
X186956274Y-87553776D01*
X186879668Y-87668426D01*
X186826901Y-87795818D01*
X186800000Y-87931056D01*
X186800000Y-88068944D01*
X186801205Y-88075000D01*
X177557907Y-88075000D01*
X177543726Y-88053776D01*
X177446224Y-87956274D01*
X177331574Y-87879668D01*
X177204182Y-87826901D01*
X177068944Y-87800000D01*
X176931056Y-87800000D01*
X176795818Y-87826901D01*
X176668426Y-87879668D01*
X176553776Y-87956274D01*
X176456274Y-88053776D01*
X176379668Y-88168426D01*
X176326901Y-88295818D01*
X176300000Y-88431056D01*
X176300000Y-88568944D01*
X176326901Y-88704182D01*
X176366590Y-88800001D01*
X167737851Y-88800001D01*
X166675246Y-87737396D01*
X166769856Y-87766095D01*
X166875000Y-87776451D01*
X167450000Y-87776451D01*
X167555144Y-87766095D01*
X167656248Y-87735426D01*
X167749425Y-87685621D01*
X167831096Y-87618596D01*
X167898121Y-87536925D01*
X167931221Y-87475000D01*
X168086048Y-87475000D01*
X168091840Y-87533810D01*
X168108995Y-87590361D01*
X168136852Y-87642478D01*
X168174341Y-87688159D01*
X168220022Y-87725648D01*
X168272139Y-87753505D01*
X168328690Y-87770660D01*
X168387500Y-87776452D01*
X168810500Y-87775000D01*
X168885500Y-87700000D01*
X168885500Y-87027000D01*
X168939500Y-87027000D01*
X168939500Y-87700000D01*
X169014500Y-87775000D01*
X169437500Y-87776452D01*
X169496310Y-87770660D01*
X169552861Y-87753505D01*
X169604978Y-87725648D01*
X169650659Y-87688159D01*
X169688148Y-87642478D01*
X169716005Y-87590361D01*
X169733160Y-87533810D01*
X169738952Y-87475000D01*
X172336048Y-87475000D01*
X172341840Y-87533810D01*
X172358995Y-87590361D01*
X172386852Y-87642478D01*
X172424341Y-87688159D01*
X172470022Y-87725648D01*
X172522139Y-87753505D01*
X172578690Y-87770660D01*
X172637500Y-87776452D01*
X173060500Y-87775000D01*
X173135500Y-87700000D01*
X173135500Y-87027000D01*
X173189500Y-87027000D01*
X173189500Y-87700000D01*
X173264500Y-87775000D01*
X173687500Y-87776452D01*
X173746310Y-87770660D01*
X173802861Y-87753505D01*
X173854978Y-87725648D01*
X173900659Y-87688159D01*
X173938148Y-87642478D01*
X173966005Y-87590361D01*
X173983160Y-87533810D01*
X173988952Y-87475000D01*
X173987500Y-87102000D01*
X173912500Y-87027000D01*
X173189500Y-87027000D01*
X173135500Y-87027000D01*
X172412500Y-87027000D01*
X172337500Y-87102000D01*
X172336048Y-87475000D01*
X169738952Y-87475000D01*
X169737500Y-87102000D01*
X169662500Y-87027000D01*
X168939500Y-87027000D01*
X168885500Y-87027000D01*
X168162500Y-87027000D01*
X168087500Y-87102000D01*
X168086048Y-87475000D01*
X167931221Y-87475000D01*
X167947926Y-87443748D01*
X167978595Y-87342644D01*
X167988951Y-87237500D01*
X167988951Y-86762500D01*
X167978595Y-86657356D01*
X167947926Y-86556252D01*
X167931222Y-86525000D01*
X168086048Y-86525000D01*
X168087500Y-86898000D01*
X168162500Y-86973000D01*
X168885500Y-86973000D01*
X168885500Y-86300000D01*
X168939500Y-86300000D01*
X168939500Y-86973000D01*
X169662500Y-86973000D01*
X169737500Y-86898000D01*
X169738952Y-86525000D01*
X172336048Y-86525000D01*
X172337500Y-86898000D01*
X172412500Y-86973000D01*
X173135500Y-86973000D01*
X173135500Y-86300000D01*
X173189500Y-86300000D01*
X173189500Y-86973000D01*
X173912500Y-86973000D01*
X173987500Y-86898000D01*
X173988952Y-86525000D01*
X173983160Y-86466190D01*
X173966005Y-86409639D01*
X173938148Y-86357522D01*
X173900659Y-86311841D01*
X173854978Y-86274352D01*
X173802861Y-86246495D01*
X173746310Y-86229340D01*
X173687500Y-86223548D01*
X173264500Y-86225000D01*
X173189500Y-86300000D01*
X173135500Y-86300000D01*
X173060500Y-86225000D01*
X172637500Y-86223548D01*
X172578690Y-86229340D01*
X172522139Y-86246495D01*
X172470022Y-86274352D01*
X172424341Y-86311841D01*
X172386852Y-86357522D01*
X172358995Y-86409639D01*
X172341840Y-86466190D01*
X172336048Y-86525000D01*
X169738952Y-86525000D01*
X169733160Y-86466190D01*
X169716005Y-86409639D01*
X169688148Y-86357522D01*
X169650659Y-86311841D01*
X169604978Y-86274352D01*
X169552861Y-86246495D01*
X169496310Y-86229340D01*
X169437500Y-86223548D01*
X169014500Y-86225000D01*
X168939500Y-86300000D01*
X168885500Y-86300000D01*
X168810500Y-86225000D01*
X168387500Y-86223548D01*
X168328690Y-86229340D01*
X168272139Y-86246495D01*
X168220022Y-86274352D01*
X168174341Y-86311841D01*
X168136852Y-86357522D01*
X168108995Y-86409639D01*
X168091840Y-86466190D01*
X168086048Y-86525000D01*
X167931222Y-86525000D01*
X167898121Y-86463075D01*
X167831096Y-86381404D01*
X167749425Y-86314379D01*
X167656248Y-86264574D01*
X167555144Y-86233905D01*
X167450000Y-86223549D01*
X167425000Y-86223549D01*
X167425000Y-85296040D01*
X168241364Y-84479676D01*
X168313726Y-84509650D01*
X168516584Y-84550000D01*
X168723416Y-84550000D01*
X168926274Y-84509650D01*
X169117362Y-84430498D01*
X169289336Y-84315589D01*
X169435589Y-84169336D01*
X169550498Y-83997362D01*
X169629650Y-83806274D01*
X169670000Y-83603416D01*
X169670000Y-83396584D01*
X172450000Y-83396584D01*
X172450000Y-83603416D01*
X172490350Y-83806274D01*
X172569502Y-83997362D01*
X172684411Y-84169336D01*
X172830664Y-84315589D01*
X173002638Y-84430498D01*
X173193726Y-84509650D01*
X173396584Y-84550000D01*
X173603416Y-84550000D01*
X173806274Y-84509650D01*
X173878636Y-84479676D01*
X174650001Y-85251042D01*
X174650000Y-86223549D01*
X174625000Y-86223549D01*
X174519856Y-86233905D01*
X174418752Y-86264574D01*
X174325575Y-86314379D01*
X174243904Y-86381404D01*
X174176879Y-86463075D01*
X174127074Y-86556252D01*
X174096405Y-86657356D01*
X174086049Y-86762500D01*
X174086049Y-87237500D01*
X174096405Y-87342644D01*
X174127074Y-87443748D01*
X174176879Y-87536925D01*
X174243904Y-87618596D01*
X174325575Y-87685621D01*
X174418752Y-87735426D01*
X174519856Y-87766095D01*
X174625000Y-87776451D01*
X175200000Y-87776451D01*
X175305144Y-87766095D01*
X175406248Y-87735426D01*
X175499425Y-87685621D01*
X175581096Y-87618596D01*
X175648121Y-87536925D01*
X175697926Y-87443748D01*
X175728595Y-87342644D01*
X175738951Y-87237500D01*
X175738951Y-86762500D01*
X175728595Y-86657356D01*
X175697926Y-86556252D01*
X175648121Y-86463075D01*
X175581096Y-86381404D01*
X175500000Y-86314851D01*
X175500000Y-85681056D01*
X176300000Y-85681056D01*
X176300000Y-85818944D01*
X176326901Y-85954182D01*
X176379668Y-86081574D01*
X176456274Y-86196224D01*
X176553776Y-86293726D01*
X176668426Y-86370332D01*
X176679696Y-86375000D01*
X176668426Y-86379668D01*
X176553776Y-86456274D01*
X176456274Y-86553776D01*
X176379668Y-86668426D01*
X176326901Y-86795818D01*
X176300000Y-86931056D01*
X176300000Y-87068944D01*
X176326901Y-87204182D01*
X176379668Y-87331574D01*
X176456274Y-87446224D01*
X176553776Y-87543726D01*
X176668426Y-87620332D01*
X176795818Y-87673099D01*
X176931056Y-87700000D01*
X177068944Y-87700000D01*
X177204182Y-87673099D01*
X177331574Y-87620332D01*
X177446224Y-87543726D01*
X177543726Y-87446224D01*
X177557907Y-87425000D01*
X184479133Y-87425000D01*
X184500000Y-87427055D01*
X184520867Y-87425000D01*
X184520874Y-87425000D01*
X184583314Y-87418850D01*
X184663427Y-87394548D01*
X184737260Y-87355084D01*
X184801974Y-87301974D01*
X184815283Y-87285757D01*
X184906020Y-87195020D01*
X184931056Y-87200000D01*
X185068944Y-87200000D01*
X185204182Y-87173099D01*
X185331574Y-87120332D01*
X185446224Y-87043726D01*
X185543726Y-86946224D01*
X185620332Y-86831574D01*
X185673099Y-86704182D01*
X185700000Y-86568944D01*
X185700000Y-86431056D01*
X185673099Y-86295818D01*
X185620332Y-86168426D01*
X185543726Y-86053776D01*
X185446224Y-85956274D01*
X185331574Y-85879668D01*
X185204182Y-85826901D01*
X185068944Y-85800000D01*
X184931056Y-85800000D01*
X184925000Y-85801205D01*
X184925000Y-84020866D01*
X184927055Y-83999999D01*
X184925000Y-83979132D01*
X184925000Y-82916725D01*
X187123262Y-80718464D01*
X187139474Y-80705159D01*
X187192584Y-80640445D01*
X187232048Y-80566612D01*
X187256350Y-80486499D01*
X187262500Y-80424059D01*
X187262500Y-80424053D01*
X187264555Y-80403186D01*
X187263709Y-80394599D01*
X187283724Y-80381226D01*
X187381226Y-80283724D01*
X187457832Y-80169074D01*
X187510599Y-80041682D01*
X187537500Y-79906444D01*
X187537500Y-79768556D01*
X187510599Y-79633318D01*
X187457832Y-79505926D01*
X187381226Y-79391276D01*
X187283724Y-79293774D01*
X187169074Y-79217168D01*
X187041682Y-79164401D01*
X186906444Y-79137500D01*
X186768556Y-79137500D01*
X186633318Y-79164401D01*
X186505926Y-79217168D01*
X186391276Y-79293774D01*
X186293774Y-79391276D01*
X186217168Y-79505926D01*
X186164401Y-79633318D01*
X186137500Y-79768556D01*
X186137500Y-79906444D01*
X186164401Y-80041682D01*
X186217168Y-80169074D01*
X186293774Y-80283724D01*
X186324847Y-80314797D01*
X184214243Y-82425402D01*
X184198026Y-82438711D01*
X184144916Y-82503426D01*
X184105452Y-82577259D01*
X184081150Y-82657372D01*
X184075000Y-82719812D01*
X184075000Y-82719818D01*
X184072945Y-82740685D01*
X184075000Y-82761552D01*
X184075000Y-82973960D01*
X183195020Y-82093980D01*
X183200000Y-82068944D01*
X183200000Y-81931056D01*
X183173099Y-81795818D01*
X183120332Y-81668426D01*
X183043726Y-81553776D01*
X182946224Y-81456274D01*
X182831574Y-81379668D01*
X182704182Y-81326901D01*
X182568944Y-81300000D01*
X182431056Y-81300000D01*
X182295818Y-81326901D01*
X182168426Y-81379668D01*
X182053776Y-81456274D01*
X181956274Y-81553776D01*
X181879668Y-81668426D01*
X181826901Y-81795818D01*
X181800000Y-81931056D01*
X181800000Y-82068944D01*
X181804980Y-82093979D01*
X180964239Y-82934721D01*
X180948027Y-82948026D01*
X180906564Y-82998548D01*
X180500000Y-82998548D01*
X180441190Y-83004340D01*
X180384639Y-83021495D01*
X180332522Y-83049352D01*
X180286841Y-83086841D01*
X180249352Y-83132522D01*
X180221495Y-83184639D01*
X180204340Y-83241190D01*
X180198548Y-83300000D01*
X180198548Y-84450000D01*
X180204279Y-84508501D01*
X180221374Y-84565069D01*
X180240004Y-84600011D01*
X180221495Y-84634639D01*
X180204340Y-84691190D01*
X180198548Y-84750000D01*
X180198548Y-85750000D01*
X180204340Y-85808810D01*
X180221495Y-85865361D01*
X180226647Y-85875000D01*
X177726041Y-85875000D01*
X177695020Y-85843979D01*
X177700000Y-85818944D01*
X177700000Y-85681056D01*
X177673099Y-85545818D01*
X177620332Y-85418426D01*
X177543726Y-85303776D01*
X177446224Y-85206274D01*
X177331574Y-85129668D01*
X177204182Y-85076901D01*
X177068944Y-85050000D01*
X176931056Y-85050000D01*
X176795818Y-85076901D01*
X176668426Y-85129668D01*
X176553776Y-85206274D01*
X176456274Y-85303776D01*
X176379668Y-85418426D01*
X176326901Y-85545818D01*
X176300000Y-85681056D01*
X175500000Y-85681056D01*
X175500000Y-85095866D01*
X175502055Y-85074999D01*
X175500000Y-85054132D01*
X175500000Y-85054126D01*
X175493850Y-84991686D01*
X175469548Y-84911573D01*
X175430084Y-84837740D01*
X175376974Y-84773026D01*
X175360762Y-84759721D01*
X174479676Y-83878636D01*
X174509650Y-83806274D01*
X174550000Y-83603416D01*
X174550000Y-83396584D01*
X174509650Y-83193726D01*
X174430498Y-83002638D01*
X174315589Y-82830664D01*
X174169336Y-82684411D01*
X173997362Y-82569502D01*
X173806274Y-82490350D01*
X173603416Y-82450000D01*
X173396584Y-82450000D01*
X173193726Y-82490350D01*
X173002638Y-82569502D01*
X172830664Y-82684411D01*
X172684411Y-82830664D01*
X172569502Y-83002638D01*
X172490350Y-83193726D01*
X172450000Y-83396584D01*
X169670000Y-83396584D01*
X169629650Y-83193726D01*
X169550498Y-83002638D01*
X169435589Y-82830664D01*
X169289336Y-82684411D01*
X169117362Y-82569502D01*
X168926274Y-82490350D01*
X168723416Y-82450000D01*
X168516584Y-82450000D01*
X168313726Y-82490350D01*
X168122638Y-82569502D01*
X167950664Y-82684411D01*
X167804411Y-82830664D01*
X167689502Y-83002638D01*
X167610350Y-83193726D01*
X167570000Y-83396584D01*
X167570000Y-83603416D01*
X167610350Y-83806274D01*
X167640324Y-83878636D01*
X166714239Y-84804721D01*
X166698027Y-84818026D01*
X166684722Y-84834238D01*
X166684720Y-84834240D01*
X166681848Y-84837740D01*
X166644917Y-84882740D01*
X166629506Y-84911573D01*
X166605453Y-84956573D01*
X166581150Y-85036686D01*
X166572945Y-85120000D01*
X166575001Y-85140877D01*
X166575000Y-86314851D01*
X166493904Y-86381404D01*
X166426879Y-86463075D01*
X166377074Y-86556252D01*
X166346405Y-86657356D01*
X166336049Y-86762500D01*
X166336049Y-87237500D01*
X166346405Y-87342644D01*
X166375104Y-87437254D01*
X164925000Y-85987150D01*
X164925000Y-77886735D01*
X165770000Y-77886735D01*
X165770000Y-78113265D01*
X165814194Y-78335443D01*
X165900884Y-78544729D01*
X166026737Y-78733082D01*
X166186918Y-78893263D01*
X166375271Y-79019116D01*
X166584557Y-79105806D01*
X166806735Y-79150000D01*
X167033265Y-79150000D01*
X167255443Y-79105806D01*
X167464729Y-79019116D01*
X167653082Y-78893263D01*
X167813263Y-78733082D01*
X167939116Y-78544729D01*
X168025806Y-78335443D01*
X168070000Y-78113265D01*
X168070000Y-77886735D01*
X168047471Y-77773470D01*
X169700000Y-77773470D01*
X169700000Y-78226530D01*
X169788387Y-78670885D01*
X169961766Y-79089459D01*
X170213473Y-79466165D01*
X170533835Y-79786527D01*
X170910541Y-80038234D01*
X171329115Y-80211613D01*
X171773470Y-80300000D01*
X172226530Y-80300000D01*
X172670885Y-80211613D01*
X173089459Y-80038234D01*
X173249862Y-79931056D01*
X174300000Y-79931056D01*
X174300000Y-80068944D01*
X174326901Y-80204182D01*
X174379668Y-80331574D01*
X174456274Y-80446224D01*
X174553776Y-80543726D01*
X174668426Y-80620332D01*
X174795818Y-80673099D01*
X174931056Y-80700000D01*
X175068944Y-80700000D01*
X175204182Y-80673099D01*
X175331574Y-80620332D01*
X175446224Y-80543726D01*
X175543726Y-80446224D01*
X175557907Y-80425000D01*
X176442093Y-80425000D01*
X176456274Y-80446224D01*
X176553776Y-80543726D01*
X176668426Y-80620332D01*
X176795818Y-80673099D01*
X176931056Y-80700000D01*
X177068944Y-80700000D01*
X177204182Y-80673099D01*
X177331574Y-80620332D01*
X177446224Y-80543726D01*
X177543726Y-80446224D01*
X177620332Y-80331574D01*
X177673099Y-80204182D01*
X177700000Y-80068944D01*
X177700000Y-79931056D01*
X177673099Y-79795818D01*
X177620332Y-79668426D01*
X177543726Y-79553776D01*
X177446224Y-79456274D01*
X177331574Y-79379668D01*
X177204182Y-79326901D01*
X177068944Y-79300000D01*
X176931056Y-79300000D01*
X176795818Y-79326901D01*
X176668426Y-79379668D01*
X176553776Y-79456274D01*
X176456274Y-79553776D01*
X176442093Y-79575000D01*
X175557907Y-79575000D01*
X175543726Y-79553776D01*
X175446224Y-79456274D01*
X175331574Y-79379668D01*
X175204182Y-79326901D01*
X175068944Y-79300000D01*
X174931056Y-79300000D01*
X174795818Y-79326901D01*
X174668426Y-79379668D01*
X174553776Y-79456274D01*
X174456274Y-79553776D01*
X174379668Y-79668426D01*
X174326901Y-79795818D01*
X174300000Y-79931056D01*
X173249862Y-79931056D01*
X173466165Y-79786527D01*
X173786527Y-79466165D01*
X174038234Y-79089459D01*
X174211613Y-78670885D01*
X174300000Y-78226530D01*
X174300000Y-77886735D01*
X175930000Y-77886735D01*
X175930000Y-78113265D01*
X175974194Y-78335443D01*
X176060884Y-78544729D01*
X176186737Y-78733082D01*
X176346918Y-78893263D01*
X176535271Y-79019116D01*
X176744557Y-79105806D01*
X176966735Y-79150000D01*
X177193265Y-79150000D01*
X177415443Y-79105806D01*
X177624729Y-79019116D01*
X177813082Y-78893263D01*
X177973263Y-78733082D01*
X178099116Y-78544729D01*
X178185806Y-78335443D01*
X178197829Y-78274999D01*
X178847943Y-78274999D01*
X178856149Y-78358313D01*
X178880451Y-78438426D01*
X178919915Y-78512259D01*
X178973025Y-78576973D01*
X179037739Y-78630083D01*
X179111572Y-78669547D01*
X179191685Y-78693849D01*
X179254125Y-78699999D01*
X179274999Y-78702055D01*
X179295873Y-78699999D01*
X184454134Y-78699999D01*
X184475001Y-78702054D01*
X184495868Y-78699999D01*
X184495875Y-78699999D01*
X184558315Y-78693849D01*
X184638428Y-78669547D01*
X184712261Y-78630083D01*
X184776975Y-78576973D01*
X184790284Y-78560756D01*
X184906020Y-78445020D01*
X184931056Y-78450000D01*
X185068944Y-78450000D01*
X185204182Y-78423099D01*
X185331574Y-78370332D01*
X185446224Y-78293726D01*
X185543726Y-78196224D01*
X185620332Y-78081574D01*
X185673099Y-77954182D01*
X185686515Y-77886735D01*
X187770000Y-77886735D01*
X187770000Y-78113265D01*
X187814194Y-78335443D01*
X187900884Y-78544729D01*
X188026737Y-78733082D01*
X188186918Y-78893263D01*
X188375271Y-79019116D01*
X188584557Y-79105806D01*
X188806735Y-79150000D01*
X189033265Y-79150000D01*
X189255443Y-79105806D01*
X189464729Y-79019116D01*
X189653082Y-78893263D01*
X189813263Y-78733082D01*
X189939116Y-78544729D01*
X190025806Y-78335443D01*
X190070000Y-78113265D01*
X190070000Y-77886735D01*
X190047471Y-77773470D01*
X191700000Y-77773470D01*
X191700000Y-78226530D01*
X191788387Y-78670885D01*
X191961766Y-79089459D01*
X192213473Y-79466165D01*
X192533835Y-79786527D01*
X192910541Y-80038234D01*
X193329115Y-80211613D01*
X193773470Y-80300000D01*
X194226530Y-80300000D01*
X194670885Y-80211613D01*
X195089459Y-80038234D01*
X195466165Y-79786527D01*
X195786527Y-79466165D01*
X196038234Y-79089459D01*
X196211613Y-78670885D01*
X196300000Y-78226530D01*
X196300000Y-77886735D01*
X197930000Y-77886735D01*
X197930000Y-78113265D01*
X197974194Y-78335443D01*
X198060884Y-78544729D01*
X198186737Y-78733082D01*
X198346918Y-78893263D01*
X198535271Y-79019116D01*
X198744557Y-79105806D01*
X198966735Y-79150000D01*
X199193265Y-79150000D01*
X199415443Y-79105806D01*
X199624729Y-79019116D01*
X199813082Y-78893263D01*
X199973263Y-78733082D01*
X200099116Y-78544729D01*
X200185806Y-78335443D01*
X200230000Y-78113265D01*
X200230000Y-77886735D01*
X200185806Y-77664557D01*
X200099116Y-77455271D01*
X199973263Y-77266918D01*
X199813082Y-77106737D01*
X199624729Y-76980884D01*
X199415443Y-76894194D01*
X199193265Y-76850000D01*
X198966735Y-76850000D01*
X198744557Y-76894194D01*
X198535271Y-76980884D01*
X198346918Y-77106737D01*
X198186737Y-77266918D01*
X198060884Y-77455271D01*
X197974194Y-77664557D01*
X197930000Y-77886735D01*
X196300000Y-77886735D01*
X196300000Y-77773470D01*
X196211613Y-77329115D01*
X196038234Y-76910541D01*
X195786527Y-76533835D01*
X195466165Y-76213473D01*
X195089459Y-75961766D01*
X194670885Y-75788387D01*
X194226530Y-75700000D01*
X193773470Y-75700000D01*
X193329115Y-75788387D01*
X192910541Y-75961766D01*
X192533835Y-76213473D01*
X192213473Y-76533835D01*
X191961766Y-76910541D01*
X191788387Y-77329115D01*
X191700000Y-77773470D01*
X190047471Y-77773470D01*
X190025806Y-77664557D01*
X189939116Y-77455271D01*
X189813263Y-77266918D01*
X189653082Y-77106737D01*
X189464729Y-76980884D01*
X189255443Y-76894194D01*
X189033265Y-76850000D01*
X188806735Y-76850000D01*
X188584557Y-76894194D01*
X188375271Y-76980884D01*
X188186918Y-77106737D01*
X188026737Y-77266918D01*
X187900884Y-77455271D01*
X187814194Y-77664557D01*
X187770000Y-77886735D01*
X185686515Y-77886735D01*
X185700000Y-77818944D01*
X185700000Y-77681056D01*
X185673099Y-77545818D01*
X185620332Y-77418426D01*
X185543726Y-77303776D01*
X185446224Y-77206274D01*
X185331574Y-77129668D01*
X185204182Y-77076901D01*
X185068944Y-77050000D01*
X184931056Y-77050000D01*
X184795818Y-77076901D01*
X184668426Y-77129668D01*
X184553776Y-77206274D01*
X184456274Y-77303776D01*
X184379668Y-77418426D01*
X184326901Y-77545818D01*
X184300000Y-77681056D01*
X184300000Y-77818944D01*
X184304980Y-77843980D01*
X184298961Y-77849999D01*
X180608021Y-77849999D01*
X180620332Y-77831574D01*
X180673099Y-77704182D01*
X180700000Y-77568944D01*
X180700000Y-77431056D01*
X180695020Y-77406020D01*
X182214000Y-75887040D01*
X185476675Y-75924758D01*
X185500000Y-75927055D01*
X185522679Y-75924821D01*
X188855412Y-75896397D01*
X188949336Y-76123149D01*
X189102549Y-76352448D01*
X189297552Y-76547451D01*
X189526851Y-76700664D01*
X189781635Y-76806199D01*
X190052112Y-76860000D01*
X190327888Y-76860000D01*
X190598365Y-76806199D01*
X190853149Y-76700664D01*
X191082448Y-76547451D01*
X191277451Y-76352448D01*
X191430664Y-76123149D01*
X191536199Y-75868365D01*
X191590000Y-75597888D01*
X191590000Y-75322112D01*
X191536199Y-75051635D01*
X191430664Y-74796851D01*
X191277451Y-74567552D01*
X191082448Y-74372549D01*
X190853149Y-74219336D01*
X190598365Y-74113801D01*
X190327888Y-74060000D01*
X190052112Y-74060000D01*
X189781635Y-74113801D01*
X189526851Y-74219336D01*
X189297552Y-74372549D01*
X189102549Y-74567552D01*
X188949336Y-74796851D01*
X188845949Y-75046448D01*
X186074999Y-75070081D01*
X186074999Y-74670865D01*
X186077054Y-74649998D01*
X186074999Y-74629131D01*
X186074999Y-74629125D01*
X186068849Y-74566685D01*
X186044547Y-74486572D01*
X186005083Y-74412739D01*
X185951973Y-74348025D01*
X185945304Y-74342552D01*
X185950000Y-74318944D01*
X185950000Y-74181056D01*
X185923099Y-74045818D01*
X185870332Y-73918426D01*
X185793726Y-73803776D01*
X185696224Y-73706274D01*
X185581574Y-73629668D01*
X185454182Y-73576901D01*
X185318944Y-73550000D01*
X185181056Y-73550000D01*
X185045818Y-73576901D01*
X184918426Y-73629668D01*
X184803776Y-73706274D01*
X184706274Y-73803776D01*
X184629668Y-73918426D01*
X184576901Y-74045818D01*
X184550000Y-74181056D01*
X184550000Y-74318944D01*
X184576901Y-74454182D01*
X184629668Y-74581574D01*
X184706274Y-74696224D01*
X184803776Y-74793726D01*
X184918426Y-74870332D01*
X185045818Y-74923099D01*
X185181056Y-74950000D01*
X185224999Y-74950000D01*
X185225000Y-75071793D01*
X182063325Y-75035242D01*
X182040000Y-75032945D01*
X182000774Y-75036808D01*
X181961534Y-75040215D01*
X181959155Y-75040907D01*
X181956686Y-75041150D01*
X181918933Y-75052602D01*
X181881145Y-75063590D01*
X181878949Y-75064731D01*
X181876573Y-75065452D01*
X181841786Y-75084046D01*
X181806861Y-75102198D01*
X181804927Y-75103748D01*
X181802740Y-75104917D01*
X181772271Y-75129923D01*
X181741537Y-75154556D01*
X181726462Y-75172498D01*
X180093980Y-76804980D01*
X180068944Y-76800000D01*
X179931056Y-76800000D01*
X179795818Y-76826901D01*
X179699999Y-76866590D01*
X179699999Y-76751041D01*
X182035762Y-74415279D01*
X182051974Y-74401974D01*
X182105084Y-74337260D01*
X182144548Y-74263427D01*
X182166490Y-74191095D01*
X182168850Y-74183315D01*
X182170407Y-74167506D01*
X182193748Y-74160426D01*
X182286925Y-74110621D01*
X182368596Y-74043596D01*
X182435621Y-73961925D01*
X182485426Y-73868748D01*
X182516095Y-73767644D01*
X182526451Y-73662500D01*
X182526451Y-73087500D01*
X182516095Y-72982356D01*
X182485426Y-72881252D01*
X182435621Y-72788075D01*
X182368596Y-72706404D01*
X182286925Y-72639379D01*
X182193748Y-72589574D01*
X182092644Y-72558905D01*
X181987500Y-72548549D01*
X181512500Y-72548549D01*
X181407356Y-72558905D01*
X181306252Y-72589574D01*
X181213075Y-72639379D01*
X181131404Y-72706404D01*
X181064379Y-72788075D01*
X181014574Y-72881252D01*
X180983905Y-72982356D01*
X180973549Y-73087500D01*
X180973549Y-73662500D01*
X180983905Y-73767644D01*
X181014574Y-73868748D01*
X181064379Y-73961925D01*
X181131404Y-74043596D01*
X181172026Y-74076933D01*
X178989242Y-76259718D01*
X178973025Y-76273027D01*
X178919915Y-76337742D01*
X178880451Y-76411575D01*
X178856149Y-76491688D01*
X178849999Y-76554128D01*
X178849999Y-76554134D01*
X178847944Y-76575001D01*
X178849999Y-76595868D01*
X178850000Y-78254115D01*
X178847943Y-78274999D01*
X178197829Y-78274999D01*
X178230000Y-78113265D01*
X178230000Y-77886735D01*
X178185806Y-77664557D01*
X178099116Y-77455271D01*
X177973263Y-77266918D01*
X177813082Y-77106737D01*
X177624729Y-76980884D01*
X177415443Y-76894194D01*
X177193265Y-76850000D01*
X176966735Y-76850000D01*
X176744557Y-76894194D01*
X176535271Y-76980884D01*
X176346918Y-77106737D01*
X176186737Y-77266918D01*
X176060884Y-77455271D01*
X175974194Y-77664557D01*
X175930000Y-77886735D01*
X174300000Y-77886735D01*
X174300000Y-77773470D01*
X174211613Y-77329115D01*
X174038234Y-76910541D01*
X173786527Y-76533835D01*
X173466165Y-76213473D01*
X173089459Y-75961766D01*
X172670885Y-75788387D01*
X172226530Y-75700000D01*
X171773470Y-75700000D01*
X171329115Y-75788387D01*
X170910541Y-75961766D01*
X170533835Y-76213473D01*
X170213473Y-76533835D01*
X169961766Y-76910541D01*
X169788387Y-77329115D01*
X169700000Y-77773470D01*
X168047471Y-77773470D01*
X168025806Y-77664557D01*
X167939116Y-77455271D01*
X167813263Y-77266918D01*
X167653082Y-77106737D01*
X167464729Y-76980884D01*
X167255443Y-76894194D01*
X167033265Y-76850000D01*
X166806735Y-76850000D01*
X166584557Y-76894194D01*
X166375271Y-76980884D01*
X166186918Y-77106737D01*
X166026737Y-77266918D01*
X165900884Y-77455271D01*
X165814194Y-77664557D01*
X165770000Y-77886735D01*
X164925000Y-77886735D01*
X164925000Y-77520867D01*
X164927055Y-77500000D01*
X164925000Y-77479133D01*
X164925000Y-77479126D01*
X164918850Y-77416686D01*
X164918424Y-77415280D01*
X164906682Y-77376573D01*
X164894548Y-77336573D01*
X164855084Y-77262740D01*
X164801974Y-77198026D01*
X164785762Y-77184721D01*
X163056212Y-75455172D01*
X163105806Y-75335443D01*
X163108457Y-75322112D01*
X166790000Y-75322112D01*
X166790000Y-75597888D01*
X166843801Y-75868365D01*
X166949336Y-76123149D01*
X167102549Y-76352448D01*
X167297552Y-76547451D01*
X167526851Y-76700664D01*
X167781635Y-76806199D01*
X168052112Y-76860000D01*
X168327888Y-76860000D01*
X168598365Y-76806199D01*
X168853149Y-76700664D01*
X169082448Y-76547451D01*
X169277451Y-76352448D01*
X169430664Y-76123149D01*
X169536199Y-75868365D01*
X169590000Y-75597888D01*
X169590000Y-75322112D01*
X169536199Y-75051635D01*
X169430664Y-74796851D01*
X169277451Y-74567552D01*
X169082448Y-74372549D01*
X168853149Y-74219336D01*
X168598365Y-74113801D01*
X168327888Y-74060000D01*
X168052112Y-74060000D01*
X167781635Y-74113801D01*
X167526851Y-74219336D01*
X167297552Y-74372549D01*
X167102549Y-74567552D01*
X166949336Y-74796851D01*
X166843801Y-75051635D01*
X166790000Y-75322112D01*
X163108457Y-75322112D01*
X163150000Y-75113265D01*
X163150000Y-74886735D01*
X163105806Y-74664557D01*
X163019116Y-74455271D01*
X162893263Y-74266918D01*
X162733082Y-74106737D01*
X162544729Y-73980884D01*
X162335443Y-73894194D01*
X162113265Y-73850000D01*
X161886735Y-73850000D01*
X161664557Y-73894194D01*
X161455271Y-73980884D01*
X161266918Y-74106737D01*
X161106737Y-74266918D01*
X160980884Y-74455271D01*
X160894194Y-74664557D01*
X160850000Y-74886735D01*
X160850000Y-75113265D01*
X160894194Y-75335443D01*
X160980884Y-75544729D01*
X161106737Y-75733082D01*
X161266918Y-75893263D01*
X161455271Y-76019116D01*
X161664557Y-76105806D01*
X161886735Y-76150000D01*
X162113265Y-76150000D01*
X162335443Y-76105806D01*
X162455172Y-76056212D01*
X164075001Y-77676042D01*
X164075000Y-86142323D01*
X164072945Y-86163190D01*
X164075000Y-86184057D01*
X164075000Y-86184063D01*
X164077972Y-86214239D01*
X164081150Y-86246504D01*
X164084077Y-86256151D01*
X164105452Y-86326616D01*
X164144916Y-86400449D01*
X164198026Y-86465164D01*
X164214244Y-86478474D01*
X167246527Y-89510757D01*
X167259837Y-89526975D01*
X167324551Y-89580085D01*
X167398384Y-89619549D01*
X167478497Y-89643851D01*
X167540937Y-89650001D01*
X167540944Y-89650001D01*
X167561811Y-89652056D01*
X167582678Y-89650001D01*
X188754132Y-89650001D01*
X188774999Y-89652056D01*
X188795866Y-89650001D01*
X188795873Y-89650001D01*
X188858313Y-89643851D01*
X188938426Y-89619549D01*
X189012259Y-89580085D01*
X189076973Y-89526975D01*
X189090282Y-89510758D01*
X189785762Y-88815279D01*
X189801974Y-88801974D01*
X189855084Y-88737260D01*
X189892000Y-88668194D01*
X189892000Y-89675000D01*
X160325000Y-89675000D01*
X160325000Y-80286518D01*
X160868695Y-80286518D01*
X160875778Y-80322135D01*
X160944618Y-80536807D01*
X161054015Y-80733924D01*
X161199766Y-80905912D01*
X161376270Y-81046160D01*
X161576743Y-81149279D01*
X161793482Y-81211306D01*
X161973000Y-81154684D01*
X161973000Y-80107000D01*
X160925339Y-80107000D01*
X160868695Y-80286518D01*
X160325000Y-80286518D01*
X160325000Y-79873482D01*
X160868695Y-79873482D01*
X160925339Y-80053000D01*
X161973000Y-80053000D01*
X161973000Y-79005316D01*
X161793482Y-78948694D01*
X161576743Y-79010721D01*
X161376270Y-79113840D01*
X161199766Y-79254088D01*
X161054015Y-79426076D01*
X160944618Y-79623193D01*
X160875778Y-79837865D01*
X160868695Y-79873482D01*
X160325000Y-79873482D01*
X160325000Y-77426735D01*
X160850000Y-77426735D01*
X160850000Y-77653265D01*
X160894194Y-77875443D01*
X160980884Y-78084729D01*
X161106737Y-78273082D01*
X161266918Y-78433263D01*
X161455271Y-78559116D01*
X161664557Y-78645806D01*
X161886735Y-78690000D01*
X162113265Y-78690000D01*
X162335443Y-78645806D01*
X162455172Y-78596212D01*
X162750002Y-78891043D01*
X162750002Y-79214174D01*
X162623730Y-79113840D01*
X162423257Y-79010721D01*
X162206518Y-78948694D01*
X162027000Y-79005316D01*
X162027000Y-80053000D01*
X162047000Y-80053000D01*
X162047000Y-80107000D01*
X162027000Y-80107000D01*
X162027000Y-81154684D01*
X162206518Y-81211306D01*
X162423257Y-81149279D01*
X162623730Y-81046160D01*
X162750002Y-80945826D01*
X162750001Y-86654134D01*
X162747946Y-86675001D01*
X162750001Y-86695868D01*
X162750001Y-86695874D01*
X162751810Y-86714240D01*
X162756151Y-86758315D01*
X162757494Y-86762741D01*
X162780453Y-86838427D01*
X162819917Y-86912260D01*
X162873027Y-86976975D01*
X162889245Y-86990285D01*
X163729980Y-87831020D01*
X163725000Y-87856056D01*
X163725000Y-87993944D01*
X163751901Y-88129182D01*
X163804668Y-88256574D01*
X163881274Y-88371224D01*
X163978776Y-88468726D01*
X164093426Y-88545332D01*
X164220818Y-88598099D01*
X164356056Y-88625000D01*
X164493944Y-88625000D01*
X164629182Y-88598099D01*
X164756574Y-88545332D01*
X164871224Y-88468726D01*
X164968726Y-88371224D01*
X165045332Y-88256574D01*
X165098099Y-88129182D01*
X165125000Y-87993944D01*
X165125000Y-87856056D01*
X165098099Y-87720818D01*
X165045332Y-87593426D01*
X164968726Y-87478776D01*
X164871224Y-87381274D01*
X164756574Y-87304668D01*
X164629182Y-87251901D01*
X164493944Y-87225000D01*
X164356056Y-87225000D01*
X164331020Y-87229980D01*
X163600001Y-86498961D01*
X163600001Y-78735867D01*
X163602056Y-78715000D01*
X163600001Y-78694133D01*
X163600001Y-78694127D01*
X163593851Y-78631687D01*
X163593365Y-78630083D01*
X163581290Y-78590279D01*
X163569549Y-78551574D01*
X163530085Y-78477741D01*
X163497820Y-78438426D01*
X163490281Y-78429240D01*
X163490280Y-78429239D01*
X163476975Y-78413027D01*
X163460763Y-78399722D01*
X163056212Y-77995172D01*
X163105806Y-77875443D01*
X163150000Y-77653265D01*
X163150000Y-77426735D01*
X163105806Y-77204557D01*
X163019116Y-76995271D01*
X162893263Y-76806918D01*
X162733082Y-76646737D01*
X162544729Y-76520884D01*
X162335443Y-76434194D01*
X162113265Y-76390000D01*
X161886735Y-76390000D01*
X161664557Y-76434194D01*
X161455271Y-76520884D01*
X161266918Y-76646737D01*
X161106737Y-76806918D01*
X160980884Y-76995271D01*
X160894194Y-77204557D01*
X160850000Y-77426735D01*
X160325000Y-77426735D01*
X160325000Y-71610000D01*
X160848549Y-71610000D01*
X160848549Y-73310000D01*
X160854341Y-73368810D01*
X160871496Y-73425360D01*
X160899353Y-73477477D01*
X160936842Y-73523158D01*
X160982523Y-73560647D01*
X161034640Y-73588504D01*
X161091190Y-73605659D01*
X161150000Y-73611451D01*
X162850000Y-73611451D01*
X162908810Y-73605659D01*
X162965360Y-73588504D01*
X163017477Y-73560647D01*
X163063158Y-73523158D01*
X163100647Y-73477477D01*
X163128504Y-73425360D01*
X163145659Y-73368810D01*
X163151451Y-73310000D01*
X163151451Y-72782112D01*
X173140000Y-72782112D01*
X173140000Y-73057888D01*
X173193801Y-73328365D01*
X173299336Y-73583149D01*
X173452549Y-73812448D01*
X173647552Y-74007451D01*
X173876851Y-74160664D01*
X174131635Y-74266199D01*
X174402112Y-74320000D01*
X174677888Y-74320000D01*
X174948365Y-74266199D01*
X175203149Y-74160664D01*
X175432448Y-74007451D01*
X175627451Y-73812448D01*
X175780664Y-73583149D01*
X175879309Y-73345000D01*
X179609133Y-73345000D01*
X179630000Y-73347055D01*
X179650867Y-73345000D01*
X179650874Y-73345000D01*
X179713314Y-73338850D01*
X179793427Y-73314548D01*
X179867260Y-73275084D01*
X179931974Y-73221974D01*
X179945283Y-73205757D01*
X181020746Y-72130295D01*
X181064379Y-72211925D01*
X181131404Y-72293596D01*
X181213075Y-72360621D01*
X181306252Y-72410426D01*
X181407356Y-72441095D01*
X181512500Y-72451451D01*
X181987500Y-72451451D01*
X182092644Y-72441095D01*
X182193748Y-72410426D01*
X182286925Y-72360621D01*
X182368596Y-72293596D01*
X182435621Y-72211925D01*
X182485426Y-72118748D01*
X182516095Y-72017644D01*
X182526451Y-71912500D01*
X182526451Y-71337500D01*
X182516095Y-71232356D01*
X182485426Y-71131252D01*
X182435621Y-71038075D01*
X182368596Y-70956404D01*
X182286925Y-70889379D01*
X182193748Y-70839574D01*
X182092644Y-70808905D01*
X181987500Y-70798549D01*
X181512500Y-70798549D01*
X181407356Y-70808905D01*
X181306252Y-70839574D01*
X181213075Y-70889379D01*
X181131404Y-70956404D01*
X181064379Y-71038075D01*
X181045504Y-71073388D01*
X181029132Y-71075000D01*
X181029126Y-71075000D01*
X180975098Y-71080321D01*
X180966685Y-71081150D01*
X180942383Y-71088522D01*
X180886573Y-71105452D01*
X180812740Y-71144916D01*
X180748026Y-71198026D01*
X180734721Y-71214238D01*
X179453960Y-72495000D01*
X175879309Y-72495000D01*
X175780664Y-72256851D01*
X175627451Y-72027552D01*
X175432448Y-71832549D01*
X175203149Y-71679336D01*
X174948365Y-71573801D01*
X174677888Y-71520000D01*
X174402112Y-71520000D01*
X174131635Y-71573801D01*
X173876851Y-71679336D01*
X173647552Y-71832549D01*
X173452549Y-72027552D01*
X173299336Y-72256851D01*
X173193801Y-72511635D01*
X173140000Y-72782112D01*
X163151451Y-72782112D01*
X163151451Y-71610000D01*
X163145659Y-71551190D01*
X163128504Y-71494640D01*
X163100647Y-71442523D01*
X163063158Y-71396842D01*
X163017477Y-71359353D01*
X162965360Y-71331496D01*
X162908810Y-71314341D01*
X162850000Y-71308549D01*
X161150000Y-71308549D01*
X161091190Y-71314341D01*
X161034640Y-71331496D01*
X160982523Y-71359353D01*
X160936842Y-71396842D01*
X160899353Y-71442523D01*
X160871496Y-71494640D01*
X160854341Y-71551190D01*
X160848549Y-71610000D01*
X160325000Y-71610000D01*
X160325000Y-70150000D01*
X178473548Y-70150000D01*
X178479340Y-70208810D01*
X178496495Y-70265361D01*
X178524352Y-70317478D01*
X178561841Y-70363159D01*
X178607522Y-70400648D01*
X178659639Y-70428505D01*
X178716190Y-70445660D01*
X178775000Y-70451452D01*
X179148000Y-70450000D01*
X179223000Y-70375000D01*
X179223000Y-69652000D01*
X179277000Y-69652000D01*
X179277000Y-70375000D01*
X179352000Y-70450000D01*
X179725000Y-70451452D01*
X179783810Y-70445660D01*
X179840361Y-70428505D01*
X179892478Y-70400648D01*
X179938159Y-70363159D01*
X179975648Y-70317478D01*
X180003505Y-70265361D01*
X180020660Y-70208810D01*
X180026452Y-70150000D01*
X180026324Y-70112500D01*
X183473548Y-70112500D01*
X183479340Y-70171310D01*
X183496495Y-70227861D01*
X183524352Y-70279978D01*
X183561841Y-70325659D01*
X183607522Y-70363148D01*
X183659639Y-70391005D01*
X183716190Y-70408160D01*
X183775000Y-70413952D01*
X184148000Y-70412500D01*
X184223000Y-70337500D01*
X184223000Y-69614500D01*
X184277000Y-69614500D01*
X184277000Y-70337500D01*
X184352000Y-70412500D01*
X184725000Y-70413952D01*
X184783810Y-70408160D01*
X184840361Y-70391005D01*
X184892478Y-70363148D01*
X184938159Y-70325659D01*
X184975648Y-70279978D01*
X185003505Y-70227861D01*
X185020660Y-70171310D01*
X185026452Y-70112500D01*
X185025122Y-69725000D01*
X188798548Y-69725000D01*
X188804340Y-69783810D01*
X188821495Y-69840361D01*
X188849352Y-69892478D01*
X188886841Y-69938159D01*
X188932522Y-69975648D01*
X188984639Y-70003505D01*
X189041190Y-70020660D01*
X189100000Y-70026452D01*
X189523000Y-70025000D01*
X189598000Y-69950000D01*
X189598000Y-69277000D01*
X189652000Y-69277000D01*
X189652000Y-69950000D01*
X189727000Y-70025000D01*
X190150000Y-70026452D01*
X190208810Y-70020660D01*
X190265361Y-70003505D01*
X190317478Y-69975648D01*
X190363159Y-69938159D01*
X190400648Y-69892478D01*
X190428505Y-69840361D01*
X190445660Y-69783810D01*
X190451452Y-69725000D01*
X190450000Y-69352000D01*
X190375000Y-69277000D01*
X189652000Y-69277000D01*
X189598000Y-69277000D01*
X188875000Y-69277000D01*
X188800000Y-69352000D01*
X188798548Y-69725000D01*
X185025122Y-69725000D01*
X185025000Y-69689500D01*
X184950000Y-69614500D01*
X184277000Y-69614500D01*
X184223000Y-69614500D01*
X183550000Y-69614500D01*
X183475000Y-69689500D01*
X183473548Y-70112500D01*
X180026324Y-70112500D01*
X180025000Y-69727000D01*
X179950000Y-69652000D01*
X179277000Y-69652000D01*
X179223000Y-69652000D01*
X178550000Y-69652000D01*
X178475000Y-69727000D01*
X178473548Y-70150000D01*
X160325000Y-70150000D01*
X160325000Y-69100000D01*
X178473548Y-69100000D01*
X178475000Y-69523000D01*
X178550000Y-69598000D01*
X179223000Y-69598000D01*
X179223000Y-68875000D01*
X179277000Y-68875000D01*
X179277000Y-69598000D01*
X179950000Y-69598000D01*
X180025000Y-69523000D01*
X180026452Y-69100000D01*
X180022759Y-69062500D01*
X183473548Y-69062500D01*
X183475000Y-69485500D01*
X183550000Y-69560500D01*
X184223000Y-69560500D01*
X184223000Y-68837500D01*
X184277000Y-68837500D01*
X184277000Y-69560500D01*
X184950000Y-69560500D01*
X185025000Y-69485500D01*
X185026452Y-69062500D01*
X185020660Y-69003690D01*
X185003505Y-68947139D01*
X184975648Y-68895022D01*
X184938159Y-68849341D01*
X184892478Y-68811852D01*
X184840361Y-68783995D01*
X184810710Y-68775000D01*
X188798548Y-68775000D01*
X188800000Y-69148000D01*
X188875000Y-69223000D01*
X189598000Y-69223000D01*
X189598000Y-68550000D01*
X189652000Y-68550000D01*
X189652000Y-69223000D01*
X190375000Y-69223000D01*
X190450000Y-69148000D01*
X190450527Y-69012500D01*
X190548549Y-69012500D01*
X190548549Y-69487500D01*
X190558905Y-69592644D01*
X190589574Y-69693748D01*
X190639379Y-69786925D01*
X190706404Y-69868596D01*
X190788075Y-69935621D01*
X190881252Y-69985426D01*
X190982356Y-70016095D01*
X191087500Y-70026451D01*
X191662500Y-70026451D01*
X191767644Y-70016095D01*
X191868748Y-69985426D01*
X191961925Y-69935621D01*
X192043596Y-69868596D01*
X192110621Y-69786925D01*
X192160426Y-69693748D01*
X192166113Y-69675000D01*
X192598549Y-69675000D01*
X192598549Y-69700001D01*
X192609145Y-69807584D01*
X192640526Y-69911032D01*
X192691485Y-70006370D01*
X192760065Y-70089935D01*
X192843630Y-70158515D01*
X192938968Y-70209474D01*
X193042416Y-70240855D01*
X193149999Y-70251451D01*
X193800001Y-70251451D01*
X193907584Y-70240855D01*
X194011032Y-70209474D01*
X194106370Y-70158515D01*
X194189935Y-70089935D01*
X194258515Y-70006370D01*
X194309474Y-69911032D01*
X194340855Y-69807584D01*
X194351451Y-69700001D01*
X194351451Y-68799999D01*
X194340855Y-68692416D01*
X194309474Y-68588968D01*
X194258515Y-68493630D01*
X194189935Y-68410065D01*
X194106370Y-68341485D01*
X194011032Y-68290526D01*
X193907584Y-68259145D01*
X193800001Y-68248549D01*
X193149999Y-68248549D01*
X193042416Y-68259145D01*
X192938968Y-68290526D01*
X192843630Y-68341485D01*
X192760065Y-68410065D01*
X192691485Y-68493630D01*
X192640526Y-68588968D01*
X192609145Y-68692416D01*
X192598549Y-68799999D01*
X192598549Y-68825000D01*
X192166113Y-68825000D01*
X192160426Y-68806252D01*
X192110621Y-68713075D01*
X192043596Y-68631404D01*
X191961925Y-68564379D01*
X191868748Y-68514574D01*
X191767644Y-68483905D01*
X191662500Y-68473549D01*
X191087500Y-68473549D01*
X190982356Y-68483905D01*
X190881252Y-68514574D01*
X190788075Y-68564379D01*
X190706404Y-68631404D01*
X190639379Y-68713075D01*
X190589574Y-68806252D01*
X190558905Y-68907356D01*
X190548549Y-69012500D01*
X190450527Y-69012500D01*
X190451452Y-68775000D01*
X190445660Y-68716190D01*
X190428505Y-68659639D01*
X190400648Y-68607522D01*
X190363159Y-68561841D01*
X190317478Y-68524352D01*
X190265361Y-68496495D01*
X190208810Y-68479340D01*
X190150000Y-68473548D01*
X189727000Y-68475000D01*
X189652000Y-68550000D01*
X189598000Y-68550000D01*
X189523000Y-68475000D01*
X189100000Y-68473548D01*
X189041190Y-68479340D01*
X188984639Y-68496495D01*
X188932522Y-68524352D01*
X188886841Y-68561841D01*
X188849352Y-68607522D01*
X188821495Y-68659639D01*
X188804340Y-68716190D01*
X188798548Y-68775000D01*
X184810710Y-68775000D01*
X184783810Y-68766840D01*
X184725000Y-68761048D01*
X184352000Y-68762500D01*
X184277000Y-68837500D01*
X184223000Y-68837500D01*
X184148000Y-68762500D01*
X183775000Y-68761048D01*
X183716190Y-68766840D01*
X183659639Y-68783995D01*
X183607522Y-68811852D01*
X183561841Y-68849341D01*
X183524352Y-68895022D01*
X183496495Y-68947139D01*
X183479340Y-69003690D01*
X183473548Y-69062500D01*
X180022759Y-69062500D01*
X180020660Y-69041190D01*
X180003505Y-68984639D01*
X179975648Y-68932522D01*
X179938159Y-68886841D01*
X179892478Y-68849352D01*
X179840361Y-68821495D01*
X179783810Y-68804340D01*
X179725000Y-68798548D01*
X179352000Y-68800000D01*
X179277000Y-68875000D01*
X179223000Y-68875000D01*
X179148000Y-68800000D01*
X178775000Y-68798548D01*
X178716190Y-68804340D01*
X178659639Y-68821495D01*
X178607522Y-68849352D01*
X178561841Y-68886841D01*
X178524352Y-68932522D01*
X178496495Y-68984639D01*
X178479340Y-69041190D01*
X178473548Y-69100000D01*
X160325000Y-69100000D01*
X160325000Y-66325000D01*
X202700581Y-66325000D01*
X202653776Y-66356274D01*
G37*
X202653776Y-66356274D02*
X202556274Y-66453776D01*
X202479668Y-66568426D01*
X202426901Y-66695818D01*
X202400000Y-66831056D01*
X202400000Y-66968944D01*
X202426901Y-67104182D01*
X202479668Y-67231574D01*
X202556274Y-67346224D01*
X202653776Y-67443726D01*
X202768426Y-67520332D01*
X202895818Y-67573099D01*
X203031056Y-67600000D01*
X203168944Y-67600000D01*
X203304182Y-67573099D01*
X203431574Y-67520332D01*
X203546224Y-67443726D01*
X203643726Y-67346224D01*
X203657907Y-67325000D01*
X204623960Y-67325000D01*
X204675001Y-67376042D01*
X204675001Y-69873960D01*
X203985283Y-69184243D01*
X203971974Y-69168026D01*
X203907260Y-69114916D01*
X203833427Y-69075452D01*
X203753314Y-69051150D01*
X203690874Y-69045000D01*
X203690867Y-69045000D01*
X203670000Y-69042945D01*
X203649133Y-69045000D01*
X203476041Y-69045000D01*
X202195283Y-67764243D01*
X202181974Y-67748026D01*
X202117260Y-67694916D01*
X202043427Y-67655452D01*
X201963314Y-67631150D01*
X201913542Y-67626248D01*
X201908504Y-67609640D01*
X201880647Y-67557523D01*
X201843158Y-67511842D01*
X201797477Y-67474353D01*
X201745360Y-67446496D01*
X201688810Y-67429341D01*
X201630000Y-67423549D01*
X200570000Y-67423549D01*
X200511190Y-67429341D01*
X200454640Y-67446496D01*
X200402523Y-67474353D01*
X200356842Y-67511842D01*
X200319353Y-67557523D01*
X200291496Y-67609640D01*
X200286836Y-67625000D01*
X199713164Y-67625000D01*
X199708504Y-67609640D01*
X199680647Y-67557523D01*
X199643158Y-67511842D01*
X199597477Y-67474353D01*
X199545360Y-67446496D01*
X199488810Y-67429341D01*
X199430000Y-67423549D01*
X198370000Y-67423549D01*
X198311190Y-67429341D01*
X198254640Y-67446496D01*
X198202523Y-67474353D01*
X198156842Y-67511842D01*
X198119353Y-67557523D01*
X198091496Y-67609640D01*
X198074341Y-67666190D01*
X198068549Y-67725000D01*
X198068549Y-68347509D01*
X197435284Y-67714244D01*
X197421974Y-67698026D01*
X197357260Y-67644916D01*
X197283427Y-67605452D01*
X197203314Y-67581150D01*
X197140874Y-67575000D01*
X197140867Y-67575000D01*
X197120000Y-67572945D01*
X197099133Y-67575000D01*
X195276041Y-67575000D01*
X195112423Y-67411383D01*
X195109808Y-67408317D01*
X195107934Y-67406513D01*
X195092407Y-67388753D01*
X195077841Y-67377541D01*
X195064608Y-67364801D01*
X195050351Y-67355661D01*
X195037259Y-67344917D01*
X195031364Y-67341766D01*
X195026066Y-67337688D01*
X195009601Y-67329537D01*
X194994130Y-67319619D01*
X194978358Y-67313434D01*
X194963427Y-67305453D01*
X194957031Y-67303513D01*
X194951038Y-67300546D01*
X194933302Y-67295765D01*
X194916190Y-67289054D01*
X194899517Y-67286065D01*
X194883314Y-67281150D01*
X194858418Y-67278698D01*
X194833787Y-67274283D01*
X194831167Y-67274333D01*
X194747022Y-67260308D01*
X194733314Y-67256150D01*
X194705832Y-67253443D01*
X194699279Y-67252351D01*
X194685067Y-67251398D01*
X194670874Y-67250000D01*
X194664221Y-67250000D01*
X194636679Y-67248153D01*
X194622483Y-67250000D01*
X184935149Y-67250000D01*
X184868596Y-67168904D01*
X184786925Y-67101879D01*
X184693748Y-67052074D01*
X184592644Y-67021405D01*
X184487500Y-67011049D01*
X184012500Y-67011049D01*
X183907356Y-67021405D01*
X183806252Y-67052074D01*
X183713075Y-67101879D01*
X183631404Y-67168904D01*
X183564851Y-67250000D01*
X179904374Y-67250000D01*
X179868596Y-67206404D01*
X179786925Y-67139379D01*
X179693748Y-67089574D01*
X179592644Y-67058905D01*
X179487500Y-67048549D01*
X179012500Y-67048549D01*
X178907356Y-67058905D01*
X178806252Y-67089574D01*
X178713075Y-67139379D01*
X178631404Y-67206404D01*
X178564851Y-67287500D01*
X171308367Y-67287500D01*
X171287500Y-67285445D01*
X171266633Y-67287500D01*
X171266626Y-67287500D01*
X171211827Y-67292897D01*
X171204185Y-67293650D01*
X171124072Y-67317952D01*
X171098355Y-67331699D01*
X171050240Y-67357416D01*
X170985526Y-67410526D01*
X170972221Y-67426738D01*
X170787533Y-67611426D01*
X170704182Y-67576901D01*
X170568944Y-67550000D01*
X170431056Y-67550000D01*
X170295818Y-67576901D01*
X170168426Y-67629668D01*
X170053776Y-67706274D01*
X169956274Y-67803776D01*
X169879668Y-67918426D01*
X169826901Y-68045818D01*
X169800000Y-68181056D01*
X169800000Y-68318944D01*
X169826901Y-68454182D01*
X169879668Y-68581574D01*
X169956274Y-68696224D01*
X170053776Y-68793726D01*
X170168426Y-68870332D01*
X170295818Y-68923099D01*
X170431056Y-68950000D01*
X170568944Y-68950000D01*
X170704182Y-68923099D01*
X170831574Y-68870332D01*
X170946224Y-68793726D01*
X171043726Y-68696224D01*
X171120332Y-68581574D01*
X171173099Y-68454182D01*
X171179615Y-68421425D01*
X171463541Y-68137500D01*
X178473549Y-68137500D01*
X178473549Y-68162500D01*
X178483905Y-68267644D01*
X178514574Y-68368748D01*
X178564379Y-68461925D01*
X178631404Y-68543596D01*
X178713075Y-68610621D01*
X178806252Y-68660426D01*
X178907356Y-68691095D01*
X179012500Y-68701451D01*
X179487500Y-68701451D01*
X179592644Y-68691095D01*
X179693748Y-68660426D01*
X179786925Y-68610621D01*
X179868596Y-68543596D01*
X179935621Y-68461925D01*
X179985426Y-68368748D01*
X180016095Y-68267644D01*
X180026451Y-68162500D01*
X180026451Y-68100000D01*
X183473549Y-68100000D01*
X183473549Y-68125000D01*
X183483905Y-68230144D01*
X183514574Y-68331248D01*
X183564379Y-68424425D01*
X183631404Y-68506096D01*
X183713075Y-68573121D01*
X183806252Y-68622926D01*
X183907356Y-68653595D01*
X184012500Y-68663951D01*
X184487500Y-68663951D01*
X184592644Y-68653595D01*
X184693748Y-68622926D01*
X184786925Y-68573121D01*
X184868596Y-68506096D01*
X184935621Y-68424425D01*
X184985426Y-68331248D01*
X185016095Y-68230144D01*
X185026451Y-68125000D01*
X185026451Y-68100000D01*
X194582580Y-68100000D01*
X194831819Y-68392212D01*
X194810065Y-68410065D01*
X194741485Y-68493630D01*
X194690526Y-68588968D01*
X194659145Y-68692416D01*
X194648549Y-68799999D01*
X194648549Y-69700001D01*
X194659145Y-69807584D01*
X194690526Y-69911032D01*
X194741485Y-70006370D01*
X194810065Y-70089935D01*
X194893630Y-70158515D01*
X194988968Y-70209474D01*
X195092416Y-70240855D01*
X195100000Y-70241602D01*
X195100001Y-71884123D01*
X195097945Y-71905000D01*
X195106150Y-71988314D01*
X195130453Y-72068427D01*
X195169917Y-72142260D01*
X195223027Y-72206974D01*
X195239239Y-72220279D01*
X195292446Y-72273486D01*
X195193801Y-72511635D01*
X195140000Y-72782112D01*
X195140000Y-73057888D01*
X195193801Y-73328365D01*
X195299336Y-73583149D01*
X195452549Y-73812448D01*
X195647552Y-74007451D01*
X195876851Y-74160664D01*
X196131635Y-74266199D01*
X196402112Y-74320000D01*
X196677888Y-74320000D01*
X196948365Y-74266199D01*
X197203149Y-74160664D01*
X197432448Y-74007451D01*
X197627451Y-73812448D01*
X197780664Y-73583149D01*
X197886199Y-73328365D01*
X197940000Y-73057888D01*
X197940000Y-72782112D01*
X197886199Y-72511635D01*
X197780664Y-72256851D01*
X197627451Y-72027552D01*
X197432448Y-71832549D01*
X197203149Y-71679336D01*
X196948365Y-71573801D01*
X196677888Y-71520000D01*
X196402112Y-71520000D01*
X196131635Y-71573801D01*
X195950000Y-71649037D01*
X195950000Y-70241602D01*
X195957584Y-70240855D01*
X196061032Y-70209474D01*
X196156370Y-70158515D01*
X196239935Y-70089935D01*
X196308515Y-70006370D01*
X196359474Y-69911032D01*
X196390855Y-69807584D01*
X196401451Y-69700001D01*
X196401451Y-68799999D01*
X196390855Y-68692416D01*
X196359474Y-68588968D01*
X196308515Y-68493630D01*
X196252192Y-68425000D01*
X196943960Y-68425000D01*
X197804716Y-69285756D01*
X197818026Y-69301974D01*
X197882740Y-69355084D01*
X197941864Y-69386686D01*
X197956573Y-69394548D01*
X198036686Y-69418850D01*
X198086458Y-69423752D01*
X198091496Y-69440360D01*
X198110011Y-69475000D01*
X198091496Y-69509640D01*
X198074341Y-69566190D01*
X198068549Y-69625000D01*
X198068549Y-70275000D01*
X198074341Y-70333810D01*
X198091496Y-70390360D01*
X198119353Y-70442477D01*
X198156842Y-70488158D01*
X198202523Y-70525647D01*
X198254640Y-70553504D01*
X198311190Y-70570659D01*
X198370000Y-70576451D01*
X199430000Y-70576451D01*
X199488810Y-70570659D01*
X199545360Y-70553504D01*
X199597477Y-70525647D01*
X199643158Y-70488158D01*
X199680647Y-70442477D01*
X199708504Y-70390360D01*
X199713164Y-70375000D01*
X200286836Y-70375000D01*
X200291496Y-70390360D01*
X200319353Y-70442477D01*
X200356842Y-70488158D01*
X200402523Y-70525647D01*
X200454640Y-70553504D01*
X200511190Y-70570659D01*
X200570000Y-70576451D01*
X201630000Y-70576451D01*
X201688810Y-70570659D01*
X201713504Y-70563168D01*
X201700000Y-70631056D01*
X201700000Y-70768944D01*
X201726901Y-70904182D01*
X201779668Y-71031574D01*
X201856274Y-71146224D01*
X201953776Y-71243726D01*
X201975000Y-71257907D01*
X201975001Y-76242961D01*
X201542962Y-76675000D01*
X201120304Y-76675000D01*
X201004182Y-76626901D01*
X200868944Y-76600000D01*
X200731056Y-76600000D01*
X200595818Y-76626901D01*
X200468426Y-76679668D01*
X200353776Y-76756274D01*
X200256274Y-76853776D01*
X200179668Y-76968426D01*
X200126901Y-77095818D01*
X200100000Y-77231056D01*
X200100000Y-77368944D01*
X200126901Y-77504182D01*
X200179668Y-77631574D01*
X200256274Y-77746224D01*
X200353776Y-77843726D01*
X200468426Y-77920332D01*
X200595818Y-77973099D01*
X200731056Y-78000000D01*
X200868944Y-78000000D01*
X201004182Y-77973099D01*
X201131574Y-77920332D01*
X201246224Y-77843726D01*
X201343726Y-77746224D01*
X201420332Y-77631574D01*
X201464476Y-77525000D01*
X201698135Y-77525000D01*
X201719002Y-77527055D01*
X201739869Y-77525000D01*
X201739876Y-77525000D01*
X201802316Y-77518850D01*
X201882429Y-77494548D01*
X201956262Y-77455084D01*
X202020976Y-77401974D01*
X202034286Y-77385756D01*
X202685756Y-76734286D01*
X202701974Y-76720976D01*
X202755084Y-76656262D01*
X202794548Y-76582429D01*
X202818850Y-76502316D01*
X202825000Y-76439876D01*
X202827056Y-76419002D01*
X202825000Y-76398128D01*
X202825000Y-71257907D01*
X202846224Y-71243726D01*
X202943726Y-71146224D01*
X203020332Y-71031574D01*
X203073099Y-70904182D01*
X203100000Y-70768944D01*
X203100000Y-70631056D01*
X203073099Y-70495818D01*
X203020332Y-70368426D01*
X202943726Y-70253776D01*
X202846224Y-70156274D01*
X202731574Y-70079668D01*
X202604182Y-70026901D01*
X202546460Y-70015419D01*
X202195283Y-69664243D01*
X202181974Y-69648026D01*
X202117260Y-69594916D01*
X202043427Y-69555452D01*
X201963314Y-69531150D01*
X201913542Y-69526248D01*
X201908504Y-69509640D01*
X201889989Y-69475001D01*
X201908505Y-69440361D01*
X201925660Y-69383810D01*
X201931452Y-69325000D01*
X201930000Y-69102000D01*
X201855000Y-69027000D01*
X201127000Y-69027000D01*
X201127000Y-69047000D01*
X201073000Y-69047000D01*
X201073000Y-69027000D01*
X200345000Y-69027000D01*
X200270000Y-69102000D01*
X200268548Y-69325000D01*
X200274340Y-69383810D01*
X200291495Y-69440361D01*
X200310011Y-69475001D01*
X200291496Y-69509640D01*
X200286836Y-69525000D01*
X199713164Y-69525000D01*
X199708504Y-69509640D01*
X199689989Y-69475000D01*
X199708504Y-69440360D01*
X199725659Y-69383810D01*
X199731451Y-69325000D01*
X199731451Y-68675000D01*
X199725659Y-68616190D01*
X199708504Y-68559640D01*
X199689989Y-68525000D01*
X199708504Y-68490360D01*
X199713164Y-68475000D01*
X200286836Y-68475000D01*
X200291496Y-68490360D01*
X200310011Y-68524999D01*
X200291495Y-68559639D01*
X200274340Y-68616190D01*
X200268548Y-68675000D01*
X200270000Y-68898000D01*
X200345000Y-68973000D01*
X201073000Y-68973000D01*
X201073000Y-68953000D01*
X201127000Y-68953000D01*
X201127000Y-68973000D01*
X201855000Y-68973000D01*
X201930000Y-68898000D01*
X201931274Y-68702314D01*
X202984719Y-69755760D01*
X202998026Y-69771974D01*
X203014238Y-69785279D01*
X203014239Y-69785280D01*
X203021855Y-69791530D01*
X203062740Y-69825084D01*
X203136573Y-69864548D01*
X203192383Y-69881478D01*
X203216685Y-69888850D01*
X203225098Y-69889679D01*
X203279126Y-69895000D01*
X203279132Y-69895000D01*
X203299999Y-69897055D01*
X203320866Y-69895000D01*
X203493960Y-69895000D01*
X203975000Y-70376041D01*
X203975001Y-74035524D01*
X203868426Y-74079668D01*
X203753776Y-74156274D01*
X203656274Y-74253776D01*
X203579668Y-74368426D01*
X203526901Y-74495818D01*
X203500000Y-74631056D01*
X203500000Y-74768944D01*
X203526901Y-74904182D01*
X203579668Y-75031574D01*
X203656274Y-75146224D01*
X203753776Y-75243726D01*
X203868426Y-75320332D01*
X203995818Y-75373099D01*
X204131056Y-75400000D01*
X204268944Y-75400000D01*
X204404182Y-75373099D01*
X204531574Y-75320332D01*
X204646224Y-75243726D01*
X204675000Y-75214950D01*
X204675000Y-78623959D01*
X203023960Y-80275000D01*
X200057907Y-80275000D01*
X200043726Y-80253776D01*
X199946224Y-80156274D01*
X199831574Y-80079668D01*
X199704182Y-80026901D01*
X199568944Y-80000000D01*
X199431056Y-80000000D01*
X199295818Y-80026901D01*
X199168426Y-80079668D01*
X199053776Y-80156274D01*
X198956274Y-80253776D01*
X198879668Y-80368426D01*
X198826901Y-80495818D01*
X198800000Y-80631056D01*
X198800000Y-80768944D01*
X198826901Y-80904182D01*
X198879668Y-81031574D01*
X198956274Y-81146224D01*
X199053776Y-81243726D01*
X199168426Y-81320332D01*
X199295818Y-81373099D01*
X199431056Y-81400000D01*
X199568944Y-81400000D01*
X199704182Y-81373099D01*
X199831574Y-81320332D01*
X199946224Y-81243726D01*
X200043726Y-81146224D01*
X200057907Y-81125000D01*
X203179133Y-81125000D01*
X203200000Y-81127055D01*
X203220867Y-81125000D01*
X203220874Y-81125000D01*
X203283314Y-81118850D01*
X203363427Y-81094548D01*
X203437260Y-81055084D01*
X203501974Y-81001974D01*
X203515283Y-80985757D01*
X205385763Y-79115278D01*
X205401974Y-79101974D01*
X205455084Y-79037260D01*
X205480801Y-78989145D01*
X205494548Y-78963428D01*
X205518850Y-78883314D01*
X205519331Y-78878427D01*
X205525000Y-78820874D01*
X205525000Y-78820867D01*
X205527055Y-78800000D01*
X205525000Y-78779133D01*
X205525000Y-67220866D01*
X205527055Y-67199999D01*
X205525000Y-67179132D01*
X205525000Y-67179126D01*
X205518850Y-67116686D01*
X205494548Y-67036573D01*
X205455084Y-66962740D01*
X205401974Y-66898026D01*
X205385762Y-66884721D01*
X205115283Y-66614243D01*
X205101974Y-66598026D01*
X205037260Y-66544916D01*
X204963427Y-66505452D01*
X204883314Y-66481150D01*
X204820874Y-66475000D01*
X204820867Y-66475000D01*
X204800000Y-66472945D01*
X204779133Y-66475000D01*
X203657907Y-66475000D01*
X203643726Y-66453776D01*
X203546224Y-66356274D01*
X203499419Y-66325000D01*
X205675001Y-66325000D01*
X205675000Y-81642000D01*
X191750000Y-81642000D01*
X191631385Y-81653683D01*
X191517328Y-81688281D01*
X191412213Y-81744466D01*
X191320079Y-81820079D01*
X190070079Y-83070079D01*
X189994466Y-83162213D01*
X189938281Y-83267328D01*
X189903683Y-83381385D01*
X189892000Y-83500000D01*
X189892000Y-84420043D01*
X189831574Y-84379668D01*
X189704182Y-84326901D01*
X189568944Y-84300000D01*
X189431056Y-84300000D01*
X189295818Y-84326901D01*
X189168426Y-84379668D01*
X189053776Y-84456274D01*
X188956274Y-84553776D01*
X188879668Y-84668426D01*
X188826901Y-84795818D01*
X188800000Y-84931056D01*
X188800000Y-85068944D01*
X188826901Y-85204182D01*
X188879668Y-85331574D01*
X188956274Y-85446224D01*
X189053776Y-85543726D01*
X189075000Y-85557907D01*
X189075001Y-88323958D01*
X188598959Y-88800001D01*
X187303593Y-88800001D01*
X187315283Y-88785757D01*
X187406020Y-88695020D01*
X187431056Y-88700000D01*
X187568944Y-88700000D01*
X187704182Y-88673099D01*
X187831574Y-88620332D01*
X187946224Y-88543726D01*
X188043726Y-88446224D01*
X188120332Y-88331574D01*
X188173099Y-88204182D01*
X188200000Y-88068944D01*
X188200000Y-87931056D01*
X188173099Y-87795818D01*
X188120332Y-87668426D01*
X188043726Y-87553776D01*
X187946224Y-87456274D01*
X187831574Y-87379668D01*
X187704182Y-87326901D01*
X187568944Y-87300000D01*
X187431056Y-87300000D01*
X187295818Y-87326901D01*
X187168426Y-87379668D01*
X187053776Y-87456274D01*
X186956274Y-87553776D01*
X186879668Y-87668426D01*
X186826901Y-87795818D01*
X186800000Y-87931056D01*
X186800000Y-88068944D01*
X186801205Y-88075000D01*
X177557907Y-88075000D01*
X177543726Y-88053776D01*
X177446224Y-87956274D01*
X177331574Y-87879668D01*
X177204182Y-87826901D01*
X177068944Y-87800000D01*
X176931056Y-87800000D01*
X176795818Y-87826901D01*
X176668426Y-87879668D01*
X176553776Y-87956274D01*
X176456274Y-88053776D01*
X176379668Y-88168426D01*
X176326901Y-88295818D01*
X176300000Y-88431056D01*
X176300000Y-88568944D01*
X176326901Y-88704182D01*
X176366590Y-88800001D01*
X167737851Y-88800001D01*
X166675246Y-87737396D01*
X166769856Y-87766095D01*
X166875000Y-87776451D01*
X167450000Y-87776451D01*
X167555144Y-87766095D01*
X167656248Y-87735426D01*
X167749425Y-87685621D01*
X167831096Y-87618596D01*
X167898121Y-87536925D01*
X167931221Y-87475000D01*
X168086048Y-87475000D01*
X168091840Y-87533810D01*
X168108995Y-87590361D01*
X168136852Y-87642478D01*
X168174341Y-87688159D01*
X168220022Y-87725648D01*
X168272139Y-87753505D01*
X168328690Y-87770660D01*
X168387500Y-87776452D01*
X168810500Y-87775000D01*
X168885500Y-87700000D01*
X168885500Y-87027000D01*
X168939500Y-87027000D01*
X168939500Y-87700000D01*
X169014500Y-87775000D01*
X169437500Y-87776452D01*
X169496310Y-87770660D01*
X169552861Y-87753505D01*
X169604978Y-87725648D01*
X169650659Y-87688159D01*
X169688148Y-87642478D01*
X169716005Y-87590361D01*
X169733160Y-87533810D01*
X169738952Y-87475000D01*
X172336048Y-87475000D01*
X172341840Y-87533810D01*
X172358995Y-87590361D01*
X172386852Y-87642478D01*
X172424341Y-87688159D01*
X172470022Y-87725648D01*
X172522139Y-87753505D01*
X172578690Y-87770660D01*
X172637500Y-87776452D01*
X173060500Y-87775000D01*
X173135500Y-87700000D01*
X173135500Y-87027000D01*
X173189500Y-87027000D01*
X173189500Y-87700000D01*
X173264500Y-87775000D01*
X173687500Y-87776452D01*
X173746310Y-87770660D01*
X173802861Y-87753505D01*
X173854978Y-87725648D01*
X173900659Y-87688159D01*
X173938148Y-87642478D01*
X173966005Y-87590361D01*
X173983160Y-87533810D01*
X173988952Y-87475000D01*
X173987500Y-87102000D01*
X173912500Y-87027000D01*
X173189500Y-87027000D01*
X173135500Y-87027000D01*
X172412500Y-87027000D01*
X172337500Y-87102000D01*
X172336048Y-87475000D01*
X169738952Y-87475000D01*
X169737500Y-87102000D01*
X169662500Y-87027000D01*
X168939500Y-87027000D01*
X168885500Y-87027000D01*
X168162500Y-87027000D01*
X168087500Y-87102000D01*
X168086048Y-87475000D01*
X167931221Y-87475000D01*
X167947926Y-87443748D01*
X167978595Y-87342644D01*
X167988951Y-87237500D01*
X167988951Y-86762500D01*
X167978595Y-86657356D01*
X167947926Y-86556252D01*
X167931222Y-86525000D01*
X168086048Y-86525000D01*
X168087500Y-86898000D01*
X168162500Y-86973000D01*
X168885500Y-86973000D01*
X168885500Y-86300000D01*
X168939500Y-86300000D01*
X168939500Y-86973000D01*
X169662500Y-86973000D01*
X169737500Y-86898000D01*
X169738952Y-86525000D01*
X172336048Y-86525000D01*
X172337500Y-86898000D01*
X172412500Y-86973000D01*
X173135500Y-86973000D01*
X173135500Y-86300000D01*
X173189500Y-86300000D01*
X173189500Y-86973000D01*
X173912500Y-86973000D01*
X173987500Y-86898000D01*
X173988952Y-86525000D01*
X173983160Y-86466190D01*
X173966005Y-86409639D01*
X173938148Y-86357522D01*
X173900659Y-86311841D01*
X173854978Y-86274352D01*
X173802861Y-86246495D01*
X173746310Y-86229340D01*
X173687500Y-86223548D01*
X173264500Y-86225000D01*
X173189500Y-86300000D01*
X173135500Y-86300000D01*
X173060500Y-86225000D01*
X172637500Y-86223548D01*
X172578690Y-86229340D01*
X172522139Y-86246495D01*
X172470022Y-86274352D01*
X172424341Y-86311841D01*
X172386852Y-86357522D01*
X172358995Y-86409639D01*
X172341840Y-86466190D01*
X172336048Y-86525000D01*
X169738952Y-86525000D01*
X169733160Y-86466190D01*
X169716005Y-86409639D01*
X169688148Y-86357522D01*
X169650659Y-86311841D01*
X169604978Y-86274352D01*
X169552861Y-86246495D01*
X169496310Y-86229340D01*
X169437500Y-86223548D01*
X169014500Y-86225000D01*
X168939500Y-86300000D01*
X168885500Y-86300000D01*
X168810500Y-86225000D01*
X168387500Y-86223548D01*
X168328690Y-86229340D01*
X168272139Y-86246495D01*
X168220022Y-86274352D01*
X168174341Y-86311841D01*
X168136852Y-86357522D01*
X168108995Y-86409639D01*
X168091840Y-86466190D01*
X168086048Y-86525000D01*
X167931222Y-86525000D01*
X167898121Y-86463075D01*
X167831096Y-86381404D01*
X167749425Y-86314379D01*
X167656248Y-86264574D01*
X167555144Y-86233905D01*
X167450000Y-86223549D01*
X167425000Y-86223549D01*
X167425000Y-85296040D01*
X168241364Y-84479676D01*
X168313726Y-84509650D01*
X168516584Y-84550000D01*
X168723416Y-84550000D01*
X168926274Y-84509650D01*
X169117362Y-84430498D01*
X169289336Y-84315589D01*
X169435589Y-84169336D01*
X169550498Y-83997362D01*
X169629650Y-83806274D01*
X169670000Y-83603416D01*
X169670000Y-83396584D01*
X172450000Y-83396584D01*
X172450000Y-83603416D01*
X172490350Y-83806274D01*
X172569502Y-83997362D01*
X172684411Y-84169336D01*
X172830664Y-84315589D01*
X173002638Y-84430498D01*
X173193726Y-84509650D01*
X173396584Y-84550000D01*
X173603416Y-84550000D01*
X173806274Y-84509650D01*
X173878636Y-84479676D01*
X174650001Y-85251042D01*
X174650000Y-86223549D01*
X174625000Y-86223549D01*
X174519856Y-86233905D01*
X174418752Y-86264574D01*
X174325575Y-86314379D01*
X174243904Y-86381404D01*
X174176879Y-86463075D01*
X174127074Y-86556252D01*
X174096405Y-86657356D01*
X174086049Y-86762500D01*
X174086049Y-87237500D01*
X174096405Y-87342644D01*
X174127074Y-87443748D01*
X174176879Y-87536925D01*
X174243904Y-87618596D01*
X174325575Y-87685621D01*
X174418752Y-87735426D01*
X174519856Y-87766095D01*
X174625000Y-87776451D01*
X175200000Y-87776451D01*
X175305144Y-87766095D01*
X175406248Y-87735426D01*
X175499425Y-87685621D01*
X175581096Y-87618596D01*
X175648121Y-87536925D01*
X175697926Y-87443748D01*
X175728595Y-87342644D01*
X175738951Y-87237500D01*
X175738951Y-86762500D01*
X175728595Y-86657356D01*
X175697926Y-86556252D01*
X175648121Y-86463075D01*
X175581096Y-86381404D01*
X175500000Y-86314851D01*
X175500000Y-85681056D01*
X176300000Y-85681056D01*
X176300000Y-85818944D01*
X176326901Y-85954182D01*
X176379668Y-86081574D01*
X176456274Y-86196224D01*
X176553776Y-86293726D01*
X176668426Y-86370332D01*
X176679696Y-86375000D01*
X176668426Y-86379668D01*
X176553776Y-86456274D01*
X176456274Y-86553776D01*
X176379668Y-86668426D01*
X176326901Y-86795818D01*
X176300000Y-86931056D01*
X176300000Y-87068944D01*
X176326901Y-87204182D01*
X176379668Y-87331574D01*
X176456274Y-87446224D01*
X176553776Y-87543726D01*
X176668426Y-87620332D01*
X176795818Y-87673099D01*
X176931056Y-87700000D01*
X177068944Y-87700000D01*
X177204182Y-87673099D01*
X177331574Y-87620332D01*
X177446224Y-87543726D01*
X177543726Y-87446224D01*
X177557907Y-87425000D01*
X184479133Y-87425000D01*
X184500000Y-87427055D01*
X184520867Y-87425000D01*
X184520874Y-87425000D01*
X184583314Y-87418850D01*
X184663427Y-87394548D01*
X184737260Y-87355084D01*
X184801974Y-87301974D01*
X184815283Y-87285757D01*
X184906020Y-87195020D01*
X184931056Y-87200000D01*
X185068944Y-87200000D01*
X185204182Y-87173099D01*
X185331574Y-87120332D01*
X185446224Y-87043726D01*
X185543726Y-86946224D01*
X185620332Y-86831574D01*
X185673099Y-86704182D01*
X185700000Y-86568944D01*
X185700000Y-86431056D01*
X185673099Y-86295818D01*
X185620332Y-86168426D01*
X185543726Y-86053776D01*
X185446224Y-85956274D01*
X185331574Y-85879668D01*
X185204182Y-85826901D01*
X185068944Y-85800000D01*
X184931056Y-85800000D01*
X184925000Y-85801205D01*
X184925000Y-84020866D01*
X184927055Y-83999999D01*
X184925000Y-83979132D01*
X184925000Y-82916725D01*
X187123262Y-80718464D01*
X187139474Y-80705159D01*
X187192584Y-80640445D01*
X187232048Y-80566612D01*
X187256350Y-80486499D01*
X187262500Y-80424059D01*
X187262500Y-80424053D01*
X187264555Y-80403186D01*
X187263709Y-80394599D01*
X187283724Y-80381226D01*
X187381226Y-80283724D01*
X187457832Y-80169074D01*
X187510599Y-80041682D01*
X187537500Y-79906444D01*
X187537500Y-79768556D01*
X187510599Y-79633318D01*
X187457832Y-79505926D01*
X187381226Y-79391276D01*
X187283724Y-79293774D01*
X187169074Y-79217168D01*
X187041682Y-79164401D01*
X186906444Y-79137500D01*
X186768556Y-79137500D01*
X186633318Y-79164401D01*
X186505926Y-79217168D01*
X186391276Y-79293774D01*
X186293774Y-79391276D01*
X186217168Y-79505926D01*
X186164401Y-79633318D01*
X186137500Y-79768556D01*
X186137500Y-79906444D01*
X186164401Y-80041682D01*
X186217168Y-80169074D01*
X186293774Y-80283724D01*
X186324847Y-80314797D01*
X184214243Y-82425402D01*
X184198026Y-82438711D01*
X184144916Y-82503426D01*
X184105452Y-82577259D01*
X184081150Y-82657372D01*
X184075000Y-82719812D01*
X184075000Y-82719818D01*
X184072945Y-82740685D01*
X184075000Y-82761552D01*
X184075000Y-82973960D01*
X183195020Y-82093980D01*
X183200000Y-82068944D01*
X183200000Y-81931056D01*
X183173099Y-81795818D01*
X183120332Y-81668426D01*
X183043726Y-81553776D01*
X182946224Y-81456274D01*
X182831574Y-81379668D01*
X182704182Y-81326901D01*
X182568944Y-81300000D01*
X182431056Y-81300000D01*
X182295818Y-81326901D01*
X182168426Y-81379668D01*
X182053776Y-81456274D01*
X181956274Y-81553776D01*
X181879668Y-81668426D01*
X181826901Y-81795818D01*
X181800000Y-81931056D01*
X181800000Y-82068944D01*
X181804980Y-82093979D01*
X180964239Y-82934721D01*
X180948027Y-82948026D01*
X180906564Y-82998548D01*
X180500000Y-82998548D01*
X180441190Y-83004340D01*
X180384639Y-83021495D01*
X180332522Y-83049352D01*
X180286841Y-83086841D01*
X180249352Y-83132522D01*
X180221495Y-83184639D01*
X180204340Y-83241190D01*
X180198548Y-83300000D01*
X180198548Y-84450000D01*
X180204279Y-84508501D01*
X180221374Y-84565069D01*
X180240004Y-84600011D01*
X180221495Y-84634639D01*
X180204340Y-84691190D01*
X180198548Y-84750000D01*
X180198548Y-85750000D01*
X180204340Y-85808810D01*
X180221495Y-85865361D01*
X180226647Y-85875000D01*
X177726041Y-85875000D01*
X177695020Y-85843979D01*
X177700000Y-85818944D01*
X177700000Y-85681056D01*
X177673099Y-85545818D01*
X177620332Y-85418426D01*
X177543726Y-85303776D01*
X177446224Y-85206274D01*
X177331574Y-85129668D01*
X177204182Y-85076901D01*
X177068944Y-85050000D01*
X176931056Y-85050000D01*
X176795818Y-85076901D01*
X176668426Y-85129668D01*
X176553776Y-85206274D01*
X176456274Y-85303776D01*
X176379668Y-85418426D01*
X176326901Y-85545818D01*
X176300000Y-85681056D01*
X175500000Y-85681056D01*
X175500000Y-85095866D01*
X175502055Y-85074999D01*
X175500000Y-85054132D01*
X175500000Y-85054126D01*
X175493850Y-84991686D01*
X175469548Y-84911573D01*
X175430084Y-84837740D01*
X175376974Y-84773026D01*
X175360762Y-84759721D01*
X174479676Y-83878636D01*
X174509650Y-83806274D01*
X174550000Y-83603416D01*
X174550000Y-83396584D01*
X174509650Y-83193726D01*
X174430498Y-83002638D01*
X174315589Y-82830664D01*
X174169336Y-82684411D01*
X173997362Y-82569502D01*
X173806274Y-82490350D01*
X173603416Y-82450000D01*
X173396584Y-82450000D01*
X173193726Y-82490350D01*
X173002638Y-82569502D01*
X172830664Y-82684411D01*
X172684411Y-82830664D01*
X172569502Y-83002638D01*
X172490350Y-83193726D01*
X172450000Y-83396584D01*
X169670000Y-83396584D01*
X169629650Y-83193726D01*
X169550498Y-83002638D01*
X169435589Y-82830664D01*
X169289336Y-82684411D01*
X169117362Y-82569502D01*
X168926274Y-82490350D01*
X168723416Y-82450000D01*
X168516584Y-82450000D01*
X168313726Y-82490350D01*
X168122638Y-82569502D01*
X167950664Y-82684411D01*
X167804411Y-82830664D01*
X167689502Y-83002638D01*
X167610350Y-83193726D01*
X167570000Y-83396584D01*
X167570000Y-83603416D01*
X167610350Y-83806274D01*
X167640324Y-83878636D01*
X166714239Y-84804721D01*
X166698027Y-84818026D01*
X166684722Y-84834238D01*
X166684720Y-84834240D01*
X166681848Y-84837740D01*
X166644917Y-84882740D01*
X166629506Y-84911573D01*
X166605453Y-84956573D01*
X166581150Y-85036686D01*
X166572945Y-85120000D01*
X166575001Y-85140877D01*
X166575000Y-86314851D01*
X166493904Y-86381404D01*
X166426879Y-86463075D01*
X166377074Y-86556252D01*
X166346405Y-86657356D01*
X166336049Y-86762500D01*
X166336049Y-87237500D01*
X166346405Y-87342644D01*
X166375104Y-87437254D01*
X164925000Y-85987150D01*
X164925000Y-77886735D01*
X165770000Y-77886735D01*
X165770000Y-78113265D01*
X165814194Y-78335443D01*
X165900884Y-78544729D01*
X166026737Y-78733082D01*
X166186918Y-78893263D01*
X166375271Y-79019116D01*
X166584557Y-79105806D01*
X166806735Y-79150000D01*
X167033265Y-79150000D01*
X167255443Y-79105806D01*
X167464729Y-79019116D01*
X167653082Y-78893263D01*
X167813263Y-78733082D01*
X167939116Y-78544729D01*
X168025806Y-78335443D01*
X168070000Y-78113265D01*
X168070000Y-77886735D01*
X168047471Y-77773470D01*
X169700000Y-77773470D01*
X169700000Y-78226530D01*
X169788387Y-78670885D01*
X169961766Y-79089459D01*
X170213473Y-79466165D01*
X170533835Y-79786527D01*
X170910541Y-80038234D01*
X171329115Y-80211613D01*
X171773470Y-80300000D01*
X172226530Y-80300000D01*
X172670885Y-80211613D01*
X173089459Y-80038234D01*
X173249862Y-79931056D01*
X174300000Y-79931056D01*
X174300000Y-80068944D01*
X174326901Y-80204182D01*
X174379668Y-80331574D01*
X174456274Y-80446224D01*
X174553776Y-80543726D01*
X174668426Y-80620332D01*
X174795818Y-80673099D01*
X174931056Y-80700000D01*
X175068944Y-80700000D01*
X175204182Y-80673099D01*
X175331574Y-80620332D01*
X175446224Y-80543726D01*
X175543726Y-80446224D01*
X175557907Y-80425000D01*
X176442093Y-80425000D01*
X176456274Y-80446224D01*
X176553776Y-80543726D01*
X176668426Y-80620332D01*
X176795818Y-80673099D01*
X176931056Y-80700000D01*
X177068944Y-80700000D01*
X177204182Y-80673099D01*
X177331574Y-80620332D01*
X177446224Y-80543726D01*
X177543726Y-80446224D01*
X177620332Y-80331574D01*
X177673099Y-80204182D01*
X177700000Y-80068944D01*
X177700000Y-79931056D01*
X177673099Y-79795818D01*
X177620332Y-79668426D01*
X177543726Y-79553776D01*
X177446224Y-79456274D01*
X177331574Y-79379668D01*
X177204182Y-79326901D01*
X177068944Y-79300000D01*
X176931056Y-79300000D01*
X176795818Y-79326901D01*
X176668426Y-79379668D01*
X176553776Y-79456274D01*
X176456274Y-79553776D01*
X176442093Y-79575000D01*
X175557907Y-79575000D01*
X175543726Y-79553776D01*
X175446224Y-79456274D01*
X175331574Y-79379668D01*
X175204182Y-79326901D01*
X175068944Y-79300000D01*
X174931056Y-79300000D01*
X174795818Y-79326901D01*
X174668426Y-79379668D01*
X174553776Y-79456274D01*
X174456274Y-79553776D01*
X174379668Y-79668426D01*
X174326901Y-79795818D01*
X174300000Y-79931056D01*
X173249862Y-79931056D01*
X173466165Y-79786527D01*
X173786527Y-79466165D01*
X174038234Y-79089459D01*
X174211613Y-78670885D01*
X174300000Y-78226530D01*
X174300000Y-77886735D01*
X175930000Y-77886735D01*
X175930000Y-78113265D01*
X175974194Y-78335443D01*
X176060884Y-78544729D01*
X176186737Y-78733082D01*
X176346918Y-78893263D01*
X176535271Y-79019116D01*
X176744557Y-79105806D01*
X176966735Y-79150000D01*
X177193265Y-79150000D01*
X177415443Y-79105806D01*
X177624729Y-79019116D01*
X177813082Y-78893263D01*
X177973263Y-78733082D01*
X178099116Y-78544729D01*
X178185806Y-78335443D01*
X178197829Y-78274999D01*
X178847943Y-78274999D01*
X178856149Y-78358313D01*
X178880451Y-78438426D01*
X178919915Y-78512259D01*
X178973025Y-78576973D01*
X179037739Y-78630083D01*
X179111572Y-78669547D01*
X179191685Y-78693849D01*
X179254125Y-78699999D01*
X179274999Y-78702055D01*
X179295873Y-78699999D01*
X184454134Y-78699999D01*
X184475001Y-78702054D01*
X184495868Y-78699999D01*
X184495875Y-78699999D01*
X184558315Y-78693849D01*
X184638428Y-78669547D01*
X184712261Y-78630083D01*
X184776975Y-78576973D01*
X184790284Y-78560756D01*
X184906020Y-78445020D01*
X184931056Y-78450000D01*
X185068944Y-78450000D01*
X185204182Y-78423099D01*
X185331574Y-78370332D01*
X185446224Y-78293726D01*
X185543726Y-78196224D01*
X185620332Y-78081574D01*
X185673099Y-77954182D01*
X185686515Y-77886735D01*
X187770000Y-77886735D01*
X187770000Y-78113265D01*
X187814194Y-78335443D01*
X187900884Y-78544729D01*
X188026737Y-78733082D01*
X188186918Y-78893263D01*
X188375271Y-79019116D01*
X188584557Y-79105806D01*
X188806735Y-79150000D01*
X189033265Y-79150000D01*
X189255443Y-79105806D01*
X189464729Y-79019116D01*
X189653082Y-78893263D01*
X189813263Y-78733082D01*
X189939116Y-78544729D01*
X190025806Y-78335443D01*
X190070000Y-78113265D01*
X190070000Y-77886735D01*
X190047471Y-77773470D01*
X191700000Y-77773470D01*
X191700000Y-78226530D01*
X191788387Y-78670885D01*
X191961766Y-79089459D01*
X192213473Y-79466165D01*
X192533835Y-79786527D01*
X192910541Y-80038234D01*
X193329115Y-80211613D01*
X193773470Y-80300000D01*
X194226530Y-80300000D01*
X194670885Y-80211613D01*
X195089459Y-80038234D01*
X195466165Y-79786527D01*
X195786527Y-79466165D01*
X196038234Y-79089459D01*
X196211613Y-78670885D01*
X196300000Y-78226530D01*
X196300000Y-77886735D01*
X197930000Y-77886735D01*
X197930000Y-78113265D01*
X197974194Y-78335443D01*
X198060884Y-78544729D01*
X198186737Y-78733082D01*
X198346918Y-78893263D01*
X198535271Y-79019116D01*
X198744557Y-79105806D01*
X198966735Y-79150000D01*
X199193265Y-79150000D01*
X199415443Y-79105806D01*
X199624729Y-79019116D01*
X199813082Y-78893263D01*
X199973263Y-78733082D01*
X200099116Y-78544729D01*
X200185806Y-78335443D01*
X200230000Y-78113265D01*
X200230000Y-77886735D01*
X200185806Y-77664557D01*
X200099116Y-77455271D01*
X199973263Y-77266918D01*
X199813082Y-77106737D01*
X199624729Y-76980884D01*
X199415443Y-76894194D01*
X199193265Y-76850000D01*
X198966735Y-76850000D01*
X198744557Y-76894194D01*
X198535271Y-76980884D01*
X198346918Y-77106737D01*
X198186737Y-77266918D01*
X198060884Y-77455271D01*
X197974194Y-77664557D01*
X197930000Y-77886735D01*
X196300000Y-77886735D01*
X196300000Y-77773470D01*
X196211613Y-77329115D01*
X196038234Y-76910541D01*
X195786527Y-76533835D01*
X195466165Y-76213473D01*
X195089459Y-75961766D01*
X194670885Y-75788387D01*
X194226530Y-75700000D01*
X193773470Y-75700000D01*
X193329115Y-75788387D01*
X192910541Y-75961766D01*
X192533835Y-76213473D01*
X192213473Y-76533835D01*
X191961766Y-76910541D01*
X191788387Y-77329115D01*
X191700000Y-77773470D01*
X190047471Y-77773470D01*
X190025806Y-77664557D01*
X189939116Y-77455271D01*
X189813263Y-77266918D01*
X189653082Y-77106737D01*
X189464729Y-76980884D01*
X189255443Y-76894194D01*
X189033265Y-76850000D01*
X188806735Y-76850000D01*
X188584557Y-76894194D01*
X188375271Y-76980884D01*
X188186918Y-77106737D01*
X188026737Y-77266918D01*
X187900884Y-77455271D01*
X187814194Y-77664557D01*
X187770000Y-77886735D01*
X185686515Y-77886735D01*
X185700000Y-77818944D01*
X185700000Y-77681056D01*
X185673099Y-77545818D01*
X185620332Y-77418426D01*
X185543726Y-77303776D01*
X185446224Y-77206274D01*
X185331574Y-77129668D01*
X185204182Y-77076901D01*
X185068944Y-77050000D01*
X184931056Y-77050000D01*
X184795818Y-77076901D01*
X184668426Y-77129668D01*
X184553776Y-77206274D01*
X184456274Y-77303776D01*
X184379668Y-77418426D01*
X184326901Y-77545818D01*
X184300000Y-77681056D01*
X184300000Y-77818944D01*
X184304980Y-77843980D01*
X184298961Y-77849999D01*
X180608021Y-77849999D01*
X180620332Y-77831574D01*
X180673099Y-77704182D01*
X180700000Y-77568944D01*
X180700000Y-77431056D01*
X180695020Y-77406020D01*
X182214000Y-75887040D01*
X185476675Y-75924758D01*
X185500000Y-75927055D01*
X185522679Y-75924821D01*
X188855412Y-75896397D01*
X188949336Y-76123149D01*
X189102549Y-76352448D01*
X189297552Y-76547451D01*
X189526851Y-76700664D01*
X189781635Y-76806199D01*
X190052112Y-76860000D01*
X190327888Y-76860000D01*
X190598365Y-76806199D01*
X190853149Y-76700664D01*
X191082448Y-76547451D01*
X191277451Y-76352448D01*
X191430664Y-76123149D01*
X191536199Y-75868365D01*
X191590000Y-75597888D01*
X191590000Y-75322112D01*
X191536199Y-75051635D01*
X191430664Y-74796851D01*
X191277451Y-74567552D01*
X191082448Y-74372549D01*
X190853149Y-74219336D01*
X190598365Y-74113801D01*
X190327888Y-74060000D01*
X190052112Y-74060000D01*
X189781635Y-74113801D01*
X189526851Y-74219336D01*
X189297552Y-74372549D01*
X189102549Y-74567552D01*
X188949336Y-74796851D01*
X188845949Y-75046448D01*
X186074999Y-75070081D01*
X186074999Y-74670865D01*
X186077054Y-74649998D01*
X186074999Y-74629131D01*
X186074999Y-74629125D01*
X186068849Y-74566685D01*
X186044547Y-74486572D01*
X186005083Y-74412739D01*
X185951973Y-74348025D01*
X185945304Y-74342552D01*
X185950000Y-74318944D01*
X185950000Y-74181056D01*
X185923099Y-74045818D01*
X185870332Y-73918426D01*
X185793726Y-73803776D01*
X185696224Y-73706274D01*
X185581574Y-73629668D01*
X185454182Y-73576901D01*
X185318944Y-73550000D01*
X185181056Y-73550000D01*
X185045818Y-73576901D01*
X184918426Y-73629668D01*
X184803776Y-73706274D01*
X184706274Y-73803776D01*
X184629668Y-73918426D01*
X184576901Y-74045818D01*
X184550000Y-74181056D01*
X184550000Y-74318944D01*
X184576901Y-74454182D01*
X184629668Y-74581574D01*
X184706274Y-74696224D01*
X184803776Y-74793726D01*
X184918426Y-74870332D01*
X185045818Y-74923099D01*
X185181056Y-74950000D01*
X185224999Y-74950000D01*
X185225000Y-75071793D01*
X182063325Y-75035242D01*
X182040000Y-75032945D01*
X182000774Y-75036808D01*
X181961534Y-75040215D01*
X181959155Y-75040907D01*
X181956686Y-75041150D01*
X181918933Y-75052602D01*
X181881145Y-75063590D01*
X181878949Y-75064731D01*
X181876573Y-75065452D01*
X181841786Y-75084046D01*
X181806861Y-75102198D01*
X181804927Y-75103748D01*
X181802740Y-75104917D01*
X181772271Y-75129923D01*
X181741537Y-75154556D01*
X181726462Y-75172498D01*
X180093980Y-76804980D01*
X180068944Y-76800000D01*
X179931056Y-76800000D01*
X179795818Y-76826901D01*
X179699999Y-76866590D01*
X179699999Y-76751041D01*
X182035762Y-74415279D01*
X182051974Y-74401974D01*
X182105084Y-74337260D01*
X182144548Y-74263427D01*
X182166490Y-74191095D01*
X182168850Y-74183315D01*
X182170407Y-74167506D01*
X182193748Y-74160426D01*
X182286925Y-74110621D01*
X182368596Y-74043596D01*
X182435621Y-73961925D01*
X182485426Y-73868748D01*
X182516095Y-73767644D01*
X182526451Y-73662500D01*
X182526451Y-73087500D01*
X182516095Y-72982356D01*
X182485426Y-72881252D01*
X182435621Y-72788075D01*
X182368596Y-72706404D01*
X182286925Y-72639379D01*
X182193748Y-72589574D01*
X182092644Y-72558905D01*
X181987500Y-72548549D01*
X181512500Y-72548549D01*
X181407356Y-72558905D01*
X181306252Y-72589574D01*
X181213075Y-72639379D01*
X181131404Y-72706404D01*
X181064379Y-72788075D01*
X181014574Y-72881252D01*
X180983905Y-72982356D01*
X180973549Y-73087500D01*
X180973549Y-73662500D01*
X180983905Y-73767644D01*
X181014574Y-73868748D01*
X181064379Y-73961925D01*
X181131404Y-74043596D01*
X181172026Y-74076933D01*
X178989242Y-76259718D01*
X178973025Y-76273027D01*
X178919915Y-76337742D01*
X178880451Y-76411575D01*
X178856149Y-76491688D01*
X178849999Y-76554128D01*
X178849999Y-76554134D01*
X178847944Y-76575001D01*
X178849999Y-76595868D01*
X178850000Y-78254115D01*
X178847943Y-78274999D01*
X178197829Y-78274999D01*
X178230000Y-78113265D01*
X178230000Y-77886735D01*
X178185806Y-77664557D01*
X178099116Y-77455271D01*
X177973263Y-77266918D01*
X177813082Y-77106737D01*
X177624729Y-76980884D01*
X177415443Y-76894194D01*
X177193265Y-76850000D01*
X176966735Y-76850000D01*
X176744557Y-76894194D01*
X176535271Y-76980884D01*
X176346918Y-77106737D01*
X176186737Y-77266918D01*
X176060884Y-77455271D01*
X175974194Y-77664557D01*
X175930000Y-77886735D01*
X174300000Y-77886735D01*
X174300000Y-77773470D01*
X174211613Y-77329115D01*
X174038234Y-76910541D01*
X173786527Y-76533835D01*
X173466165Y-76213473D01*
X173089459Y-75961766D01*
X172670885Y-75788387D01*
X172226530Y-75700000D01*
X171773470Y-75700000D01*
X171329115Y-75788387D01*
X170910541Y-75961766D01*
X170533835Y-76213473D01*
X170213473Y-76533835D01*
X169961766Y-76910541D01*
X169788387Y-77329115D01*
X169700000Y-77773470D01*
X168047471Y-77773470D01*
X168025806Y-77664557D01*
X167939116Y-77455271D01*
X167813263Y-77266918D01*
X167653082Y-77106737D01*
X167464729Y-76980884D01*
X167255443Y-76894194D01*
X167033265Y-76850000D01*
X166806735Y-76850000D01*
X166584557Y-76894194D01*
X166375271Y-76980884D01*
X166186918Y-77106737D01*
X166026737Y-77266918D01*
X165900884Y-77455271D01*
X165814194Y-77664557D01*
X165770000Y-77886735D01*
X164925000Y-77886735D01*
X164925000Y-77520867D01*
X164927055Y-77500000D01*
X164925000Y-77479133D01*
X164925000Y-77479126D01*
X164918850Y-77416686D01*
X164918424Y-77415280D01*
X164906682Y-77376573D01*
X164894548Y-77336573D01*
X164855084Y-77262740D01*
X164801974Y-77198026D01*
X164785762Y-77184721D01*
X163056212Y-75455172D01*
X163105806Y-75335443D01*
X163108457Y-75322112D01*
X166790000Y-75322112D01*
X166790000Y-75597888D01*
X166843801Y-75868365D01*
X166949336Y-76123149D01*
X167102549Y-76352448D01*
X167297552Y-76547451D01*
X167526851Y-76700664D01*
X167781635Y-76806199D01*
X168052112Y-76860000D01*
X168327888Y-76860000D01*
X168598365Y-76806199D01*
X168853149Y-76700664D01*
X169082448Y-76547451D01*
X169277451Y-76352448D01*
X169430664Y-76123149D01*
X169536199Y-75868365D01*
X169590000Y-75597888D01*
X169590000Y-75322112D01*
X169536199Y-75051635D01*
X169430664Y-74796851D01*
X169277451Y-74567552D01*
X169082448Y-74372549D01*
X168853149Y-74219336D01*
X168598365Y-74113801D01*
X168327888Y-74060000D01*
X168052112Y-74060000D01*
X167781635Y-74113801D01*
X167526851Y-74219336D01*
X167297552Y-74372549D01*
X167102549Y-74567552D01*
X166949336Y-74796851D01*
X166843801Y-75051635D01*
X166790000Y-75322112D01*
X163108457Y-75322112D01*
X163150000Y-75113265D01*
X163150000Y-74886735D01*
X163105806Y-74664557D01*
X163019116Y-74455271D01*
X162893263Y-74266918D01*
X162733082Y-74106737D01*
X162544729Y-73980884D01*
X162335443Y-73894194D01*
X162113265Y-73850000D01*
X161886735Y-73850000D01*
X161664557Y-73894194D01*
X161455271Y-73980884D01*
X161266918Y-74106737D01*
X161106737Y-74266918D01*
X160980884Y-74455271D01*
X160894194Y-74664557D01*
X160850000Y-74886735D01*
X160850000Y-75113265D01*
X160894194Y-75335443D01*
X160980884Y-75544729D01*
X161106737Y-75733082D01*
X161266918Y-75893263D01*
X161455271Y-76019116D01*
X161664557Y-76105806D01*
X161886735Y-76150000D01*
X162113265Y-76150000D01*
X162335443Y-76105806D01*
X162455172Y-76056212D01*
X164075001Y-77676042D01*
X164075000Y-86142323D01*
X164072945Y-86163190D01*
X164075000Y-86184057D01*
X164075000Y-86184063D01*
X164077972Y-86214239D01*
X164081150Y-86246504D01*
X164084077Y-86256151D01*
X164105452Y-86326616D01*
X164144916Y-86400449D01*
X164198026Y-86465164D01*
X164214244Y-86478474D01*
X167246527Y-89510757D01*
X167259837Y-89526975D01*
X167324551Y-89580085D01*
X167398384Y-89619549D01*
X167478497Y-89643851D01*
X167540937Y-89650001D01*
X167540944Y-89650001D01*
X167561811Y-89652056D01*
X167582678Y-89650001D01*
X188754132Y-89650001D01*
X188774999Y-89652056D01*
X188795866Y-89650001D01*
X188795873Y-89650001D01*
X188858313Y-89643851D01*
X188938426Y-89619549D01*
X189012259Y-89580085D01*
X189076973Y-89526975D01*
X189090282Y-89510758D01*
X189785762Y-88815279D01*
X189801974Y-88801974D01*
X189855084Y-88737260D01*
X189892000Y-88668194D01*
X189892000Y-89675000D01*
X160325000Y-89675000D01*
X160325000Y-80286518D01*
X160868695Y-80286518D01*
X160875778Y-80322135D01*
X160944618Y-80536807D01*
X161054015Y-80733924D01*
X161199766Y-80905912D01*
X161376270Y-81046160D01*
X161576743Y-81149279D01*
X161793482Y-81211306D01*
X161973000Y-81154684D01*
X161973000Y-80107000D01*
X160925339Y-80107000D01*
X160868695Y-80286518D01*
X160325000Y-80286518D01*
X160325000Y-79873482D01*
X160868695Y-79873482D01*
X160925339Y-80053000D01*
X161973000Y-80053000D01*
X161973000Y-79005316D01*
X161793482Y-78948694D01*
X161576743Y-79010721D01*
X161376270Y-79113840D01*
X161199766Y-79254088D01*
X161054015Y-79426076D01*
X160944618Y-79623193D01*
X160875778Y-79837865D01*
X160868695Y-79873482D01*
X160325000Y-79873482D01*
X160325000Y-77426735D01*
X160850000Y-77426735D01*
X160850000Y-77653265D01*
X160894194Y-77875443D01*
X160980884Y-78084729D01*
X161106737Y-78273082D01*
X161266918Y-78433263D01*
X161455271Y-78559116D01*
X161664557Y-78645806D01*
X161886735Y-78690000D01*
X162113265Y-78690000D01*
X162335443Y-78645806D01*
X162455172Y-78596212D01*
X162750002Y-78891043D01*
X162750002Y-79214174D01*
X162623730Y-79113840D01*
X162423257Y-79010721D01*
X162206518Y-78948694D01*
X162027000Y-79005316D01*
X162027000Y-80053000D01*
X162047000Y-80053000D01*
X162047000Y-80107000D01*
X162027000Y-80107000D01*
X162027000Y-81154684D01*
X162206518Y-81211306D01*
X162423257Y-81149279D01*
X162623730Y-81046160D01*
X162750002Y-80945826D01*
X162750001Y-86654134D01*
X162747946Y-86675001D01*
X162750001Y-86695868D01*
X162750001Y-86695874D01*
X162751810Y-86714240D01*
X162756151Y-86758315D01*
X162757494Y-86762741D01*
X162780453Y-86838427D01*
X162819917Y-86912260D01*
X162873027Y-86976975D01*
X162889245Y-86990285D01*
X163729980Y-87831020D01*
X163725000Y-87856056D01*
X163725000Y-87993944D01*
X163751901Y-88129182D01*
X163804668Y-88256574D01*
X163881274Y-88371224D01*
X163978776Y-88468726D01*
X164093426Y-88545332D01*
X164220818Y-88598099D01*
X164356056Y-88625000D01*
X164493944Y-88625000D01*
X164629182Y-88598099D01*
X164756574Y-88545332D01*
X164871224Y-88468726D01*
X164968726Y-88371224D01*
X165045332Y-88256574D01*
X165098099Y-88129182D01*
X165125000Y-87993944D01*
X165125000Y-87856056D01*
X165098099Y-87720818D01*
X165045332Y-87593426D01*
X164968726Y-87478776D01*
X164871224Y-87381274D01*
X164756574Y-87304668D01*
X164629182Y-87251901D01*
X164493944Y-87225000D01*
X164356056Y-87225000D01*
X164331020Y-87229980D01*
X163600001Y-86498961D01*
X163600001Y-78735867D01*
X163602056Y-78715000D01*
X163600001Y-78694133D01*
X163600001Y-78694127D01*
X163593851Y-78631687D01*
X163593365Y-78630083D01*
X163581290Y-78590279D01*
X163569549Y-78551574D01*
X163530085Y-78477741D01*
X163497820Y-78438426D01*
X163490281Y-78429240D01*
X163490280Y-78429239D01*
X163476975Y-78413027D01*
X163460763Y-78399722D01*
X163056212Y-77995172D01*
X163105806Y-77875443D01*
X163150000Y-77653265D01*
X163150000Y-77426735D01*
X163105806Y-77204557D01*
X163019116Y-76995271D01*
X162893263Y-76806918D01*
X162733082Y-76646737D01*
X162544729Y-76520884D01*
X162335443Y-76434194D01*
X162113265Y-76390000D01*
X161886735Y-76390000D01*
X161664557Y-76434194D01*
X161455271Y-76520884D01*
X161266918Y-76646737D01*
X161106737Y-76806918D01*
X160980884Y-76995271D01*
X160894194Y-77204557D01*
X160850000Y-77426735D01*
X160325000Y-77426735D01*
X160325000Y-71610000D01*
X160848549Y-71610000D01*
X160848549Y-73310000D01*
X160854341Y-73368810D01*
X160871496Y-73425360D01*
X160899353Y-73477477D01*
X160936842Y-73523158D01*
X160982523Y-73560647D01*
X161034640Y-73588504D01*
X161091190Y-73605659D01*
X161150000Y-73611451D01*
X162850000Y-73611451D01*
X162908810Y-73605659D01*
X162965360Y-73588504D01*
X163017477Y-73560647D01*
X163063158Y-73523158D01*
X163100647Y-73477477D01*
X163128504Y-73425360D01*
X163145659Y-73368810D01*
X163151451Y-73310000D01*
X163151451Y-72782112D01*
X173140000Y-72782112D01*
X173140000Y-73057888D01*
X173193801Y-73328365D01*
X173299336Y-73583149D01*
X173452549Y-73812448D01*
X173647552Y-74007451D01*
X173876851Y-74160664D01*
X174131635Y-74266199D01*
X174402112Y-74320000D01*
X174677888Y-74320000D01*
X174948365Y-74266199D01*
X175203149Y-74160664D01*
X175432448Y-74007451D01*
X175627451Y-73812448D01*
X175780664Y-73583149D01*
X175879309Y-73345000D01*
X179609133Y-73345000D01*
X179630000Y-73347055D01*
X179650867Y-73345000D01*
X179650874Y-73345000D01*
X179713314Y-73338850D01*
X179793427Y-73314548D01*
X179867260Y-73275084D01*
X179931974Y-73221974D01*
X179945283Y-73205757D01*
X181020746Y-72130295D01*
X181064379Y-72211925D01*
X181131404Y-72293596D01*
X181213075Y-72360621D01*
X181306252Y-72410426D01*
X181407356Y-72441095D01*
X181512500Y-72451451D01*
X181987500Y-72451451D01*
X182092644Y-72441095D01*
X182193748Y-72410426D01*
X182286925Y-72360621D01*
X182368596Y-72293596D01*
X182435621Y-72211925D01*
X182485426Y-72118748D01*
X182516095Y-72017644D01*
X182526451Y-71912500D01*
X182526451Y-71337500D01*
X182516095Y-71232356D01*
X182485426Y-71131252D01*
X182435621Y-71038075D01*
X182368596Y-70956404D01*
X182286925Y-70889379D01*
X182193748Y-70839574D01*
X182092644Y-70808905D01*
X181987500Y-70798549D01*
X181512500Y-70798549D01*
X181407356Y-70808905D01*
X181306252Y-70839574D01*
X181213075Y-70889379D01*
X181131404Y-70956404D01*
X181064379Y-71038075D01*
X181045504Y-71073388D01*
X181029132Y-71075000D01*
X181029126Y-71075000D01*
X180975098Y-71080321D01*
X180966685Y-71081150D01*
X180942383Y-71088522D01*
X180886573Y-71105452D01*
X180812740Y-71144916D01*
X180748026Y-71198026D01*
X180734721Y-71214238D01*
X179453960Y-72495000D01*
X175879309Y-72495000D01*
X175780664Y-72256851D01*
X175627451Y-72027552D01*
X175432448Y-71832549D01*
X175203149Y-71679336D01*
X174948365Y-71573801D01*
X174677888Y-71520000D01*
X174402112Y-71520000D01*
X174131635Y-71573801D01*
X173876851Y-71679336D01*
X173647552Y-71832549D01*
X173452549Y-72027552D01*
X173299336Y-72256851D01*
X173193801Y-72511635D01*
X173140000Y-72782112D01*
X163151451Y-72782112D01*
X163151451Y-71610000D01*
X163145659Y-71551190D01*
X163128504Y-71494640D01*
X163100647Y-71442523D01*
X163063158Y-71396842D01*
X163017477Y-71359353D01*
X162965360Y-71331496D01*
X162908810Y-71314341D01*
X162850000Y-71308549D01*
X161150000Y-71308549D01*
X161091190Y-71314341D01*
X161034640Y-71331496D01*
X160982523Y-71359353D01*
X160936842Y-71396842D01*
X160899353Y-71442523D01*
X160871496Y-71494640D01*
X160854341Y-71551190D01*
X160848549Y-71610000D01*
X160325000Y-71610000D01*
X160325000Y-70150000D01*
X178473548Y-70150000D01*
X178479340Y-70208810D01*
X178496495Y-70265361D01*
X178524352Y-70317478D01*
X178561841Y-70363159D01*
X178607522Y-70400648D01*
X178659639Y-70428505D01*
X178716190Y-70445660D01*
X178775000Y-70451452D01*
X179148000Y-70450000D01*
X179223000Y-70375000D01*
X179223000Y-69652000D01*
X179277000Y-69652000D01*
X179277000Y-70375000D01*
X179352000Y-70450000D01*
X179725000Y-70451452D01*
X179783810Y-70445660D01*
X179840361Y-70428505D01*
X179892478Y-70400648D01*
X179938159Y-70363159D01*
X179975648Y-70317478D01*
X180003505Y-70265361D01*
X180020660Y-70208810D01*
X180026452Y-70150000D01*
X180026324Y-70112500D01*
X183473548Y-70112500D01*
X183479340Y-70171310D01*
X183496495Y-70227861D01*
X183524352Y-70279978D01*
X183561841Y-70325659D01*
X183607522Y-70363148D01*
X183659639Y-70391005D01*
X183716190Y-70408160D01*
X183775000Y-70413952D01*
X184148000Y-70412500D01*
X184223000Y-70337500D01*
X184223000Y-69614500D01*
X184277000Y-69614500D01*
X184277000Y-70337500D01*
X184352000Y-70412500D01*
X184725000Y-70413952D01*
X184783810Y-70408160D01*
X184840361Y-70391005D01*
X184892478Y-70363148D01*
X184938159Y-70325659D01*
X184975648Y-70279978D01*
X185003505Y-70227861D01*
X185020660Y-70171310D01*
X185026452Y-70112500D01*
X185025122Y-69725000D01*
X188798548Y-69725000D01*
X188804340Y-69783810D01*
X188821495Y-69840361D01*
X188849352Y-69892478D01*
X188886841Y-69938159D01*
X188932522Y-69975648D01*
X188984639Y-70003505D01*
X189041190Y-70020660D01*
X189100000Y-70026452D01*
X189523000Y-70025000D01*
X189598000Y-69950000D01*
X189598000Y-69277000D01*
X189652000Y-69277000D01*
X189652000Y-69950000D01*
X189727000Y-70025000D01*
X190150000Y-70026452D01*
X190208810Y-70020660D01*
X190265361Y-70003505D01*
X190317478Y-69975648D01*
X190363159Y-69938159D01*
X190400648Y-69892478D01*
X190428505Y-69840361D01*
X190445660Y-69783810D01*
X190451452Y-69725000D01*
X190450000Y-69352000D01*
X190375000Y-69277000D01*
X189652000Y-69277000D01*
X189598000Y-69277000D01*
X188875000Y-69277000D01*
X188800000Y-69352000D01*
X188798548Y-69725000D01*
X185025122Y-69725000D01*
X185025000Y-69689500D01*
X184950000Y-69614500D01*
X184277000Y-69614500D01*
X184223000Y-69614500D01*
X183550000Y-69614500D01*
X183475000Y-69689500D01*
X183473548Y-70112500D01*
X180026324Y-70112500D01*
X180025000Y-69727000D01*
X179950000Y-69652000D01*
X179277000Y-69652000D01*
X179223000Y-69652000D01*
X178550000Y-69652000D01*
X178475000Y-69727000D01*
X178473548Y-70150000D01*
X160325000Y-70150000D01*
X160325000Y-69100000D01*
X178473548Y-69100000D01*
X178475000Y-69523000D01*
X178550000Y-69598000D01*
X179223000Y-69598000D01*
X179223000Y-68875000D01*
X179277000Y-68875000D01*
X179277000Y-69598000D01*
X179950000Y-69598000D01*
X180025000Y-69523000D01*
X180026452Y-69100000D01*
X180022759Y-69062500D01*
X183473548Y-69062500D01*
X183475000Y-69485500D01*
X183550000Y-69560500D01*
X184223000Y-69560500D01*
X184223000Y-68837500D01*
X184277000Y-68837500D01*
X184277000Y-69560500D01*
X184950000Y-69560500D01*
X185025000Y-69485500D01*
X185026452Y-69062500D01*
X185020660Y-69003690D01*
X185003505Y-68947139D01*
X184975648Y-68895022D01*
X184938159Y-68849341D01*
X184892478Y-68811852D01*
X184840361Y-68783995D01*
X184810710Y-68775000D01*
X188798548Y-68775000D01*
X188800000Y-69148000D01*
X188875000Y-69223000D01*
X189598000Y-69223000D01*
X189598000Y-68550000D01*
X189652000Y-68550000D01*
X189652000Y-69223000D01*
X190375000Y-69223000D01*
X190450000Y-69148000D01*
X190450527Y-69012500D01*
X190548549Y-69012500D01*
X190548549Y-69487500D01*
X190558905Y-69592644D01*
X190589574Y-69693748D01*
X190639379Y-69786925D01*
X190706404Y-69868596D01*
X190788075Y-69935621D01*
X190881252Y-69985426D01*
X190982356Y-70016095D01*
X191087500Y-70026451D01*
X191662500Y-70026451D01*
X191767644Y-70016095D01*
X191868748Y-69985426D01*
X191961925Y-69935621D01*
X192043596Y-69868596D01*
X192110621Y-69786925D01*
X192160426Y-69693748D01*
X192166113Y-69675000D01*
X192598549Y-69675000D01*
X192598549Y-69700001D01*
X192609145Y-69807584D01*
X192640526Y-69911032D01*
X192691485Y-70006370D01*
X192760065Y-70089935D01*
X192843630Y-70158515D01*
X192938968Y-70209474D01*
X193042416Y-70240855D01*
X193149999Y-70251451D01*
X193800001Y-70251451D01*
X193907584Y-70240855D01*
X194011032Y-70209474D01*
X194106370Y-70158515D01*
X194189935Y-70089935D01*
X194258515Y-70006370D01*
X194309474Y-69911032D01*
X194340855Y-69807584D01*
X194351451Y-69700001D01*
X194351451Y-68799999D01*
X194340855Y-68692416D01*
X194309474Y-68588968D01*
X194258515Y-68493630D01*
X194189935Y-68410065D01*
X194106370Y-68341485D01*
X194011032Y-68290526D01*
X193907584Y-68259145D01*
X193800001Y-68248549D01*
X193149999Y-68248549D01*
X193042416Y-68259145D01*
X192938968Y-68290526D01*
X192843630Y-68341485D01*
X192760065Y-68410065D01*
X192691485Y-68493630D01*
X192640526Y-68588968D01*
X192609145Y-68692416D01*
X192598549Y-68799999D01*
X192598549Y-68825000D01*
X192166113Y-68825000D01*
X192160426Y-68806252D01*
X192110621Y-68713075D01*
X192043596Y-68631404D01*
X191961925Y-68564379D01*
X191868748Y-68514574D01*
X191767644Y-68483905D01*
X191662500Y-68473549D01*
X191087500Y-68473549D01*
X190982356Y-68483905D01*
X190881252Y-68514574D01*
X190788075Y-68564379D01*
X190706404Y-68631404D01*
X190639379Y-68713075D01*
X190589574Y-68806252D01*
X190558905Y-68907356D01*
X190548549Y-69012500D01*
X190450527Y-69012500D01*
X190451452Y-68775000D01*
X190445660Y-68716190D01*
X190428505Y-68659639D01*
X190400648Y-68607522D01*
X190363159Y-68561841D01*
X190317478Y-68524352D01*
X190265361Y-68496495D01*
X190208810Y-68479340D01*
X190150000Y-68473548D01*
X189727000Y-68475000D01*
X189652000Y-68550000D01*
X189598000Y-68550000D01*
X189523000Y-68475000D01*
X189100000Y-68473548D01*
X189041190Y-68479340D01*
X188984639Y-68496495D01*
X188932522Y-68524352D01*
X188886841Y-68561841D01*
X188849352Y-68607522D01*
X188821495Y-68659639D01*
X188804340Y-68716190D01*
X188798548Y-68775000D01*
X184810710Y-68775000D01*
X184783810Y-68766840D01*
X184725000Y-68761048D01*
X184352000Y-68762500D01*
X184277000Y-68837500D01*
X184223000Y-68837500D01*
X184148000Y-68762500D01*
X183775000Y-68761048D01*
X183716190Y-68766840D01*
X183659639Y-68783995D01*
X183607522Y-68811852D01*
X183561841Y-68849341D01*
X183524352Y-68895022D01*
X183496495Y-68947139D01*
X183479340Y-69003690D01*
X183473548Y-69062500D01*
X180022759Y-69062500D01*
X180020660Y-69041190D01*
X180003505Y-68984639D01*
X179975648Y-68932522D01*
X179938159Y-68886841D01*
X179892478Y-68849352D01*
X179840361Y-68821495D01*
X179783810Y-68804340D01*
X179725000Y-68798548D01*
X179352000Y-68800000D01*
X179277000Y-68875000D01*
X179223000Y-68875000D01*
X179148000Y-68800000D01*
X178775000Y-68798548D01*
X178716190Y-68804340D01*
X178659639Y-68821495D01*
X178607522Y-68849352D01*
X178561841Y-68886841D01*
X178524352Y-68932522D01*
X178496495Y-68984639D01*
X178479340Y-69041190D01*
X178473548Y-69100000D01*
X160325000Y-69100000D01*
X160325000Y-66325000D01*
X202700581Y-66325000D01*
X202653776Y-66356274D01*
M02*
